<svg width="366" height="152" viewBox="0 0 366 152" fill="none" xmlns="http://www.w3.org/2000/svg">
<path d="M66 76H6C2.68629 76 0 78.6863 0 82V146C0 149.314 2.68629 152 6 152H66C69.3137 152 72 149.314 72 146V82C72 78.6863 69.3137 76 66 76Z" fill="url(#paint0_linear)"/>
<mask id="mask0" mask-type="alpha" maskUnits="userSpaceOnUse" x="0" y="76" width="72" height="76">
<path d="M66 76H6C2.68629 76 0 78.6863 0 82V146C0 149.314 2.68629 152 6 152H66C69.3137 152 72 149.314 72 146V82C72 78.6863 69.3137 76 66 76Z" fill="#C4C4C4"/>
</mask>
<g mask="url(#mask0)">
<path d="M36 152V76" stroke="white" stroke-width="6.63277" stroke-linecap="round" stroke-linejoin="round"/>
<path d="M0 112L72 112" stroke="white" stroke-width="6" stroke-linecap="round" stroke-linejoin="round"/>
</g>
<path d="M16 92L31.3099 76.6901C33.9002 74.0998 38.0998 74.0998 40.6901 76.6901L56 92" stroke="black" stroke-width="6" stroke-linecap="round" stroke-linejoin="round"/>
<path d="M20 51C13.7781 49.6484 9.75563 54.0866 11 60C12.4222 65.7444 18.4558 71.8173 24.5 73L25.1786 73.177C30.0526 74.4485 34.5093 70.037 33.2876 65.1504L33 64C31.9334 58.0866 26.222 52.3516 20 51Z" stroke="black" stroke-width="6" stroke-linecap="round" stroke-linejoin="round"/>
<path d="M52 51C58.2219 49.6484 62.2444 54.0866 61 60C59.5778 65.7444 53.5442 71.8173 47.5 73L46.8214 73.177C41.9474 74.4485 37.4907 70.037 38.7124 65.1504L39 64C40.0666 58.0866 45.778 52.3516 52 51Z" stroke="black" stroke-width="6" stroke-linecap="round" stroke-linejoin="round"/>
<path d="M221.923 122C219.691 122 218.312 119.565 219.46 117.651L232.291 96.2671C233.417 94.3892 232.065 92 229.875 92C227.674 92 226.323 89.5908 227.47 87.7133L235.851 74L240.606 65.4409C242.892 61.326 248.81 61.326 251.096 65.4409L255.851 74L264.231 87.7133C265.379 89.5908 264.027 92 261.827 92C259.637 92 258.284 94.3892 259.411 96.2671L272.241 117.651C273.39 119.565 272.011 122 269.779 122C267.578 122 266.196 124.373 267.28 126.287L276.775 143.042C279.041 147.042 276.152 152 271.554 152H245.851H220.147C215.55 152 212.661 147.042 214.927 143.042L224.421 126.287C225.506 124.373 224.123 122 221.923 122Z" fill="white"/>
<path d="M192.815 127.393C193.711 125.9 192.635 124 190.893 124V124C189.134 124 188.061 122.064 188.993 120.572L196.851 108L200.621 101.297C202.915 97.2189 208.786 97.2189 211.08 101.297L214.851 108L222.708 120.572C223.641 122.064 222.568 124 220.808 124V124C219.067 124 217.991 125.9 218.887 127.393L226.399 139.913C228.798 143.912 225.917 149 221.254 149H205.851H190.448C185.784 149 182.904 143.912 185.303 139.913L192.815 127.393Z" stroke="black" stroke-width="6" stroke-linecap="round" stroke-linejoin="round"/>
<path d="M287.671 120.602C289.09 118.102 287.284 115 284.409 115C281.508 115 279.705 111.848 281.176 109.347L297.738 81.1924C297.813 81.0645 297.874 80.929 297.921 80.7882C298.379 79.4165 297.358 78 295.912 78H293.052C289.844 78 287.832 74.5334 289.424 71.7473L301.851 50L303.811 47.06C305.538 44.4697 303.681 41 300.568 41C297.575 41 295.698 37.7668 297.183 35.1682L305.851 20L312.706 8.57493C315.036 4.6909 320.665 4.69089 322.996 8.57493L329.851 20L338.518 35.1682C340.003 37.7668 338.127 41 335.134 41C332.021 41 330.164 44.4697 331.891 47.06L333.851 50L346.518 72.1682C348.003 74.7668 346.127 78 343.134 78H339.456C337.915 78 336.996 79.7177 337.851 81L354.526 109.347C355.997 111.848 354.194 115 351.293 115C348.417 115 346.611 118.102 348.031 120.602L360.764 143.038C363.035 147.038 360.146 152 355.546 152H317.851H280.155C275.556 152 272.667 147.038 274.937 143.038L287.671 120.602Z" fill="url(#paint1_linear)"/>
<defs>
<linearGradient id="paint0_linear" x1="0" y1="114" x2="72" y2="114" gradientUnits="userSpaceOnUse">
<stop stop-color="#D91E9D"/>
<stop offset="1" stop-color="#8010A7"/>
</linearGradient>
<linearGradient id="paint1_linear" x1="269.851" y1="76" x2="365.851" y2="76" gradientUnits="userSpaceOnUse">
<stop stop-color="#D91E9D"/>
<stop offset="1" stop-color="#8010A7"/>
</linearGradient>
</defs>
</svg>
