<svg width="490" height="105" viewBox="0 0 490 105" fill="none" xmlns="http://www.w3.org/2000/svg">
<path d="M79.304 25.5313H77.5169C76.9793 25.5313 76.5164 25.1199 76.5164 24.6094V15.6132C76.5164 15.1225 76.9743 14.6913 77.5169 14.6913H79.304C82.7089 14.6913 83.8837 16.5797 83.8837 18.6665V21.4273C83.8837 23.5685 82.7288 25.5313 79.304 25.5313ZM82.1414 18.6665C82.1414 17.3331 81.4595 16.2724 79.5778 16.2724H78.2636V23.9651H79.5778C81.4943 23.9651 82.1414 22.83 82.1414 21.4322V18.6665Z" fill="#4A4A49"/>
<path d="M85.9146 22.8597V20.431C85.9146 18.8499 87.0246 17.6355 89.1154 17.6355C91.2061 17.6355 92.3162 18.8499 92.3162 20.431V22.8597C92.3162 24.426 91.2061 25.6553 89.1154 25.6553C87.0246 25.6553 85.9146 24.426 85.9146 22.8597ZM90.6038 22.8597V20.4211C90.6038 19.6082 90.096 19.0977 89.1154 19.0977C88.1347 19.0977 87.627 19.6033 87.627 20.4211V22.8647C87.627 23.6924 88.1347 24.203 89.1154 24.203C90.096 24.198 90.6038 23.6875 90.6038 22.8597Z" fill="#4A4A49"/>
<path d="M94.636 23.9651V15.1969C94.636 14.7805 94.9994 14.4286 95.4922 14.4286C95.9651 14.4286 96.3434 14.7656 96.3434 15.1969V23.8709C96.3434 24.1931 96.3584 24.3318 96.5674 24.545C96.6769 24.654 96.7765 24.7432 96.7765 24.9613C96.7765 25.3926 96.428 25.6503 95.8904 25.6503C95.3827 25.6553 94.636 25.457 94.636 23.9651Z" fill="#4A4A49"/>
<path d="M100.729 24.8722C100.729 25.3034 100.445 25.6405 99.8728 25.6405C99.3053 25.6405 99.0166 25.3034 99.0166 24.8722V19.9404C99.0166 19.2663 98.907 19.2365 98.8125 19.0779C98.688 18.8896 98.6233 18.8004 98.6233 18.617C98.6233 18.2155 98.9717 17.9082 99.4496 17.9082C99.7483 17.9082 100.002 18.0767 100.191 18.3543C100.903 17.8784 101.68 17.6802 102.377 17.6802C104.214 17.6802 105.134 18.8598 105.134 20.6293V24.8672C105.134 25.2984 104.816 25.6355 104.278 25.6355C103.726 25.6355 103.422 25.2984 103.422 24.8672V20.6293C103.422 19.6628 102.964 19.0928 102.173 19.0928C101.695 19.0928 101.207 19.2613 100.684 19.5686C100.714 19.7074 100.734 19.8264 100.734 19.9354V24.8722H100.729Z" fill="#4A4A49"/>
<path d="M107.434 22.8597V20.431C107.434 18.8499 108.544 17.6355 110.635 17.6355C112.726 17.6355 113.836 18.8499 113.836 20.431V22.8597C113.836 24.426 112.726 25.6553 110.635 25.6553C108.544 25.6553 107.434 24.426 107.434 22.8597ZM112.124 22.8597V20.4211C112.124 19.6082 111.616 19.0977 110.635 19.0977C109.654 19.0977 109.147 19.6033 109.147 20.4211V22.8647C109.147 23.6924 109.654 24.203 110.635 24.203C111.616 24.198 112.124 23.6875 112.124 22.8597Z" fill="#4A4A49"/>
<path d="M118.724 17.6554C119.66 17.6554 121.004 17.8834 121.004 18.7756C121.004 19.1919 120.716 19.405 120.302 19.405C119.795 19.405 119.561 19.068 118.719 19.068C118.321 19.068 117.594 19.1473 117.594 19.8065C117.594 21.3133 121.288 20.5748 121.288 23.3207C121.288 24.7482 120.292 25.6404 118.406 25.6404C117.5 25.6404 115.822 25.4422 115.822 24.6293C115.822 24.3517 116.011 23.7222 116.708 23.8908C116.992 23.9502 117.674 24.2476 118.341 24.2476C119.053 24.2476 119.61 23.9106 119.61 23.3554C119.61 21.9131 115.917 22.6813 115.917 19.9602C115.922 18.5773 116.868 17.6554 118.724 17.6554ZM119.277 14.5228C119.436 14.3691 119.531 14.2948 119.8 14.2948C120.103 14.2948 120.437 14.5525 120.437 14.9243C120.437 15.0779 120.372 15.2167 120.228 15.3555L119.038 16.555C118.849 16.7533 118.69 16.8623 118.421 16.8623C118.072 16.8623 117.754 16.5996 117.754 16.213C117.754 15.8462 118.655 15.1226 119.118 14.6814L119.277 14.5228Z" fill="#4A4A49"/>
<path d="M123.483 23.9651V15.1969C123.483 14.7805 123.847 14.4286 124.34 14.4286C124.813 14.4286 125.196 14.7656 125.196 15.1969V23.8709C125.196 24.1931 125.216 24.3318 125.42 24.545C125.529 24.654 125.624 24.7432 125.624 24.9613C125.624 25.3926 125.275 25.6503 124.738 25.6503C124.225 25.6553 123.483 25.457 123.483 23.9651Z" fill="#4A4A49"/>
<path d="M133.952 28.7135C132.892 28.7135 132.18 28.2526 132.18 27.2414C132.18 26.6863 132.464 26.0618 132.907 25.5066C132.638 25.3976 132.414 25.1993 132.24 24.9069C131.652 25.3976 130.955 25.6603 130.084 25.6603C128.357 25.6603 127.471 24.7086 127.471 23.2811V23.2316C127.471 21.695 128.456 20.9119 130.433 20.9119C130.925 20.9119 131.398 20.9763 131.856 21.0953V20.4212C131.856 19.4992 131.383 19.068 130.403 19.068C129.91 19.068 129.626 19.1919 129.293 19.3456C129.198 19.3753 129.024 19.4844 128.785 19.4844C128.292 19.4844 128.103 19.1027 128.103 18.7954C128.073 17.9776 129.357 17.6554 130.562 17.6554C132.698 17.6554 133.574 18.7458 133.574 20.788V23.9057C133.574 24.2873 133.748 24.3071 133.972 24.3964C134.241 24.5203 134.589 24.8127 134.32 25.239C133.957 25.809 133.469 26.5277 133.733 27.1869C133.862 27.5091 134.4 27.4645 134.748 27.4645C135.067 27.4645 135.316 27.7222 135.316 27.9998C135.311 28.6194 134.49 28.7135 133.952 28.7135ZM129.168 23.2464V23.291C129.168 23.9057 129.487 24.2576 130.353 24.2576C130.891 24.2576 131.368 24.1039 131.856 23.7173V22.3344C131.398 22.2254 130.876 22.1659 130.477 22.1659C129.372 22.1708 129.168 22.6615 129.168 23.2464Z" fill="#4A4A49"/>
<path d="M139.194 17.6554C140.129 17.6554 141.474 17.8834 141.474 18.7756C141.474 19.1919 141.185 19.4051 140.777 19.4051C140.269 19.4051 140.03 19.068 139.194 19.068C138.795 19.068 138.069 19.1473 138.069 19.8066C138.069 21.3134 141.762 20.5748 141.762 23.3208C141.762 24.7483 140.762 25.6405 138.875 25.6405C137.974 25.6405 136.292 25.4422 136.292 24.6293C136.292 24.3517 136.481 23.7223 137.183 23.8908C137.466 23.9503 138.148 24.2477 138.815 24.2477C139.527 24.2477 140.085 23.9106 140.085 23.3555C140.085 21.9131 136.396 22.6814 136.396 19.9602C136.386 18.5773 137.337 17.6554 139.194 17.6554Z" fill="#4A4A49"/>
<path d="M145.66 20.4955L147.94 18.1461C148.144 17.9329 148.398 17.7149 148.747 17.7149C149.204 17.7149 149.568 18.0222 149.568 18.4385C149.568 18.6368 149.488 18.8202 149.349 18.959L147.208 21.1101C148.05 22.2452 148.891 23.3852 149.712 24.5202C149.807 24.6442 149.857 24.8424 149.857 24.9812C149.822 25.3976 149.478 25.6404 149.03 25.6404C148.537 25.6404 148.443 25.4719 148.109 24.9961L146.019 22.0767C145.894 22.1857 145.78 22.3245 145.655 22.4286V24.5351C145.655 25.1002 145.466 25.6404 144.804 25.6404C144.311 25.6404 143.948 25.3183 143.948 24.8722V15.5835C143.948 14.9838 144.092 14.4336 144.804 14.4336C145.277 14.4336 145.655 14.7706 145.655 15.2019V20.4955H145.66Z" fill="#4A4A49"/>
<path d="M152.843 16.3666C152.271 16.3666 151.848 15.9502 151.848 15.4595C151.848 14.949 152.276 14.5525 152.843 14.5525C153.396 14.5525 153.839 14.9688 153.839 15.4595C153.824 15.9651 153.396 16.3666 152.843 16.3666ZM152.843 25.6404C152.355 25.6404 151.987 25.3182 151.987 24.8721V18.4682C151.987 18.0518 152.35 17.6999 152.843 17.6999C153.321 17.6999 153.699 18.0518 153.699 18.4682V24.8721C153.694 25.3182 153.316 25.6404 152.843 25.6404Z" fill="#4A4A49"/>
<path d="M157.762 22.3989V23.1027C157.762 23.7966 158.254 24.2378 159.25 24.2378C159.837 24.2378 160.266 24.0841 160.788 23.8512C160.838 23.8214 160.948 23.7768 161.137 23.7768C161.674 23.7768 161.913 24.1585 161.913 24.4707C161.913 25.3927 160.047 25.6504 159.111 25.6504C157.159 25.6504 156.054 24.5153 156.054 23.0234V20.3022C156.054 18.8004 157.149 17.6455 159.19 17.6455C161.107 17.6455 162.058 18.6567 162.058 20.1982C162.058 21.6455 161.186 22.498 159.175 22.498C158.727 22.5079 158.269 22.4782 157.762 22.3989ZM159.155 19.0234C158.269 19.0234 157.762 19.4844 157.762 20.2229V21.13C158.299 21.1895 158.917 21.2242 159.155 21.2242C160.056 21.2242 160.36 20.8078 160.36 20.1635C160.36 19.3456 159.932 19.0234 159.155 19.0234Z" fill="#4A4A49"/>
<path d="M169.594 18.5327C169.594 16.1387 170.779 14.5724 173.392 14.5724C174.946 14.5724 176.434 15.2465 176.434 16.0445C176.434 16.446 176.086 16.783 175.628 16.783C175.324 16.783 175.229 16.6789 174.995 16.5402L174.916 16.4955C174.488 16.2031 174.03 16.0643 173.477 16.0643C171.859 16.0643 171.337 17.016 171.337 18.5377V21.7C171.337 23.2216 171.859 24.1733 173.477 24.1733C174.03 24.1733 174.493 24.0345 174.916 23.7569L174.995 23.7123C175.229 23.5735 175.329 23.4645 175.628 23.4645C176.086 23.4645 176.434 23.8016 176.434 24.1882C176.434 25.001 174.946 25.6603 173.392 25.6603C170.779 25.6603 169.594 24.094 169.594 21.7V18.5327Z" fill="#4A4A49"/>
<path d="M180.038 22.3989V23.1027C180.038 23.7966 180.531 24.2378 181.526 24.2378C182.114 24.2378 182.542 24.0841 183.065 23.8512C183.109 23.8214 183.219 23.7768 183.413 23.7768C183.951 23.7768 184.19 24.1585 184.19 24.4707C184.19 25.3927 182.323 25.6504 181.387 25.6504C179.441 25.6504 178.331 24.5153 178.331 23.0234V20.3022C178.331 18.8004 179.426 17.6455 181.467 17.6455C183.383 17.6455 184.334 18.6567 184.334 20.1982C184.334 21.6455 183.463 22.498 181.452 22.498C181.004 22.5079 180.546 22.4782 180.038 22.3989ZM181.432 19.0234C180.546 19.0234 180.038 19.4844 180.038 20.2229V21.13C180.576 21.1895 181.198 21.2242 181.432 21.2242C182.333 21.2242 182.637 20.8078 182.637 20.1635C182.637 19.3456 182.208 19.0234 181.432 19.0234Z" fill="#4A4A49"/>
<path d="M188.321 24.8722C188.321 25.3034 188.038 25.6405 187.465 25.6405C186.893 25.6405 186.609 25.3034 186.609 24.8722V19.9404C186.609 19.2663 186.499 19.2365 186.4 19.0779C186.27 18.8896 186.211 18.8004 186.211 18.617C186.211 18.2155 186.559 17.9082 187.032 17.9082C187.336 17.9082 187.585 18.0767 187.779 18.3543C188.491 17.8784 189.267 17.6802 189.964 17.6802C191.801 17.6802 192.722 18.8598 192.722 20.6293V24.8672C192.722 25.2984 192.408 25.6355 191.866 25.6355C191.313 25.6355 191.009 25.2984 191.009 24.8672V20.6293C191.009 19.6628 190.546 19.0928 189.755 19.0928C189.282 19.0928 188.789 19.2613 188.267 19.5686C188.301 19.7074 188.316 19.8264 188.316 19.9354V24.8722H188.321Z" fill="#4A4A49"/>
<path d="M195.241 16.1981C195.241 15.7669 195.539 15.4298 196.097 15.4298C196.634 15.4298 196.953 15.7817 196.953 16.1981V18.1014H198.362C198.805 18.1014 199.168 18.4236 199.168 18.8548C199.168 19.2712 198.805 19.5884 198.362 19.5884H196.953V22.2749C196.953 23.628 197.077 24.1187 198.028 24.1187C198.138 24.1187 198.252 24.1038 198.312 24.1038C198.994 24.1038 199.372 24.2724 199.372 24.7928C199.372 25.5016 198.77 25.5908 198.153 25.5908C195.823 25.5908 195.236 24.4855 195.236 22.3839V16.1981H195.241Z" fill="#4A4A49"/>
<path d="M203.15 19.6082C203.165 19.747 203.18 19.8511 203.18 19.9602V24.8771C203.18 25.3232 202.797 25.6602 202.324 25.6602C201.836 25.6602 201.468 25.3232 201.468 24.8771V19.9602C201.468 19.5339 201.403 19.3009 201.249 19.0729C201.154 18.949 201.09 18.8449 201.09 18.6615C201.09 18.2303 201.473 17.9379 201.916 17.9379C202.2 17.9379 202.454 18.1213 202.643 18.384C203.36 17.9676 204.166 17.7247 204.719 17.7247C205.525 17.7247 205.779 18.0469 205.779 18.4781C205.779 18.9688 205.386 19.291 204.908 19.2613C204.246 19.2365 203.813 19.2216 203.15 19.6082Z" fill="#4A4A49"/>
<path d="M210.498 25.6553C208.706 25.6553 207.775 24.4558 207.775 22.6912V18.4534C207.775 18.0221 208.074 17.7 208.626 17.7C209.169 17.7 209.483 18.0221 209.483 18.4534V22.6912C209.483 23.6726 209.896 24.2278 210.717 24.2278C211.19 24.2278 211.698 24.0741 212.206 23.8114C212.191 23.6776 212.176 23.5487 212.176 23.4446V18.4534C212.176 18.0221 212.459 17.7 213.032 17.7C213.604 17.7 213.888 18.0221 213.888 18.4534V23.5983C213.888 24.1336 214.013 24.198 214.172 24.4112C214.266 24.5202 214.346 24.6441 214.346 24.8275C214.346 25.2736 213.953 25.5661 213.54 25.5661C213.191 25.5661 212.922 25.3529 212.718 25.0456C212.001 25.4867 211.23 25.6553 210.498 25.6553Z" fill="#4A4A49"/>
<path d="M225.298 20.3567C225.298 19.6678 224.885 19.1126 224.108 19.1126C223.565 19.1126 223.013 19.3902 222.6 19.7917C222.629 19.9602 222.659 20.1486 222.659 20.332V24.8771C222.659 25.3084 222.376 25.6454 221.803 25.6454C221.236 25.6454 220.947 25.3084 220.947 24.8771V20.669C220.947 19.7619 220.788 19.1176 219.872 19.1176C219.334 19.1176 218.747 19.3505 218.289 19.6281C218.309 19.7372 218.319 19.8561 218.319 19.9503V24.8821C218.319 25.3133 218.035 25.6504 217.462 25.6504C216.895 25.6504 216.606 25.3133 216.606 24.8821V19.9503C216.606 19.2762 216.497 19.2465 216.402 19.0878C216.278 18.8995 216.213 18.7954 216.213 18.6418C216.213 18.2155 216.576 17.9181 217.019 17.9181C217.333 17.9181 217.577 18.0866 217.746 18.3295C218.458 17.8983 219.22 17.6554 219.981 17.6554C220.743 17.6554 221.325 17.9032 221.818 18.3791C222.58 17.9181 223.292 17.6554 224.163 17.6554C225.955 17.6554 227 18.731 227 20.327V24.8722C227 25.3034 226.716 25.6405 226.144 25.6405C225.571 25.6405 225.288 25.3034 225.288 24.8722V20.3567H225.298Z" fill="#4A4A49"/>
<path d="M78.2586 40.2772V43.4395C78.2586 43.8708 77.8604 44.2673 77.3875 44.2673C76.9295 44.2673 76.5164 43.8856 76.5164 43.4395V34.2104C76.5164 33.7197 76.9743 33.2885 77.5119 33.2885H79.8416C82.6492 33.2885 83.6448 34.9786 83.6448 36.8027C83.6448 39.0282 82.1564 40.2723 79.8416 40.2723H78.2586V40.2772ZM78.2586 38.711H79.8416C81.1907 38.711 81.9025 38.0963 81.9025 36.7928C81.9025 35.8411 81.5242 34.8746 79.8416 34.8746H78.2586V38.711Z" fill="#4A4A49"/>
<path d="M88.3588 36.2327C89.2946 36.2327 90.6387 36.4656 90.6387 37.3578C90.6387 37.7692 90.3549 37.9873 89.9418 37.9873C89.434 37.9873 89.1951 37.6503 88.3538 37.6503C87.9556 37.6503 87.2288 37.7296 87.2288 38.3888C87.2288 39.8956 90.9174 39.1571 90.9174 41.908C90.9174 43.3355 89.9219 44.2276 88.0352 44.2276C87.1292 44.2276 85.4517 44.0294 85.4517 43.2115C85.4517 42.9389 85.6408 42.3045 86.3377 42.473C86.6215 42.5325 87.3035 42.8249 87.9705 42.8249C88.6824 42.8249 89.2349 42.4879 89.2349 41.9327C89.2349 40.4904 85.5462 41.2586 85.5462 38.5375C85.5562 37.1595 86.507 36.2327 88.3588 36.2327Z" fill="#4A4A49"/>
<path d="M97.1299 43.0529C96.3234 45.4766 95.7211 47.2313 93.486 47.2313C92.9783 47.2313 92.6149 46.9091 92.6149 46.4779C92.6149 46.1111 92.9185 45.7542 93.4263 45.7245C94.2675 45.7245 94.6608 45.1693 95.1038 43.8806L92.6149 37.3082C92.5701 37.2041 92.5701 37.0802 92.5701 37.0009C92.5701 36.5845 92.9335 36.2772 93.4263 36.2772C93.7449 36.2772 94.0734 36.4457 94.2028 36.7977L94.3472 37.214C94.8848 38.7654 95.4224 40.302 95.9501 41.8831C96.428 40.1632 96.9158 38.4879 97.4584 36.8026C97.5679 36.4507 97.9512 36.2822 98.2648 36.2822C98.693 36.2822 99.1211 36.5895 99.1211 37.0504C99.1211 37.1298 99.1061 37.2041 99.0763 37.2834L97.1299 43.0529Z" fill="#4A4A49"/>
<path d="M100.739 39.157C100.739 37.5412 101.675 36.2822 103.795 36.2822C104.637 36.2822 106.25 36.4954 106.25 37.4222C106.25 37.7444 106.031 38.0666 105.488 38.0666C105.364 38.0666 105.254 38.0517 105.095 38.0071C104.746 37.8535 104.448 37.6998 103.925 37.6998C102.865 37.6998 102.451 38.2401 102.451 39.162V41.3578C102.451 42.2797 102.865 42.8299 103.925 42.8299C104.448 42.8299 104.746 42.6762 105.095 42.5226C105.224 42.473 105.319 42.4433 105.473 42.4433C106.031 42.4433 106.25 42.7803 106.25 43.1025C106.25 44.0095 104.637 44.2375 103.781 44.2375C101.675 44.2375 100.739 42.9637 100.739 41.3528V39.157Z" fill="#4A4A49"/>
<path d="M109.192 44.2227C108.699 44.2227 108.335 43.9005 108.335 43.4544V33.7048C108.335 33.3034 108.684 32.9167 109.177 32.9167C109.65 32.9167 110.033 33.2538 110.033 33.7048V36.7581C110.521 36.4359 111.128 36.2327 111.775 36.2327C113.627 36.2327 114.483 37.3083 114.483 38.8448V43.4495C114.483 43.8956 114.085 44.2178 113.627 44.2178C113.134 44.2178 112.771 43.8956 112.771 43.4495V38.7804C112.771 38.0419 112.392 37.6305 111.631 37.6305C111.078 37.6305 110.446 37.8436 110.033 38.3194V43.4495C110.033 43.9005 109.665 44.2227 109.192 44.2227Z" fill="#4A4A49"/>
<path d="M116.798 41.4421V39.0183C116.798 37.4371 117.903 36.2228 119.999 36.2228C122.089 36.2228 123.195 37.4371 123.195 39.0183V41.4421C123.195 43.0083 122.089 44.2376 119.999 44.2376C117.903 44.2376 116.798 43.0083 116.798 41.4421ZM121.487 41.4421V39.0034C121.487 38.1905 120.979 37.68 119.999 37.68C119.013 37.68 118.51 38.1856 118.51 39.0034V41.4421C118.51 42.2748 119.018 42.7803 119.999 42.7803C120.979 42.7803 121.487 42.2748 121.487 41.4421Z" fill="#4A4A49"/>
<path d="M125.479 34.7804C125.479 34.3491 125.783 34.0121 126.336 34.0121C126.873 34.0121 127.192 34.364 127.192 34.7804V36.6837H128.601C129.044 36.6837 129.407 37.0059 129.407 37.4371C129.407 37.8534 129.044 38.1756 128.601 38.1756H127.192V40.8621C127.192 42.2103 127.316 42.701 128.267 42.701C128.377 42.701 128.491 42.6861 128.551 42.6861C129.233 42.6861 129.611 42.8546 129.611 43.3751C129.611 44.0839 129.009 44.1731 128.391 44.1731C126.067 44.1731 125.474 43.0678 125.474 40.9612V34.7804H125.479Z" fill="#4A4A49"/>
<path d="M132.956 40.9811V41.6849C132.956 42.3788 133.449 42.82 134.445 42.82C135.032 42.82 135.455 42.6663 135.983 42.4334C136.033 42.4036 136.142 42.3541 136.332 42.3541C136.869 42.3541 137.108 42.7407 137.108 43.048C137.108 43.9699 135.241 44.2326 134.305 44.2326C132.359 44.2326 131.249 43.0975 131.249 41.6106V38.8894C131.249 37.3826 132.344 36.2327 134.385 36.2327C136.302 36.2327 137.252 37.2488 137.252 38.7853C137.252 40.2277 136.381 41.0901 134.37 41.0901C133.927 41.0901 133.464 41.0604 132.956 40.9811ZM134.35 37.6007C133.464 37.6007 132.956 38.0616 132.956 38.8002V39.7023C133.494 39.7667 134.111 39.7965 134.35 39.7965C135.251 39.7965 135.555 39.3801 135.555 38.7357C135.555 37.9278 135.127 37.6007 134.35 37.6007Z" fill="#4A4A49"/>
<path d="M141.215 38.1856C141.23 38.3194 141.245 38.4285 141.245 38.5375V43.4495C141.245 43.8956 140.866 44.2326 140.388 44.2326C139.901 44.2326 139.532 43.8956 139.532 43.4495V38.5375C139.532 38.1063 139.468 37.8783 139.308 37.6453C139.214 37.5214 139.149 37.4173 139.149 37.229C139.149 36.7977 139.532 36.5103 139.97 36.5103C140.254 36.5103 140.508 36.6936 140.697 36.9563C141.409 36.5449 142.22 36.2971 142.773 36.2971C143.584 36.2971 143.833 36.6193 143.833 37.0505C143.833 37.5412 143.435 37.8634 142.962 37.8337C142.305 37.8188 141.877 37.8039 141.215 38.1856Z" fill="#4A4A49"/>
<path d="M149.672 39.0033C149.672 38.0963 149.199 37.6502 148.214 37.6502C147.806 37.6502 147.547 37.7444 147.278 37.8534L146.974 37.9724C146.88 38.017 146.706 38.0517 146.561 38.0517C146.103 38.0517 145.909 37.6997 145.909 37.3776C145.909 36.5647 147.129 36.2375 148.368 36.2375C150.504 36.2375 151.38 37.328 151.38 39.3701V42.4878C151.38 42.8695 151.539 42.9339 151.773 42.9785C152.107 43.0429 152.251 43.2412 152.251 43.5287C152.251 43.9599 151.917 44.173 151.315 44.173C150.758 44.173 150.344 43.9599 150.046 43.4841C149.463 43.9748 148.766 44.2226 147.89 44.2226C146.168 44.2226 145.277 43.2858 145.277 41.8583V41.8088C145.277 40.2772 146.258 39.4891 148.239 39.4891C148.727 39.4891 149.204 39.5535 149.662 39.6725V39.0033H149.672ZM146.979 41.8236V41.8682C146.979 42.4829 147.298 42.8348 148.164 42.8348C148.702 42.8348 149.18 42.6811 149.672 42.2945V40.9166C149.214 40.8075 148.692 40.748 148.294 40.748C147.183 40.753 146.979 41.2437 146.979 41.8236Z" fill="#4A4A49"/>
<path d="M156.059 43.9154V46.6316C156.059 47.0628 155.741 47.3999 155.203 47.3999C154.65 47.3999 154.347 47.0479 154.347 46.6316V38.5424C154.347 38.1112 154.282 37.8832 154.123 37.6503C154.028 37.5263 153.963 37.4222 153.963 37.2488C153.963 36.8027 154.377 36.5102 154.755 36.5102C155.054 36.5102 155.292 36.6639 155.482 36.9117C156.213 36.5102 156.92 36.2327 157.747 36.2327C159.489 36.2327 160.455 37.4322 160.455 39.1818V41.0703C160.455 42.8993 159.758 44.2177 157.617 44.2177C157.134 44.2227 156.627 44.1434 156.059 43.9154ZM156.059 42.5622C156.552 42.7456 157.09 42.8249 157.438 42.8249C158.404 42.8249 158.752 42.2698 158.752 41.0753V39.1868C158.752 38.1905 158.324 37.6651 157.468 37.6651C157.025 37.6651 156.517 37.8188 155.994 38.0815C156.029 38.25 156.059 38.4037 156.059 38.5424V42.5622Z" fill="#4A4A49"/>
<path d="M163.675 34.9489C163.108 34.9489 162.68 34.5325 162.68 34.0418C162.68 33.5313 163.108 33.1348 163.675 33.1348C164.233 33.1348 164.676 33.5511 164.676 34.0418C164.656 34.5474 164.228 34.9489 163.675 34.9489ZM163.675 44.2227C163.187 44.2227 162.824 43.9005 162.824 43.4544V37.0505C162.824 36.6391 163.187 36.2822 163.675 36.2822C164.153 36.2822 164.531 36.6341 164.531 37.0505V43.4544C164.531 43.9005 164.148 44.2227 163.675 44.2227Z" fill="#4A4A49"/>
<path d="M168.086 34.9489C167.518 34.9489 167.085 34.5325 167.085 34.0418C167.085 33.5313 167.513 33.1348 168.086 33.1348C168.643 33.1348 169.081 33.5511 169.081 34.0418C169.066 34.5474 168.643 34.9489 168.086 34.9489ZM168.086 44.2227C167.598 44.2227 167.23 43.9005 167.23 43.4544V37.0505C167.23 36.6391 167.593 36.2822 168.086 36.2822C168.564 36.2822 168.942 36.6341 168.942 37.0505V43.4544C168.942 43.9005 168.564 44.2227 168.086 44.2227Z" fill="#4A4A49"/>
<path d="M46.7631 34.2698L45.9019 33.4123C45.5883 33.1001 45.0407 33.1001 44.7221 33.4123L43.9157 34.2153C43.5921 34.5375 43.5921 35.0629 43.9157 35.39L44.8067 36.2772C47.0767 38.5771 47.0617 42.2995 44.7719 44.5795C43.6518 45.6948 42.1684 46.3044 40.5854 46.3044C39.0024 46.3044 37.519 45.6898 36.3989 44.5795L25.1786 33.4024C25.0243 33.2488 24.8102 33.1595 24.5862 33.1595C24.3672 33.1595 24.1532 33.2488 23.9988 33.4024L23.1924 34.2054C23.0331 34.364 22.9485 34.5722 22.9485 34.7952C22.9485 35.0133 23.0331 35.2215 23.1924 35.3801L34.4177 46.5622C36.0654 48.2028 38.2557 49.1049 40.5904 49.1049C42.925 49.1049 45.1153 48.2028 46.7631 46.5622C50.163 43.1719 50.163 37.6601 46.7631 34.2698Z" fill="url(#paint0_linear)"/>
<path d="M16.0639 28.2823C16.2232 28.4409 16.4323 28.5252 16.6563 28.5252C16.8803 28.5252 17.0894 28.4409 17.2437 28.2823L18.0501 27.4793C18.2094 27.3207 18.294 27.1125 18.294 26.8944C18.294 26.6714 18.2094 26.4632 18.0501 26.3046L17.1939 25.4521C16.0788 24.3418 15.4616 22.8598 15.4616 21.2836C15.4616 19.7074 16.0788 18.2303 17.1989 17.1151C18.3189 16.0048 19.8024 15.3902 21.3853 15.3902C22.9634 15.3902 24.4518 16.0048 25.5668 17.1151L36.7772 28.2773C37.0908 28.5896 37.6434 28.5896 37.957 28.2773L38.7634 27.4744C38.9227 27.3157 39.0073 27.1076 39.0073 26.8845C39.0073 26.6615 38.9227 26.4533 38.7634 26.2996L27.5481 15.1374C25.9004 13.4968 23.7101 12.5897 21.3754 12.5897C19.0457 12.5897 16.8504 13.4918 15.2027 15.1374C13.555 16.778 12.649 18.9589 12.644 21.2836C12.644 23.6033 13.555 25.7891 15.2027 27.4297L16.0639 28.2823Z" fill="url(#paint1_linear)"/>
<path d="M34.3678 17.9726C34.6814 18.2849 35.2289 18.2849 35.5475 17.9726L36.4336 17.0904C37.5437 15.9999 39.0221 15.4002 40.5902 15.4002C42.1782 15.4002 43.6616 16.0098 44.7767 17.1201C45.8967 18.2353 46.509 19.7124 46.509 21.2886C46.509 22.8598 45.8917 24.3418 44.7767 25.4571L33.5563 36.6193C33.2328 36.9415 33.2328 37.4718 33.5563 37.794L34.3628 38.597C34.5171 38.7506 34.7311 38.8399 34.9502 38.8399C35.1692 38.8399 35.3783 38.7556 35.5376 38.597L46.7529 27.4298C48.4006 25.7892 49.3066 23.6083 49.3066 21.2836C49.3066 18.959 48.4006 16.7781 46.7529 15.1375C45.1052 13.4968 42.9149 12.5947 40.5802 12.5947C38.2456 12.5947 36.0553 13.4968 34.4076 15.1375L33.5464 15.9949C33.2228 16.3171 33.2228 16.8475 33.5464 17.1697L34.3678 17.9726Z" fill="url(#paint2_linear)"/>
<path d="M27.5977 43.727C27.2841 43.4148 26.7316 43.4148 26.418 43.727L25.5618 44.5796C24.4467 45.6898 22.9583 46.3045 21.3753 46.3045C19.7923 46.3045 18.3039 45.6898 17.1888 44.5796C14.8791 42.2797 14.8791 38.5424 17.1888 36.2426L28.4092 25.0704C28.5635 24.9168 28.6531 24.7037 28.6531 24.4856C28.6531 24.2625 28.5684 24.0543 28.4092 23.9007L27.6027 23.0977C27.2891 22.7855 26.7366 22.7855 26.4229 23.0977L15.2026 34.2699C11.7977 37.6602 11.7977 43.1719 15.2026 46.5622C16.8503 48.2028 19.0406 49.1049 21.3753 49.1049C23.71 49.1049 25.9003 48.2028 27.548 46.5622L28.4042 45.7097C28.5635 45.5511 28.6481 45.3429 28.6481 45.1198C28.6481 44.8968 28.5585 44.6886 28.4042 44.535L27.5977 43.727Z" fill="url(#paint3_linear)"/>
<path d="M30.9828 61.6946C13.8985 61.6946 0 47.8559 0 30.8498C0 13.8388 13.8985 0 30.9828 0C48.0672 0 61.9657 13.8388 61.9657 30.8498C61.9607 47.8559 48.0622 61.6946 30.9828 61.6946ZM30.9828 2.81038C15.4566 2.81038 2.82748 15.3852 2.82748 30.8448C2.82748 46.3044 15.4566 58.8793 30.9828 58.8793C46.5091 58.8793 59.1382 46.3044 59.1382 30.8448C59.1382 15.3902 46.5041 2.81038 30.9828 2.81038Z" fill="url(#paint4_linear)"/>
<path d="M442.989 15V4.97852H444.315V15H442.989ZM446.503 15V7.74023H447.61V8.77246C448.144 7.97493 448.914 7.57617 449.921 7.57617C450.358 7.57617 450.759 7.65592 451.124 7.81543C451.493 7.97038 451.769 8.17546 451.951 8.43066C452.133 8.68587 452.261 8.98893 452.334 9.33984C452.38 9.56771 452.402 9.96647 452.402 10.5361V15H451.172V10.584C451.172 10.0827 451.124 9.70898 451.028 9.46289C450.933 9.21224 450.762 9.014 450.516 8.86816C450.274 8.71777 449.989 8.64258 449.661 8.64258C449.137 8.64258 448.684 8.80892 448.301 9.1416C447.923 9.47428 447.733 10.1055 447.733 11.0352V15H446.503ZM454.59 15V8.69727H453.503V7.74023H454.59V6.96777C454.59 6.48014 454.633 6.11784 454.72 5.88086C454.838 5.56185 455.046 5.30436 455.342 5.1084C455.643 4.90788 456.062 4.80762 456.6 4.80762C456.946 4.80762 457.329 4.84863 457.748 4.93066L457.563 6.00391C457.308 5.95833 457.067 5.93555 456.839 5.93555C456.465 5.93555 456.201 6.0153 456.046 6.1748C455.891 6.33431 455.813 6.63281 455.813 7.07031V7.74023H457.229V8.69727H455.813V15H454.59ZM457.734 11.3701C457.734 10.0257 458.108 9.02995 458.855 8.38281C459.48 7.84505 460.241 7.57617 461.139 7.57617C462.137 7.57617 462.952 7.9043 463.586 8.56055C464.219 9.21224 464.536 10.1146 464.536 11.2676C464.536 12.2018 464.395 12.9378 464.112 13.4756C463.834 14.0088 463.426 14.4235 462.889 14.7197C462.355 15.016 461.772 15.1641 461.139 15.1641C460.122 15.1641 459.3 14.8382 458.671 14.1865C458.047 13.5348 457.734 12.596 457.734 11.3701ZM458.999 11.3701C458.999 12.2998 459.202 12.9971 459.607 13.4619C460.013 13.9222 460.523 14.1523 461.139 14.1523C461.749 14.1523 462.257 13.9199 462.663 13.4551C463.069 12.9902 463.271 12.2816 463.271 11.3291C463.271 10.4313 463.066 9.75228 462.656 9.29199C462.251 8.82715 461.745 8.59473 461.139 8.59473C460.523 8.59473 460.013 8.82487 459.607 9.28516C459.202 9.74544 458.999 10.4404 458.999 11.3701ZM465.958 15V4.97852H467.188V15H465.958ZM469.109 6.39355V4.97852H470.34V6.39355H469.109ZM469.109 15V7.74023H470.34V15H469.109ZM472.22 15V7.74023H473.327V8.77246C473.86 7.97493 474.631 7.57617 475.638 7.57617C476.075 7.57617 476.476 7.65592 476.841 7.81543C477.21 7.97038 477.486 8.17546 477.668 8.43066C477.85 8.68587 477.978 8.98893 478.051 9.33984C478.096 9.56771 478.119 9.96647 478.119 10.5361V15H476.889V10.584C476.889 10.0827 476.841 9.70898 476.745 9.46289C476.649 9.21224 476.479 9.014 476.232 8.86816C475.991 8.71777 475.706 8.64258 475.378 8.64258C474.854 8.64258 474.4 8.80892 474.018 9.1416C473.639 9.47428 473.45 10.1055 473.45 11.0352V15H472.22ZM480.02 6.39355V4.97852H481.25V6.39355H480.02ZM480.02 15V7.74023H481.25V15H480.02ZM487.867 14.1045C487.411 14.4919 486.972 14.7653 486.548 14.9248C486.129 15.0843 485.677 15.1641 485.194 15.1641C484.397 15.1641 483.784 14.9704 483.355 14.583C482.927 14.1911 482.713 13.6921 482.713 13.0859C482.713 12.7305 482.793 12.4069 482.952 12.1152C483.116 11.819 483.328 11.582 483.588 11.4043C483.852 11.2266 484.148 11.0921 484.477 11.001C484.718 10.9372 485.083 10.8757 485.57 10.8164C486.564 10.6979 487.295 10.5566 487.765 10.3926C487.769 10.224 487.771 10.1169 487.771 10.0713C487.771 9.56999 487.655 9.2168 487.423 9.01172C487.108 8.73372 486.641 8.59473 486.021 8.59473C485.443 8.59473 485.014 8.69727 484.736 8.90234C484.463 9.10286 484.26 9.46061 484.128 9.97559L482.925 9.81152C483.034 9.29655 483.214 8.88184 483.465 8.56738C483.715 8.24837 484.078 8.00456 484.552 7.83594C485.026 7.66276 485.575 7.57617 486.199 7.57617C486.819 7.57617 487.323 7.64909 487.71 7.79492C488.097 7.94076 488.382 8.12533 488.564 8.34863C488.747 8.56738 488.874 8.84538 488.947 9.18262C488.988 9.39225 489.009 9.77051 489.009 10.3174V11.958C489.009 13.1019 489.034 13.8265 489.084 14.1318C489.139 14.4326 489.243 14.722 489.398 15H488.113C487.986 14.7448 487.904 14.4463 487.867 14.1045ZM487.765 11.3564C487.318 11.5387 486.648 11.6937 485.755 11.8213C485.249 11.8942 484.891 11.9762 484.682 12.0674C484.472 12.1585 484.31 12.293 484.196 12.4707C484.082 12.6439 484.025 12.8376 484.025 13.0518C484.025 13.3799 484.148 13.6533 484.395 13.8721C484.645 14.0908 485.01 14.2002 485.488 14.2002C485.962 14.2002 486.384 14.0977 486.753 13.8926C487.122 13.6829 487.393 13.3981 487.566 13.0381C487.699 12.7601 487.765 12.3499 487.765 11.8076V11.3564Z" fill="black"/>
<path d="M373.955 35.4277V32.8789H383.34V34.8711C382.565 35.6328 381.777 36.7266 380.977 38.1523C380.176 39.5781 379.564 41.0951 379.141 42.7031C378.724 44.3047 378.519 45.737 378.525 47H375.879C375.924 45.0208 376.331 43.0026 377.1 40.9453C377.874 38.888 378.906 37.0488 380.195 35.4277H373.955ZM392.109 47H389.365V36.6582C388.363 37.5957 387.181 38.2891 385.82 38.7383V36.248C386.536 36.0137 387.314 35.571 388.154 34.9199C388.994 34.2624 389.57 33.4974 389.883 32.625H392.109V47ZM401.689 43.2012L404.346 42.8789C404.43 43.556 404.658 44.0736 405.029 44.4316C405.4 44.7897 405.85 44.9688 406.377 44.9688C406.943 44.9688 407.419 44.7539 407.803 44.3242C408.193 43.8945 408.389 43.3151 408.389 42.5859C408.389 41.8958 408.203 41.349 407.832 40.9453C407.461 40.5417 407.008 40.3398 406.475 40.3398C406.123 40.3398 405.703 40.4082 405.215 40.5449L405.518 38.3086C406.26 38.3281 406.826 38.1686 407.217 37.8301C407.607 37.485 407.803 37.0293 407.803 36.4629C407.803 35.9811 407.66 35.597 407.373 35.3105C407.087 35.0241 406.706 34.8809 406.23 34.8809C405.762 34.8809 405.361 35.0436 405.029 35.3691C404.697 35.6947 404.495 36.1699 404.424 36.7949L401.895 36.3652C402.07 35.4993 402.334 34.8092 402.686 34.2949C403.044 33.7741 403.538 33.3672 404.17 33.0742C404.808 32.7747 405.521 32.625 406.309 32.625C407.656 32.625 408.737 33.0547 409.551 33.9141C410.221 34.6172 410.557 35.4115 410.557 36.2969C410.557 37.5534 409.87 38.556 408.496 39.3047C409.316 39.4805 409.971 39.8743 410.459 40.4863C410.954 41.0983 411.201 41.8372 411.201 42.7031C411.201 43.9596 410.742 45.0306 409.824 45.916C408.906 46.8014 407.764 47.2441 406.396 47.2441C405.101 47.2441 404.027 46.873 403.174 46.1309C402.321 45.3822 401.826 44.4056 401.689 43.2012ZM412.822 43.2012L415.479 42.8789C415.563 43.556 415.791 44.0736 416.162 44.4316C416.533 44.7897 416.982 44.9688 417.51 44.9688C418.076 44.9688 418.551 44.7539 418.936 44.3242C419.326 43.8945 419.521 43.3151 419.521 42.5859C419.521 41.8958 419.336 41.349 418.965 40.9453C418.594 40.5417 418.141 40.3398 417.607 40.3398C417.256 40.3398 416.836 40.4082 416.348 40.5449L416.65 38.3086C417.393 38.3281 417.959 38.1686 418.35 37.8301C418.74 37.485 418.936 37.0293 418.936 36.4629C418.936 35.9811 418.792 35.597 418.506 35.3105C418.219 35.0241 417.839 34.8809 417.363 34.8809C416.895 34.8809 416.494 35.0436 416.162 35.3691C415.83 35.6947 415.628 36.1699 415.557 36.7949L413.027 36.3652C413.203 35.4993 413.467 34.8092 413.818 34.2949C414.176 33.7741 414.671 33.3672 415.303 33.0742C415.941 32.7747 416.654 32.625 417.441 32.625C418.789 32.625 419.87 33.0547 420.684 33.9141C421.354 34.6172 421.689 35.4115 421.689 36.2969C421.689 37.5534 421.003 38.556 419.629 39.3047C420.449 39.4805 421.104 39.8743 421.592 40.4863C422.087 41.0983 422.334 41.8372 422.334 42.7031C422.334 43.9596 421.875 45.0306 420.957 45.916C420.039 46.8014 418.896 47.2441 417.529 47.2441C416.234 47.2441 415.16 46.873 414.307 46.1309C413.454 45.3822 412.959 44.4056 412.822 43.2012ZM433.32 44.4512V47H423.701C423.805 46.0365 424.118 45.125 424.639 44.2656C425.16 43.3997 426.188 42.2539 427.725 40.8281C428.962 39.6758 429.72 38.8945 430 38.4844C430.378 37.918 430.566 37.3581 430.566 36.8047C430.566 36.1927 430.4 35.724 430.068 35.3984C429.743 35.0664 429.29 34.9004 428.711 34.9004C428.138 34.9004 427.682 35.0729 427.344 35.418C427.005 35.763 426.81 36.3359 426.758 37.1367L424.023 36.8633C424.186 35.3529 424.697 34.2689 425.557 33.6113C426.416 32.9538 427.49 32.625 428.779 32.625C430.192 32.625 431.302 33.0059 432.109 33.7676C432.917 34.5293 433.32 35.4766 433.32 36.6094C433.32 37.2539 433.203 37.8691 432.969 38.4551C432.741 39.0345 432.376 39.6432 431.875 40.2812C431.543 40.7044 430.944 41.3132 430.078 42.1074C429.212 42.9017 428.662 43.429 428.428 43.6895C428.2 43.9499 428.014 44.2038 427.871 44.4512H433.32ZM440.654 43.2012L443.311 42.8789C443.395 43.556 443.623 44.0736 443.994 44.4316C444.365 44.7897 444.814 44.9688 445.342 44.9688C445.908 44.9688 446.383 44.7539 446.768 44.3242C447.158 43.8945 447.354 43.3151 447.354 42.5859C447.354 41.8958 447.168 41.349 446.797 40.9453C446.426 40.5417 445.973 40.3398 445.439 40.3398C445.088 40.3398 444.668 40.4082 444.18 40.5449L444.482 38.3086C445.225 38.3281 445.791 38.1686 446.182 37.8301C446.572 37.485 446.768 37.0293 446.768 36.4629C446.768 35.9811 446.624 35.597 446.338 35.3105C446.051 35.0241 445.671 34.8809 445.195 34.8809C444.727 34.8809 444.326 35.0436 443.994 35.3691C443.662 35.6947 443.46 36.1699 443.389 36.7949L440.859 36.3652C441.035 35.4993 441.299 34.8092 441.65 34.2949C442.008 33.7741 442.503 33.3672 443.135 33.0742C443.773 32.7747 444.486 32.625 445.273 32.625C446.621 32.625 447.702 33.0547 448.516 33.9141C449.186 34.6172 449.521 35.4115 449.521 36.2969C449.521 37.5534 448.835 38.556 447.461 39.3047C448.281 39.4805 448.936 39.8743 449.424 40.4863C449.919 41.0983 450.166 41.8372 450.166 42.7031C450.166 43.9596 449.707 45.0306 448.789 45.916C447.871 46.8014 446.729 47.2441 445.361 47.2441C444.066 47.2441 442.992 46.873 442.139 46.1309C441.286 45.3822 440.791 44.4056 440.654 43.2012ZM461.182 36.1895L458.525 36.4824C458.46 35.9355 458.291 35.5319 458.018 35.2715C457.744 35.0111 457.389 34.8809 456.953 34.8809C456.374 34.8809 455.882 35.1413 455.479 35.6621C455.081 36.1829 454.831 37.2669 454.727 38.9141C455.41 38.1068 456.26 37.7031 457.275 37.7031C458.421 37.7031 459.401 38.1393 460.215 39.0117C461.035 39.8841 461.445 41.0104 461.445 42.3906C461.445 43.8555 461.016 45.0306 460.156 45.916C459.297 46.8014 458.193 47.2441 456.846 47.2441C455.4 47.2441 454.212 46.6842 453.281 45.5645C452.35 44.4382 451.885 42.5957 451.885 40.0371C451.885 37.4134 452.37 35.5221 453.34 34.3633C454.31 33.2044 455.57 32.625 457.119 32.625C458.206 32.625 459.105 32.931 459.814 33.543C460.531 34.1484 460.986 35.0306 461.182 36.1895ZM454.961 42.1758C454.961 43.0677 455.166 43.7578 455.576 44.2461C455.986 44.7279 456.455 44.9688 456.982 44.9688C457.49 44.9688 457.913 44.7702 458.252 44.373C458.59 43.9759 458.76 43.3249 458.76 42.4199C458.76 41.4889 458.577 40.8086 458.213 40.3789C457.848 39.9427 457.393 39.7246 456.846 39.7246C456.318 39.7246 455.872 39.9329 455.508 40.3496C455.143 40.7598 454.961 41.3685 454.961 42.1758ZM468.584 35.4277V32.8789H477.969V34.8711C477.194 35.6328 476.406 36.7266 475.605 38.1523C474.805 39.5781 474.193 41.0951 473.77 42.7031C473.353 44.3047 473.148 45.737 473.154 47H470.508C470.553 45.0208 470.96 43.0026 471.729 40.9453C472.503 38.888 473.535 37.0488 474.824 35.4277H468.584ZM484.355 32.625C485.742 32.625 486.826 33.1198 487.607 34.1094C488.538 35.2812 489.004 37.2246 489.004 39.9395C489.004 42.6478 488.535 44.5944 487.598 45.7793C486.823 46.7559 485.742 47.2441 484.355 47.2441C482.962 47.2441 481.839 46.7103 480.986 45.6426C480.133 44.5684 479.707 42.6576 479.707 39.9102C479.707 37.2148 480.176 35.2747 481.113 34.0898C481.888 33.1133 482.969 32.625 484.355 32.625ZM484.355 34.9004C484.023 34.9004 483.727 35.0078 483.467 35.2227C483.206 35.431 483.005 35.8086 482.861 36.3555C482.673 37.0651 482.578 38.2598 482.578 39.9395C482.578 41.6191 482.663 42.7747 482.832 43.4062C483.001 44.0312 483.213 44.4479 483.467 44.6562C483.727 44.8646 484.023 44.9688 484.355 44.9688C484.688 44.9688 484.984 44.8646 485.244 44.6562C485.505 44.4414 485.706 44.0605 485.85 43.5137C486.038 42.8105 486.133 41.6191 486.133 39.9395C486.133 38.2598 486.048 37.1074 485.879 36.4824C485.71 35.8509 485.495 35.431 485.234 35.2227C484.98 35.0078 484.688 34.9004 484.355 34.9004Z" fill="black"/>
<path d="M334 80.6666C329.395 80.6666 325.667 84.3951 325.667 89C325.667 93.6048 329.395 97.3333 334 97.3333C338.605 97.3333 342.333 93.6048 342.333 89C342.333 84.3951 338.605 80.6666 334 80.6666ZM336.303 85.7617H335.084C334.891 85.7617 334.609 85.8657 334.609 86.2816V87.4105H336.288L336.095 89.3268H334.609V94.7783H332.351V89.3268H331.282V87.4105H332.351V86.1776C332.351 85.2864 332.767 83.9049 334.624 83.9049H336.288V85.7617H336.303Z" fill="black"/>
<path d="M379.167 83.2634C378.485 83.5625 377.758 83.7607 377.001 83.857C377.78 83.3918 378.375 82.6607 378.654 81.7796C377.928 82.2127 377.126 82.5186 376.271 82.6894C375.581 81.9549 374.598 81.5 373.526 81.5C371.445 81.5 369.77 83.189 369.77 85.2595C369.77 85.5574 369.795 85.8439 369.857 86.1166C366.732 85.9642 363.967 84.4666 362.11 82.1852C361.785 82.7478 361.595 83.3918 361.595 84.085C361.595 85.3867 362.266 86.5405 363.265 87.2085C362.661 87.1971 362.068 87.0218 361.567 86.7456C361.567 86.7571 361.567 86.772 361.567 86.7869C361.567 88.6133 362.869 90.1304 364.578 90.4799C364.272 90.5635 363.938 90.6036 363.592 90.6036C363.352 90.6036 363.109 90.5899 362.881 90.5395C363.368 92.0279 364.75 93.1222 366.393 93.1577C365.114 94.158 363.49 94.7607 361.733 94.7607C361.425 94.7607 361.129 94.747 360.833 94.7092C362.498 95.7828 364.471 96.3958 366.599 96.3958C373.515 96.3958 377.297 90.6667 377.297 85.7006C377.297 85.5345 377.291 85.3741 377.283 85.2148C378.029 84.6854 378.656 84.0243 379.167 83.2634Z" fill="black"/>
<path d="M409.37 80.6666H402.633C399.893 80.6666 397.667 82.8929 397.667 85.6334V92.3696C397.667 95.107 399.893 97.3333 402.633 97.3333H409.37C412.107 97.3333 414.336 95.107 414.336 92.3666V85.6334C414.333 82.8929 412.107 80.6666 409.37 80.6666ZM412.658 92.3696C412.658 94.1845 411.185 95.6576 409.37 95.6576H402.633C400.819 95.6576 399.346 94.1845 399.346 92.3696V85.6334C399.346 83.8185 400.819 82.3454 402.633 82.3454H409.37C411.185 82.3454 412.658 83.8185 412.658 85.6334V92.3696Z" fill="black"/>
<path d="M406 84.6896C403.623 84.6896 401.69 86.6224 401.69 88.9999C401.69 91.3774 403.623 93.3103 406 93.3103C408.378 93.3103 410.31 91.3774 410.31 88.9999C410.31 86.6224 408.378 84.6896 406 84.6896ZM406 91.6345C404.545 91.6345 403.365 90.4549 403.365 88.9999C403.365 87.545 404.545 86.3653 406 86.3653C407.455 86.3653 408.635 87.545 408.635 88.9999C408.635 90.4549 407.455 91.6345 406 91.6345Z" fill="black"/>
<path d="M410.32 85.7543C410.889 85.7543 411.351 85.2925 411.351 84.7229C411.351 84.1532 410.889 83.6914 410.32 83.6914C409.75 83.6914 409.288 84.1532 409.288 84.7229C409.288 85.2925 409.75 85.7543 410.32 85.7543Z" fill="black"/>
<path d="M450.21 85.3119V85.3054C450.197 85.1719 450.053 83.9773 449.474 83.3718C448.803 82.6556 448.045 82.571 447.68 82.5287C447.651 82.5254 447.622 82.5222 447.599 82.5189L447.57 82.5157C445.363 82.3562 442.036 82.3334 442.003 82.3334H442H441.997C441.964 82.3334 438.637 82.3562 436.414 82.5157L436.385 82.5189C436.362 82.5222 436.336 82.5254 436.307 82.5287C435.945 82.571 435.193 82.6556 434.52 83.3978C433.966 83.9968 433.807 85.1654 433.79 85.2956L433.787 85.3119C433.784 85.3672 433.667 86.6986 433.667 88.0332V89.28C433.667 90.6146 433.784 91.9427 433.79 91.9981V92.0079C433.803 92.1413 433.943 93.3099 434.523 93.9187C435.154 94.6088 435.952 94.6999 436.378 94.7487C436.447 94.7552 436.505 94.7618 436.544 94.7715L436.583 94.778C437.856 94.8985 441.844 94.9603 442.013 94.9603H442.02H442.026C442.059 94.9603 445.385 94.9375 447.589 94.778L447.619 94.7748C447.648 94.7715 447.677 94.7683 447.713 94.765C448.071 94.726 448.82 94.6478 449.484 93.9187C450.037 93.3197 450.197 92.1511 450.213 92.0209L450.216 92.0046C450.223 91.9493 450.34 90.6211 450.34 89.2865V88.0398C450.333 86.6986 450.216 85.3672 450.21 85.3119ZM444.559 89.0879L440.877 91.0671C440.776 91.1224 440.669 91.1485 440.558 91.1485C440.438 91.1485 440.317 91.1159 440.21 91.0508C440.005 90.9271 439.881 90.7123 439.881 90.4714V86.4805C439.881 86.2396 440.005 86.0215 440.213 85.8978C440.421 85.7741 440.672 85.7676 440.884 85.8848L444.565 87.8998C444.783 88.0202 444.917 88.2481 444.913 88.4955C444.913 88.7429 444.777 88.9707 444.559 89.0879Z" fill="black"/>
<path d="M471.672 79.4166C470.562 79.4166 469.667 80.3117 469.667 81.4216C469.667 82.5316 470.562 83.4267 471.672 83.4267C472.782 83.4267 473.677 82.5316 473.677 81.4216C473.677 80.3117 472.782 79.4166 471.672 79.4166Z" fill="black"/>
<path d="M473.389 84.9303H469.934V96.0474H473.389V84.9303Z" fill="black"/>
<path d="M482.179 84.6617C480.496 84.6617 479.369 85.5747 478.921 86.4519H478.867V84.9303H475.555V96.0474H479.01V90.5515C479.01 89.1014 479.279 87.7051 481.087 87.7051C482.859 87.7051 482.877 89.3699 482.877 90.6589V96.0474H486.332V89.9607C486.332 86.9532 485.688 84.6617 482.179 84.6617Z" fill="black"/>
<defs>
<linearGradient id="paint0_linear" x1="31.5949" y1="43.7496" x2="43.8858" y2="31.4058" gradientUnits="userSpaceOnUse">
<stop stop-color="#D91E9D"/>
<stop offset="0.2048" stop-color="#D51D9D"/>
<stop offset="0.4204" stop-color="#C81B9F"/>
<stop offset="0.641" stop-color="#B318A1"/>
<stop offset="0.8636" stop-color="#9613A5"/>
<stop offset="1" stop-color="#8010A7"/>
</linearGradient>
<linearGradient id="paint1_linear" x1="18.0187" y1="30.2314" x2="30.3092" y2="17.8879" gradientUnits="userSpaceOnUse">
<stop stop-color="#D91E9D"/>
<stop offset="0.2048" stop-color="#D51D9D"/>
<stop offset="0.4204" stop-color="#C81B9F"/>
<stop offset="0.641" stop-color="#B318A1"/>
<stop offset="0.8636" stop-color="#9613A5"/>
<stop offset="1" stop-color="#8010A7"/>
</linearGradient>
<linearGradient id="paint2_linear" x1="28.7838" y1="33.0392" x2="46.6835" y2="15.0623" gradientUnits="userSpaceOnUse">
<stop stop-color="#D91E9D"/>
<stop offset="0.2048" stop-color="#D51D9D"/>
<stop offset="0.4204" stop-color="#C81B9F"/>
<stop offset="0.641" stop-color="#B318A1"/>
<stop offset="0.8636" stop-color="#9613A5"/>
<stop offset="1" stop-color="#8010A7"/>
</linearGradient>
<linearGradient id="paint3_linear" x1="15.2048" y1="46.5598" x2="33.1065" y2="28.5809" gradientUnits="userSpaceOnUse">
<stop stop-color="#D91E9D"/>
<stop offset="0.2048" stop-color="#D51D9D"/>
<stop offset="0.4204" stop-color="#C81B9F"/>
<stop offset="0.641" stop-color="#B318A1"/>
<stop offset="0.8636" stop-color="#9613A5"/>
<stop offset="1" stop-color="#8010A7"/>
</linearGradient>
<linearGradient id="paint4_linear" x1="9.08448" y1="52.65" x2="52.6889" y2="8.85754" gradientUnits="userSpaceOnUse">
<stop stop-color="#D91E9D"/>
<stop offset="0.2048" stop-color="#D51D9D"/>
<stop offset="0.4204" stop-color="#C81B9F"/>
<stop offset="0.641" stop-color="#B318A1"/>
<stop offset="0.8636" stop-color="#9613A5"/>
<stop offset="1" stop-color="#8010A7"/>
</linearGradient>
</defs>
</svg>
