<svg width="20" height="20" viewBox="0 0 20 20" fill="none" xmlns="http://www.w3.org/2000/svg">
<path d="M13.3697 1.66663H6.63348C3.893 1.66663 1.66675 3.89288 1.66675 6.63335V13.3696C1.66675 16.107 3.893 18.3333 6.63348 18.3333H13.3697C16.1072 18.3333 18.3364 16.107 18.3364 13.3666V6.63335C18.3334 3.89288 16.1072 1.66663 13.3697 1.66663ZM16.6577 13.3696C16.6577 15.1845 15.1846 16.6576 13.3697 16.6576H6.63348C4.81859 16.6576 3.34551 15.1845 3.34551 13.3696V6.63335C3.34551 4.81847 4.81859 3.34539 6.63348 3.34539H13.3697C15.1846 3.34539 16.6577 4.81847 16.6577 6.63335V13.3696Z" fill="black"/>
<path d="M10 5.68958C7.62255 5.68958 5.6897 7.62242 5.6897 9.99992C5.6897 12.3774 7.62255 14.3103 10 14.3103C12.3775 14.3103 14.3104 12.3774 14.3104 9.99992C14.3104 7.62242 12.3775 5.68958 10 5.68958ZM10 12.6345C8.54511 12.6345 7.36544 11.4549 7.36544 9.99992C7.36544 8.54499 8.54511 7.36532 10 7.36532C11.455 7.36532 12.6346 8.54499 12.6346 9.99992C12.6346 11.4549 11.455 12.6345 10 12.6345Z" fill="black"/>
<path d="M14.3195 6.75432C14.8892 6.75432 15.351 6.29252 15.351 5.72286C15.351 5.15321 14.8892 4.69141 14.3195 4.69141C13.7499 4.69141 13.2881 5.15321 13.2881 5.72286C13.2881 6.29252 13.7499 6.75432 14.3195 6.75432Z" fill="black"/>
</svg>
