<svg width="20" height="20" viewBox="0 0 20 20" fill="none" xmlns="http://www.w3.org/2000/svg">
<path d="M3.67176 0.416626C2.56184 0.416626 1.66675 1.31172 1.66675 2.42164C1.66675 3.53156 2.56184 4.42665 3.67176 4.42665C4.78168 4.42665 5.67677 3.53156 5.67677 2.42164C5.67677 1.31172 4.78168 0.416626 3.67176 0.416626Z" fill="black"/>
<path d="M5.38866 5.9303H1.93359V17.0474H5.38866V5.9303Z" fill="black"/>
<path d="M14.1791 5.66174C12.4963 5.66174 11.3685 6.57474 10.921 7.45193H10.8673V5.93027H7.55542V17.0474H11.0105V11.5515C11.0105 10.1014 11.279 8.70507 13.0871 8.70507C14.8594 8.70507 14.8773 10.3699 14.8773 11.6589V17.0474H18.3324V10.9607C18.3324 7.95319 17.6879 5.66174 14.1791 5.66174Z" fill="black"/>
</svg>
