<svg width="232" height="64" viewBox="0 0 232 64" fill="none" xmlns="http://www.w3.org/2000/svg">
<path d="M81.0507 26.355H79.2243C78.6748 26.355 78.2017 25.9303 78.2017 25.4033V16.1169C78.2017 15.6104 78.6697 15.1652 79.2243 15.1652H81.0507C84.5306 15.1652 85.7313 17.1146 85.7313 19.2686V22.1185C85.7313 24.3288 84.551 26.355 81.0507 26.355ZM83.9506 19.2686C83.9506 17.8923 83.2536 16.7974 81.3305 16.7974H79.9874V24.7382H81.3305C83.2893 24.7382 83.9506 23.5665 83.9506 22.1236V19.2686Z" fill="#4A4A49"/>
<path d="M87.8071 23.5972V21.0901C87.8071 19.4579 88.9417 18.2044 91.0785 18.2044C93.2153 18.2044 94.3498 19.4579 94.3498 21.0901V23.5972C94.3498 25.214 93.2153 26.4829 91.0785 26.4829C88.9417 26.4829 87.8071 25.214 87.8071 23.5972ZM92.5997 23.5972V21.0799C92.5997 20.2408 92.0807 19.7138 91.0785 19.7138C90.0762 19.7138 89.5573 20.2356 89.5573 21.0799V23.6023C89.5573 24.4567 90.0762 24.9837 91.0785 24.9837C92.0807 24.9786 92.5997 24.4516 92.5997 23.5972Z" fill="#4A4A49"/>
<path d="M96.7205 24.7381V15.6871C96.7205 15.2573 97.0919 14.894 97.5955 14.894C98.0788 14.894 98.4655 15.242 98.4655 15.6871V24.6409C98.4655 24.9735 98.4808 25.1168 98.6944 25.3368C98.8064 25.4493 98.9081 25.5414 98.9081 25.7666C98.9081 26.2117 98.552 26.4777 98.0025 26.4777C97.4836 26.4829 96.7205 26.2782 96.7205 24.7381Z" fill="#4A4A49"/>
<path d="M102.948 25.6745C102.948 26.1196 102.658 26.4676 102.073 26.4676C101.493 26.4676 101.198 26.1196 101.198 25.6745V20.5836C101.198 19.8878 101.086 19.8571 100.989 19.6933C100.862 19.4989 100.796 19.4068 100.796 19.2175C100.796 18.8031 101.152 18.4858 101.64 18.4858C101.945 18.4858 102.205 18.6598 102.398 18.9463C103.126 18.4551 103.919 18.2505 104.632 18.2505C106.509 18.2505 107.45 19.4682 107.45 21.2948V25.6694C107.45 26.1145 107.125 26.4624 106.575 26.4624C106.01 26.4624 105.7 26.1145 105.7 25.6694V21.2948C105.7 20.2971 105.232 19.7087 104.423 19.7087C103.935 19.7087 103.436 19.8826 102.902 20.1999C102.932 20.3431 102.953 20.4659 102.953 20.5785V25.6745H102.948Z" fill="#4A4A49"/>
<path d="M109.801 23.5972V21.0901C109.801 19.4579 110.935 18.2044 113.072 18.2044C115.209 18.2044 116.343 19.4579 116.343 21.0901V23.5972C116.343 25.214 115.209 26.4829 113.072 26.4829C110.935 26.4829 109.801 25.214 109.801 23.5972ZM114.593 23.5972V21.0799C114.593 20.2408 114.074 19.7138 113.072 19.7138C112.07 19.7138 111.551 20.2356 111.551 21.0799V23.6023C111.551 24.4567 112.07 24.9837 113.072 24.9837C114.074 24.9786 114.593 24.4516 114.593 23.5972Z" fill="#4A4A49"/>
<path d="M121.339 18.2249C122.296 18.2249 123.669 18.4603 123.669 19.3812C123.669 19.811 123.374 20.031 122.952 20.031C122.433 20.031 122.194 19.6831 121.334 19.6831C120.927 19.6831 120.184 19.765 120.184 20.4454C120.184 22.0009 123.959 21.2385 123.959 24.073C123.959 25.5466 122.942 26.4675 121.014 26.4675C120.088 26.4675 118.373 26.2629 118.373 25.4238C118.373 25.1373 118.567 24.4875 119.279 24.6614C119.569 24.7228 120.266 25.0298 120.948 25.0298C121.675 25.0298 122.245 24.6819 122.245 24.1088C122.245 22.6199 118.47 23.413 118.47 20.6041C118.475 19.1766 119.442 18.2249 121.339 18.2249ZM121.904 14.9913C122.067 14.8327 122.164 14.7559 122.438 14.7559C122.749 14.7559 123.09 15.022 123.09 15.4057C123.09 15.5643 123.023 15.7076 122.876 15.8508L121.66 17.089C121.467 17.2937 121.304 17.4063 121.029 17.4063C120.673 17.4063 120.347 17.1351 120.347 16.736C120.347 16.3574 121.268 15.6104 121.741 15.155L121.904 14.9913Z" fill="#4A4A49"/>
<path d="M126.203 24.7381V15.6871C126.203 15.2573 126.575 14.894 127.078 14.894C127.562 14.894 127.953 15.242 127.953 15.6871V24.6409C127.953 24.9735 127.974 25.1168 128.182 25.3368C128.294 25.4493 128.391 25.5414 128.391 25.7666C128.391 26.2117 128.035 26.4777 127.485 26.4777C126.961 26.4829 126.203 26.2782 126.203 24.7381Z" fill="#4A4A49"/>
<path d="M136.902 29.6398C135.819 29.6398 135.091 29.1639 135.091 28.1202C135.091 27.5471 135.381 26.9025 135.834 26.3294C135.559 26.2169 135.33 26.0122 135.152 25.7103C134.552 26.2169 133.84 26.488 132.949 26.488C131.184 26.488 130.278 25.5057 130.278 24.0321V23.981C130.278 22.3948 131.286 21.5864 133.305 21.5864C133.809 21.5864 134.292 21.653 134.76 21.7758V21.0799C134.76 20.1282 134.277 19.6831 133.275 19.6831C132.771 19.6831 132.481 19.811 132.14 19.9696C132.044 20.0003 131.866 20.1129 131.621 20.1129C131.118 20.1129 130.924 19.7189 130.924 19.4017C130.894 18.5575 132.207 18.2249 133.438 18.2249C135.62 18.2249 136.516 19.3505 136.516 21.4585V24.6768C136.516 25.0708 136.694 25.0912 136.923 25.1833C137.197 25.3112 137.554 25.6131 137.279 26.0531C136.907 26.6415 136.409 27.3834 136.679 28.0639C136.811 28.3965 137.36 28.3504 137.716 28.3504C138.042 28.3504 138.296 28.6165 138.296 28.903C138.291 29.5426 137.452 29.6398 136.902 29.6398ZM132.013 23.9963V24.0423C132.013 24.6768 132.339 25.0401 133.224 25.0401C133.773 25.0401 134.262 24.8815 134.76 24.4824V23.0549C134.292 22.9423 133.758 22.8809 133.351 22.8809C132.222 22.886 132.013 23.3926 132.013 23.9963Z" fill="#4A4A49"/>
<path d="M142.26 18.2249C143.216 18.2249 144.59 18.4603 144.59 19.3812C144.59 19.811 144.295 20.031 143.878 20.031C143.359 20.031 143.114 19.6831 142.26 19.6831C141.853 19.6831 141.11 19.765 141.11 20.4455C141.11 22.0009 144.885 21.2385 144.885 24.073C144.885 25.5466 143.862 26.4676 141.934 26.4676C141.013 26.4676 139.294 26.2629 139.294 25.4238C139.294 25.1373 139.487 24.4875 140.204 24.6614C140.494 24.7228 141.191 25.0298 141.873 25.0298C142.601 25.0298 143.17 24.6819 143.17 24.1089C143.17 22.62 139.401 23.413 139.401 20.6041C139.39 19.1766 140.362 18.2249 142.26 18.2249Z" fill="#4A4A49"/>
<path d="M148.869 21.1566L151.199 18.7314C151.407 18.5114 151.667 18.2863 152.023 18.2863C152.491 18.2863 152.862 18.6035 152.862 19.0333C152.862 19.2379 152.781 19.4273 152.638 19.5705L150.451 21.7911C151.311 22.9627 152.17 24.1395 153.01 25.3112C153.107 25.4391 153.157 25.6438 153.157 25.787C153.122 26.2168 152.771 26.4675 152.313 26.4675C151.809 26.4675 151.713 26.2936 151.372 25.8024L149.235 22.7888C149.108 22.9013 148.991 23.0446 148.863 23.152V25.3265C148.863 25.9098 148.67 26.4675 147.993 26.4675C147.49 26.4675 147.118 26.135 147.118 25.6745V16.0862C147.118 15.4671 147.266 14.8992 147.993 14.8992C148.477 14.8992 148.863 15.2471 148.863 15.6922V21.1566H148.869Z" fill="#4A4A49"/>
<path d="M156.21 16.8946C155.625 16.8946 155.192 16.4648 155.192 15.9583C155.192 15.4313 155.63 15.022 156.21 15.022C156.775 15.022 157.227 15.4518 157.227 15.9583C157.212 16.4802 156.775 16.8946 156.21 16.8946ZM156.21 26.4675C155.711 26.4675 155.335 26.135 155.335 25.6745V19.064C155.335 18.6342 155.706 18.2709 156.21 18.2709C156.698 18.2709 157.085 18.6342 157.085 19.064V25.6745C157.08 26.135 156.693 26.4675 156.21 26.4675Z" fill="#4A4A49"/>
<path d="M161.237 23.1214V23.8479C161.237 24.5642 161.74 25.0196 162.758 25.0196C163.358 25.0196 163.796 24.861 164.33 24.6205C164.381 24.5898 164.493 24.5437 164.686 24.5437C165.235 24.5437 165.48 24.9377 165.48 25.26C165.48 26.2117 163.572 26.4778 162.615 26.4778C160.621 26.4778 159.491 25.3061 159.491 23.766V20.9571C159.491 19.4068 160.611 18.2147 162.697 18.2147C164.655 18.2147 165.627 19.2584 165.627 20.8496C165.627 22.3437 164.737 23.2237 162.681 23.2237C162.224 23.2339 161.755 23.2032 161.237 23.1214ZM162.661 19.637C161.755 19.637 161.237 20.1129 161.237 20.8752V21.8115C161.786 21.8729 162.417 21.9088 162.661 21.9088C163.582 21.9088 163.892 21.479 163.892 20.8138C163.892 19.9696 163.455 19.637 162.661 19.637Z" fill="#4A4A49"/>
<path d="M173.33 19.1305C173.33 16.6592 174.54 15.0424 177.211 15.0424C178.799 15.0424 180.32 15.7383 180.32 16.562C180.32 16.9764 179.964 17.3244 179.496 17.3244C179.185 17.3244 179.089 17.2169 178.85 17.0737L178.768 17.0276C178.331 16.7257 177.863 16.5825 177.298 16.5825C175.644 16.5825 175.11 17.5648 175.11 19.1356V22.3999C175.11 23.9707 175.644 24.953 177.298 24.953C177.863 24.953 178.336 24.8098 178.768 24.5233L178.85 24.4772C179.089 24.3339 179.191 24.2214 179.496 24.2214C179.964 24.2214 180.32 24.5693 180.32 24.9684C180.32 25.8075 178.799 26.488 177.211 26.488C174.54 26.488 173.33 24.8712 173.33 22.3999V19.1305Z" fill="#4A4A49"/>
<path d="M184.004 23.1214V23.8479C184.004 24.5642 184.507 25.0196 185.525 25.0196C186.125 25.0196 186.563 24.861 187.097 24.6205C187.143 24.5898 187.255 24.5437 187.453 24.5437C188.002 24.5437 188.247 24.9377 188.247 25.26C188.247 26.2117 186.339 26.4778 185.382 26.4778C183.393 26.4778 182.259 25.3061 182.259 23.766V20.9571C182.259 19.4068 183.378 18.2147 185.464 18.2147C187.422 18.2147 188.394 19.2584 188.394 20.8496C188.394 22.3437 187.504 23.2237 185.448 23.2237C184.991 23.2339 184.523 23.2032 184.004 23.1214ZM185.428 19.637C184.523 19.637 184.004 20.1129 184.004 20.8752V21.8115C184.553 21.8729 185.189 21.9088 185.428 21.9088C186.349 21.9088 186.659 21.479 186.659 20.8138C186.659 19.9696 186.222 19.637 185.428 19.637Z" fill="#4A4A49"/>
<path d="M192.469 25.6745C192.469 26.1196 192.179 26.4676 191.594 26.4676C191.009 26.4676 190.719 26.1196 190.719 25.6745V20.5836C190.719 19.8878 190.607 19.8571 190.506 19.6933C190.373 19.4989 190.312 19.4068 190.312 19.2175C190.312 18.8031 190.668 18.4858 191.152 18.4858C191.462 18.4858 191.716 18.6598 191.915 18.9463C192.642 18.4551 193.436 18.2505 194.148 18.2505C196.026 18.2505 196.967 19.4682 196.967 21.2948V25.6694C196.967 26.1145 196.646 26.4624 196.092 26.4624C195.527 26.4624 195.217 26.1145 195.217 25.6694V21.2948C195.217 20.2971 194.744 19.7087 193.935 19.7087C193.451 19.7087 192.948 19.8826 192.413 20.1999C192.449 20.3431 192.464 20.4659 192.464 20.5785V25.6745H192.469Z" fill="#4A4A49"/>
<path d="M199.541 16.7207C199.541 16.2755 199.846 15.9276 200.416 15.9276C200.965 15.9276 201.291 16.2909 201.291 16.7207V18.6854H202.731C203.184 18.6854 203.555 19.018 203.555 19.4631C203.555 19.8929 203.184 20.2203 202.731 20.2203H201.291V22.9935C201.291 24.3903 201.418 24.8968 202.39 24.8968C202.502 24.8968 202.619 24.8814 202.68 24.8814C203.377 24.8814 203.764 25.0554 203.764 25.5926C203.764 26.3243 203.148 26.4164 202.517 26.4164C200.136 26.4164 199.536 25.2754 199.536 23.106V16.7207H199.541Z" fill="#4A4A49"/>
<path d="M207.625 20.2408C207.641 20.384 207.656 20.4915 207.656 20.604V25.6796C207.656 26.1401 207.264 26.488 206.781 26.488C206.282 26.488 205.906 26.1401 205.906 25.6796V20.604C205.906 20.164 205.84 19.9235 205.682 19.6882C205.585 19.5603 205.519 19.4528 205.519 19.2635C205.519 18.8184 205.911 18.5165 206.364 18.5165C206.654 18.5165 206.913 18.7058 207.106 18.977C207.839 18.5472 208.663 18.2965 209.228 18.2965C210.052 18.2965 210.312 18.6291 210.312 19.0742C210.312 19.5807 209.91 19.9133 209.421 19.8826C208.745 19.857 208.302 19.8417 207.625 20.2408Z" fill="#4A4A49"/>
<path d="M215.134 26.4829C213.303 26.4829 212.352 25.2447 212.352 23.4232V19.0486C212.352 18.6035 212.657 18.2709 213.222 18.2709C213.776 18.2709 214.097 18.6035 214.097 19.0486V23.4232C214.097 24.4363 214.519 25.0093 215.358 25.0093C215.842 25.0093 216.361 24.8507 216.88 24.5796C216.864 24.4414 216.849 24.3084 216.849 24.2009V19.0486C216.849 18.6035 217.139 18.2709 217.724 18.2709C218.309 18.2709 218.599 18.6035 218.599 19.0486V24.3595C218.599 24.9121 218.726 24.9786 218.889 25.1986C218.986 25.3112 219.067 25.4391 219.067 25.6284C219.067 26.0889 218.665 26.3908 218.243 26.3908C217.887 26.3908 217.612 26.1708 217.404 25.8536C216.671 26.3089 215.882 26.4829 215.134 26.4829Z" fill="#4A4A49"/>
<path d="M230.26 21.0134C230.26 20.3022 229.838 19.7292 229.044 19.7292C228.49 19.7292 227.925 20.0157 227.503 20.4301C227.533 20.6041 227.564 20.7985 227.564 20.9878V25.6796C227.564 26.1248 227.274 26.4727 226.688 26.4727C226.109 26.4727 225.813 26.1248 225.813 25.6796V21.3357C225.813 20.3994 225.651 19.7343 224.714 19.7343C224.165 19.7343 223.565 19.9747 223.097 20.2613C223.117 20.3738 223.127 20.4966 223.127 20.5938V25.6847C223.127 26.1299 222.837 26.4778 222.252 26.4778C221.672 26.4778 221.377 26.1299 221.377 25.6847V20.5938C221.377 19.898 221.265 19.8673 221.168 19.7036C221.041 19.5091 220.975 19.4017 220.975 19.2431C220.975 18.8031 221.346 18.4961 221.799 18.4961C222.12 18.4961 222.369 18.67 222.542 18.9208C223.27 18.4756 224.048 18.2249 224.826 18.2249C225.605 18.2249 226.2 18.4807 226.704 18.9719C227.482 18.4961 228.21 18.2249 229.1 18.2249C230.932 18.2249 232 19.3352 232 20.9827V25.6745C232 26.1196 231.71 26.4676 231.125 26.4676C230.54 26.4676 230.25 26.1196 230.25 25.6745V21.0134H230.26Z" fill="#4A4A49"/>
<path d="M79.9823 41.5765V44.8408C79.9823 45.2859 79.5753 45.6952 79.092 45.6952C78.6239 45.6952 78.2017 45.3013 78.2017 44.8408V35.3139C78.2017 34.8074 78.6697 34.3622 79.2192 34.3622H81.6002C84.4696 34.3622 85.4871 36.107 85.4871 37.9898C85.4871 40.2871 83.9659 41.5714 81.6002 41.5714H79.9823V41.5765ZM79.9823 39.9597H81.6002C82.9789 39.9597 83.7064 39.3252 83.7064 37.9796C83.7064 36.9972 83.3198 35.9995 81.6002 35.9995H79.9823V39.9597Z" fill="#4A4A49"/>
<path d="M90.3051 37.4014C91.2616 37.4014 92.6353 37.6419 92.6353 38.5629C92.6353 38.9875 92.3453 39.2127 91.923 39.2127C91.4041 39.2127 91.1599 38.8647 90.3001 38.8647C89.893 38.8647 89.1503 38.9466 89.1503 39.6271C89.1503 41.1825 92.9202 40.4202 92.9202 43.2598C92.9202 44.7333 91.9026 45.6543 89.9744 45.6543C89.0485 45.6543 87.334 45.4496 87.334 44.6054C87.334 44.324 87.5273 43.6691 88.2396 43.8431C88.5296 43.9045 89.2266 44.2063 89.9083 44.2063C90.6358 44.2063 91.2006 43.8584 91.2006 43.2854C91.2006 41.7965 87.4307 42.5895 87.4307 39.7806C87.4408 38.3582 88.4126 37.4014 90.3051 37.4014Z" fill="#4A4A49"/>
<path d="M99.2694 44.4417C98.4452 46.9437 97.8296 48.7549 95.5452 48.7549C95.0263 48.7549 94.6549 48.4224 94.6549 47.9772C94.6549 47.5986 94.9653 47.2302 95.4842 47.1995C96.344 47.1995 96.7459 46.6265 97.1987 45.2962L94.6549 38.5117C94.6091 38.4043 94.6091 38.2764 94.6091 38.1945C94.6091 37.7647 94.9805 37.4475 95.4842 37.4475C95.8098 37.4475 96.1456 37.6215 96.2779 37.9847L96.4254 38.4145C96.9749 40.016 97.5243 41.6021 98.0636 43.2342C98.552 41.4588 99.0506 39.7295 99.6051 37.9899C99.7171 37.6266 100.109 37.4526 100.429 37.4526C100.867 37.4526 101.304 37.7698 101.304 38.2457C101.304 38.3275 101.289 38.4043 101.259 38.4862L99.2694 44.4417Z" fill="#4A4A49"/>
<path d="M102.958 40.4202C102.958 38.7522 103.914 37.4526 106.082 37.4526C106.942 37.4526 108.59 37.6726 108.59 38.6294C108.59 38.962 108.366 39.2946 107.812 39.2946C107.684 39.2946 107.572 39.2792 107.41 39.2332C107.054 39.0746 106.748 38.9159 106.214 38.9159C105.13 38.9159 104.708 39.4736 104.708 40.4253V42.6919C104.708 43.6436 105.13 44.2115 106.214 44.2115C106.748 44.2115 107.054 44.0529 107.41 43.8943C107.542 43.8431 107.639 43.8124 107.796 43.8124C108.366 43.8124 108.59 44.1603 108.59 44.4929C108.59 45.4292 106.942 45.6646 106.067 45.6646C103.914 45.6646 102.958 44.3496 102.958 42.6868V40.4202Z" fill="#4A4A49"/>
<path d="M111.597 45.6492C111.093 45.6492 110.722 45.3166 110.722 44.8561V34.792C110.722 34.3776 111.078 33.9785 111.581 33.9785C112.065 33.9785 112.457 34.3264 112.457 34.792V37.9438C112.955 37.6112 113.576 37.4014 114.237 37.4014C116.13 37.4014 117.005 38.5117 117.005 40.0978V44.851C117.005 45.3115 116.598 45.6441 116.13 45.6441C115.626 45.6441 115.255 45.3115 115.255 44.851V40.0313C115.255 39.2689 114.868 38.8443 114.09 38.8443C113.525 38.8443 112.879 39.0643 112.457 39.5555V44.851C112.457 45.3166 112.08 45.6492 111.597 45.6492Z" fill="#4A4A49"/>
<path d="M119.371 42.7789V40.2769C119.371 38.6448 120.5 37.3912 122.642 37.3912C124.779 37.3912 125.908 38.6448 125.908 40.2769V42.7789C125.908 44.3957 124.779 45.6646 122.642 45.6646C120.5 45.6646 119.371 44.3957 119.371 42.7789ZM124.163 42.7789V40.2616C124.163 39.4225 123.644 38.8955 122.642 38.8955C121.635 38.8955 121.121 39.4174 121.121 40.2616V42.7789C121.121 43.6385 121.64 44.1603 122.642 44.1603C123.644 44.1603 124.163 43.6385 124.163 42.7789Z" fill="#4A4A49"/>
<path d="M128.243 35.9023C128.243 35.4572 128.554 35.1093 129.118 35.1093C129.668 35.1093 129.994 35.4725 129.994 35.9023V37.867H131.433C131.886 37.867 132.257 38.1996 132.257 38.6447C132.257 39.0745 131.886 39.4071 131.433 39.4071H129.994V42.1802C129.994 43.5719 130.121 44.0784 131.092 44.0784C131.204 44.0784 131.321 44.0631 131.382 44.0631C132.079 44.0631 132.466 44.237 132.466 44.7743C132.466 45.5059 131.85 45.598 131.22 45.598C128.844 45.598 128.238 44.4571 128.238 42.2826V35.9023H128.243Z" fill="#4A4A49"/>
<path d="M135.885 42.303V43.0296C135.885 43.7459 136.389 44.2012 137.406 44.2012C138.006 44.2012 138.439 44.0426 138.978 43.8021C139.029 43.7714 139.141 43.7203 139.334 43.7203C139.884 43.7203 140.128 44.1194 140.128 44.4366C140.128 45.3882 138.22 45.6594 137.264 45.6594C135.274 45.6594 134.14 44.4877 134.14 42.9528V40.1439C134.14 38.5885 135.259 37.4014 137.345 37.4014C139.304 37.4014 140.276 38.4503 140.276 40.0364C140.276 41.5253 139.385 42.4156 137.33 42.4156C136.877 42.4156 136.404 42.3849 135.885 42.303ZM137.309 38.8136C136.404 38.8136 135.885 39.2894 135.885 40.0518V40.983C136.434 41.0495 137.065 41.0802 137.309 41.0802C138.23 41.0802 138.541 40.6504 138.541 39.9852C138.541 39.1513 138.103 38.8136 137.309 38.8136Z" fill="#4A4A49"/>
<path d="M144.325 39.4173C144.34 39.5555 144.356 39.668 144.356 39.7806V44.851C144.356 45.3115 143.969 45.6594 143.481 45.6594C142.982 45.6594 142.606 45.3115 142.606 44.851V39.7806C142.606 39.3355 142.539 39.1001 142.377 38.8596C142.28 38.7317 142.214 38.6243 142.214 38.4299C142.214 37.9847 142.606 37.688 143.053 37.688C143.343 37.688 143.603 37.8773 143.796 38.1484C144.524 37.7238 145.353 37.468 145.918 37.468C146.747 37.468 147.001 37.8005 147.001 38.2457C147.001 38.7522 146.594 39.0848 146.111 39.0541C145.439 39.0387 145.002 39.0234 144.325 39.4173Z" fill="#4A4A49"/>
<path d="M152.969 40.2616C152.969 39.3252 152.486 38.8648 151.478 38.8648C151.061 38.8648 150.797 38.962 150.522 39.0745L150.212 39.1973C150.115 39.2434 149.937 39.2792 149.789 39.2792C149.321 39.2792 149.123 38.9159 149.123 38.5833C149.123 37.7442 150.369 37.4066 151.636 37.4066C153.819 37.4066 154.714 38.5322 154.714 40.6402V43.8584C154.714 44.2524 154.877 44.3189 155.116 44.365C155.457 44.4315 155.605 44.6361 155.605 44.9329C155.605 45.378 155.264 45.598 154.648 45.598C154.078 45.598 153.656 45.378 153.351 44.8868C152.755 45.3934 152.043 45.6492 151.148 45.6492C149.387 45.6492 148.477 44.6822 148.477 43.2086V43.1575C148.477 41.5765 149.479 40.763 151.504 40.763C152.003 40.763 152.491 40.8295 152.959 40.9523V40.2616H152.969ZM150.217 43.1728V43.2189C150.217 43.8533 150.542 44.2166 151.428 44.2166C151.977 44.2166 152.466 44.058 152.969 43.6589V42.2365C152.501 42.1239 151.967 42.0625 151.56 42.0625C150.425 42.0677 150.217 42.5742 150.217 43.1728Z" fill="#4A4A49"/>
<path d="M159.497 45.332V48.1358C159.497 48.5809 159.171 48.9288 158.622 48.9288C158.057 48.9288 157.746 48.5656 157.746 48.1358V39.7857C157.746 39.3406 157.68 39.1052 157.518 38.8647C157.421 38.7368 157.355 38.6294 157.355 38.4503C157.355 37.9898 157.777 37.688 158.164 37.688C158.469 37.688 158.713 37.8466 158.906 38.1024C159.654 37.688 160.377 37.4014 161.221 37.4014C163.002 37.4014 163.989 38.6396 163.989 40.4457V42.3951C163.989 44.2831 163.277 45.6441 161.089 45.6441C160.596 45.6492 160.077 45.5673 159.497 45.332ZM159.497 43.9352C160 44.1245 160.55 44.2063 160.906 44.2063C161.893 44.2063 162.249 43.6333 162.249 42.4002V40.4508C162.249 39.4224 161.811 38.8801 160.936 38.8801C160.484 38.8801 159.965 39.0387 159.43 39.3099C159.466 39.4838 159.497 39.6424 159.497 39.7857V43.9352Z" fill="#4A4A49"/>
<path d="M167.28 36.0763C166.7 36.0763 166.263 35.6465 166.263 35.14C166.263 34.613 166.7 34.2037 167.28 34.2037C167.85 34.2037 168.303 34.6335 168.303 35.14C168.283 35.6619 167.845 36.0763 167.28 36.0763ZM167.28 45.6492C166.782 45.6492 166.41 45.3167 166.41 44.8562V38.2457C166.41 37.821 166.782 37.4526 167.28 37.4526C167.769 37.4526 168.156 37.8159 168.156 38.2457V44.8562C168.156 45.3167 167.764 45.6492 167.28 45.6492Z" fill="#4A4A49"/>
<path d="M171.788 36.0763C171.208 36.0763 170.766 35.6465 170.766 35.14C170.766 34.613 171.203 34.2037 171.788 34.2037C172.358 34.2037 172.806 34.6335 172.806 35.14C172.79 35.6619 172.358 36.0763 171.788 36.0763ZM171.788 45.6492C171.29 45.6492 170.913 45.3167 170.913 44.8562V38.2457C170.913 37.821 171.285 37.4526 171.788 37.4526C172.277 37.4526 172.663 37.8159 172.663 38.2457V44.8562C172.663 45.3167 172.277 45.6492 171.788 45.6492Z" fill="#4A4A49"/>
<path d="M47.793 35.3753L46.9128 34.4902C46.5923 34.1679 46.0327 34.1679 45.7071 34.4902L44.8829 35.3191C44.5522 35.6516 44.5522 36.194 44.8829 36.5317L45.7935 37.4475C48.1135 39.8216 48.0982 43.664 45.7579 46.0176C44.6132 47.1688 43.0971 47.7981 41.4793 47.7981C39.8614 47.7981 38.3453 47.1637 37.2006 46.0176L25.7331 34.48C25.5754 34.3213 25.3566 34.2292 25.1277 34.2292C24.9038 34.2292 24.6851 34.3213 24.5273 34.48L23.7032 35.3088C23.5403 35.4726 23.4539 35.6874 23.4539 35.9177C23.4539 36.1428 23.5403 36.3577 23.7032 36.5214L35.1757 48.0642C36.8597 49.7578 39.0983 50.689 41.4843 50.689C43.8704 50.689 46.109 49.7578 47.793 48.0642C51.2678 44.5645 51.2678 38.875 47.793 35.3753Z" fill="url(#paint0_linear)"/>
<path d="M16.4178 29.1946C16.5806 29.3583 16.7943 29.4453 17.0232 29.4453C17.2522 29.4453 17.4658 29.3583 17.6236 29.1946L18.4477 28.3657C18.6106 28.202 18.697 27.9871 18.697 27.762C18.697 27.5318 18.6106 27.3169 18.4477 27.1531L17.5727 26.2731C16.4331 25.127 15.8022 23.5972 15.8022 21.9701C15.8022 20.3431 16.4331 18.8184 17.5778 17.6672C18.7225 16.5211 20.2386 15.8867 21.8564 15.8867C23.4692 15.8867 24.9904 16.5211 26.13 17.6672L37.5873 29.1895C37.9078 29.5118 38.4726 29.5118 38.7931 29.1895L39.6173 28.3606C39.7801 28.1969 39.8666 27.982 39.8666 27.7518C39.8666 27.5215 39.7801 27.3066 39.6173 27.148L28.1549 15.6257C26.4709 13.9322 24.2324 12.9958 21.8463 12.9958C19.4653 12.9958 17.2216 13.927 15.5376 15.6257C13.8536 17.3193 12.9277 19.5705 12.9226 21.9701C12.9226 24.3647 13.8536 26.621 15.5376 28.3146L16.4178 29.1946Z" fill="url(#paint1_linear)"/>
<path d="M35.1248 18.5524C35.4453 18.8747 36.005 18.8747 36.3306 18.5524L37.2362 17.6416C38.3707 16.516 39.8817 15.8969 41.4843 15.8969C43.1073 15.8969 44.6234 16.5262 45.763 17.6723C46.9077 18.8235 47.5335 20.3482 47.5335 21.9753C47.5335 23.5972 46.9026 25.127 45.763 26.2782L34.2956 37.8005C33.9649 38.1331 33.9649 38.6806 34.2956 39.0131L35.1197 39.842C35.2775 40.0006 35.4962 40.0927 35.7201 40.0927C35.9439 40.0927 36.1576 40.0057 36.3204 39.842L47.7828 28.3146C49.4668 26.621 50.3927 24.3698 50.3927 21.9702C50.3927 19.5705 49.4668 17.3193 47.7828 15.6257C46.0988 13.9322 43.8603 13.001 41.4742 13.001C39.0881 13.001 36.8495 13.9322 35.1655 15.6257L34.2854 16.5109C33.9547 16.8435 33.9547 17.3909 34.2854 17.7235L35.1248 18.5524Z" fill="url(#paint2_linear)"/>
<path d="M28.2058 45.1375C27.8853 44.8152 27.3206 44.8152 27.0001 45.1375L26.125 46.0176C24.9854 47.1637 23.4642 47.7981 21.8463 47.7981C20.2285 47.7981 18.7073 47.1637 17.5676 46.0176C15.207 43.6435 15.207 39.7857 17.5676 37.4117L29.0351 25.8791C29.1928 25.7205 29.2844 25.5005 29.2844 25.2754C29.2844 25.0451 29.1979 24.8302 29.0351 24.6716L28.2109 23.8428C27.8904 23.5204 27.3257 23.5204 27.0051 23.8428L15.5377 35.3753C12.0578 38.875 12.0578 44.5645 15.5377 48.0642C17.2217 49.7577 19.4602 50.6889 21.8463 50.6889C24.2324 50.6889 26.4709 49.7577 28.1549 48.0642L29.03 47.1841C29.1928 47.0204 29.2793 46.8055 29.2793 46.5753C29.2793 46.345 29.1877 46.1301 29.03 45.9715L28.2058 45.1375Z" fill="url(#paint3_linear)"/>
<path d="M31.6653 63.6848C14.2046 63.6848 0 49.3996 0 31.845C0 14.2852 14.2046 0 31.6653 0C49.1259 0 63.3305 14.2852 63.3305 31.845C63.3255 49.3996 49.1209 63.6848 31.6653 63.6848ZM31.6653 2.90104C15.797 2.90104 2.88976 15.8815 2.88976 31.8398C2.88976 47.7981 15.797 60.7786 31.6653 60.7786C47.5335 60.7786 60.4408 47.7981 60.4408 31.8398C60.4408 15.8867 47.5284 2.90104 31.6653 2.90104Z" fill="url(#paint4_linear)"/>
<defs>
<linearGradient id="paint0_linear" x1="32.2907" y1="45.161" x2="44.9781" y2="32.5453" gradientUnits="userSpaceOnUse">
<stop stop-color="#D91E9D"/>
<stop offset="0.2048" stop-color="#D51D9D"/>
<stop offset="0.4204" stop-color="#C81B9F"/>
<stop offset="0.641" stop-color="#B318A1"/>
<stop offset="0.8636" stop-color="#9613A5"/>
<stop offset="1" stop-color="#8010A7"/>
</linearGradient>
<linearGradient id="paint1_linear" x1="18.4156" y1="31.2066" x2="31.1025" y2="18.5913" gradientUnits="userSpaceOnUse">
<stop stop-color="#D91E9D"/>
<stop offset="0.2048" stop-color="#D51D9D"/>
<stop offset="0.4204" stop-color="#C81B9F"/>
<stop offset="0.641" stop-color="#B318A1"/>
<stop offset="0.8636" stop-color="#9613A5"/>
<stop offset="1" stop-color="#8010A7"/>
</linearGradient>
<linearGradient id="paint2_linear" x1="29.4179" y1="34.1049" x2="47.8948" y2="15.7322" gradientUnits="userSpaceOnUse">
<stop stop-color="#D91E9D"/>
<stop offset="0.2048" stop-color="#D51D9D"/>
<stop offset="0.4204" stop-color="#C81B9F"/>
<stop offset="0.641" stop-color="#B318A1"/>
<stop offset="0.8636" stop-color="#9613A5"/>
<stop offset="1" stop-color="#8010A7"/>
</linearGradient>
<linearGradient id="paint3_linear" x1="15.5399" y1="48.0617" x2="34.019" y2="29.6869" gradientUnits="userSpaceOnUse">
<stop stop-color="#D91E9D"/>
<stop offset="0.2048" stop-color="#D51D9D"/>
<stop offset="0.4204" stop-color="#C81B9F"/>
<stop offset="0.641" stop-color="#B318A1"/>
<stop offset="0.8636" stop-color="#9613A5"/>
<stop offset="1" stop-color="#8010A7"/>
</linearGradient>
<linearGradient id="paint4_linear" x1="9.28458" y1="54.3484" x2="54.2953" y2="9.59165" gradientUnits="userSpaceOnUse">
<stop stop-color="#D91E9D"/>
<stop offset="0.2048" stop-color="#D51D9D"/>
<stop offset="0.4204" stop-color="#C81B9F"/>
<stop offset="0.641" stop-color="#B318A1"/>
<stop offset="0.8636" stop-color="#9613A5"/>
<stop offset="1" stop-color="#8010A7"/>
</linearGradient>
</defs>
</svg>
