<svg width="130" height="73" viewBox="0 0 130 73" fill="none" xmlns="http://www.w3.org/2000/svg">
<path d="M15.84 3.52C15.488 2.08 14.912 1.152 13.28 1.152C11.52 1.152 11.072 2.016 10.688 3.52L8.8 11.04C8.384 12.736 8.224 14.656 7.904 16.352C7.584 14.592 7.424 12.768 6.976 11.04L4.864 2.784C4.608 1.728 3.712 1.248 2.784 1.248C1.664 1.248 0.384 1.984 0.384 3.168C0.384 3.168 0.448 3.456 0.512 3.776L5.216 22.272C5.504 23.232 6.56 24.288 7.872 24.288C9.568 24.288 10.208 23.232 10.496 22.304L12.416 14.4C12.832 12.736 12.992 10.976 13.28 9.28C13.568 10.976 13.728 12.736 14.144 14.4L16.032 22.24C16.352 23.296 17.152 24.288 18.688 24.288C20.224 24.288 20.992 23.328 21.312 22.272L26.112 3.616C26.176 3.424 26.176 3.264 26.176 3.2C26.176 1.856 24.768 1.248 23.68 1.248C22.688 1.248 21.888 1.856 21.632 2.88L19.584 11.04C19.136 12.8 18.944 14.592 18.624 16.384C18.304 14.592 18.144 12.8 17.696 11.04L15.84 3.52ZM34.195 17.888C38.515 17.888 40.403 16.096 40.403 13.024C40.403 9.792 38.323 7.584 34.131 7.584C29.683 7.584 27.315 10.048 27.315 13.28V18.624C27.315 21.792 29.747 24.224 33.971 24.224C36.019 24.224 40.115 23.648 40.115 21.408C40.115 20.672 39.667 19.648 38.131 19.648C37.587 19.648 37.299 19.776 37.171 19.84C36.147 20.288 35.315 20.544 34.291 20.544C32.563 20.544 31.731 19.84 31.731 18.752V17.696C32.659 17.824 33.363 17.888 34.195 17.888ZM36.019 12.8C36.019 14.176 35.251 14.592 34.035 14.592C33.715 14.592 32.755 14.56 31.731 14.464V13.088C31.731 11.808 32.563 11.008 34.099 11.008C35.347 11.008 36.019 11.52 36.019 12.8ZM43.0323 12.544C43.0323 16.992 47.7363 17.088 49.8163 18.24C50.1683 18.432 50.4883 18.688 50.4883 19.264C50.4883 20.16 49.6883 20.544 48.5363 20.544C46.9683 20.544 45.9763 19.84 44.9203 19.84C43.6723 19.84 42.8403 20.8 42.8403 21.728C42.8403 23.712 46.5523 24.224 48.6003 24.224C52.6323 24.224 54.8403 22.272 54.8403 19.168C54.8403 14.912 50.6483 14.464 48.3443 13.472C47.6403 13.184 47.3843 12.864 47.3843 12.416C47.3843 11.68 48.0243 11.264 49.2403 11.264C50.8083 11.264 51.3843 11.936 52.5043 11.936C53.1763 11.936 54.3923 11.68 54.3923 10.304C54.3923 8.096 51.2883 7.584 49.2083 7.584C45.1123 7.584 43.0323 9.6 43.0323 12.544ZM64.3215 24.224C68.8655 24.224 71.2655 21.632 71.2655 18.272V13.504C71.2655 10.144 68.8655 7.552 64.3215 7.552C59.7775 7.552 57.3775 10.144 57.3775 13.504V18.272C57.3775 21.632 59.7775 24.224 64.3215 24.224ZM64.3215 20.448C62.6575 20.448 61.7935 19.616 61.7935 18.272V13.472C61.7935 12.16 62.6575 11.328 64.3215 11.328C65.9855 11.328 66.8495 12.16 66.8495 13.472V18.272C66.8495 19.616 65.9855 20.448 64.3215 20.448ZM84.4308 8.768C84.2388 8.192 83.6948 7.808 83.1508 7.808C82.6708 7.808 82.3828 7.968 82.0308 8.192L80.6548 9.12V2.88C80.6548 1.76 79.6948 0.895998 78.4468 0.895998C77.1988 0.895998 76.2388 1.824 76.2388 2.88V12L73.5508 13.76C73.1348 14.016 72.9108 14.496 72.9108 14.912C72.9108 15.904 73.6788 16.352 74.4788 16.352C74.7988 16.352 75.0868 16.128 75.3748 15.936L76.2388 15.36V20.448C76.2388 23.808 78.0308 24.224 79.3108 24.224C80.8148 24.224 81.7108 23.648 81.7108 22.496C81.7108 21.888 81.4548 21.728 81.1348 21.376C80.6868 20.896 80.6548 20.736 80.6548 20.064V12.48L83.8868 10.336C84.2708 10.08 84.4948 9.632 84.4948 9.216C84.4948 9.056 84.4628 8.928 84.4308 8.768ZM93.4533 14.4C93.0693 15.552 92.8453 16.896 92.5573 18.08C92.2053 16.896 91.9813 15.552 91.5333 14.4L89.5173 9.024C89.1653 8.128 88.3653 7.68 87.5013 7.68C86.2533 7.68 85.2933 8.48 85.2933 9.568C85.2933 9.76 85.3253 10.048 85.4533 10.368L90.3813 23.072C89.6133 25.568 88.9093 26.592 87.5013 26.656C86.1893 26.72 85.3893 27.616 85.3893 28.576C85.3893 29.696 86.3493 30.496 87.6293 30.496C92.4933 30.496 93.7093 26.784 95.4693 21.6L99.3733 10.208C99.4373 10.048 99.4693 9.856 99.4693 9.632C99.4693 8.48 98.3813 7.68 97.2613 7.68C96.3973 7.68 95.4693 8.096 95.1813 9.024L93.4533 14.4ZM101.378 18.112C101.378 21.536 103.458 24.224 107.97 24.224C109.89 24.224 113.474 23.744 113.474 21.44C113.474 20.704 113.09 19.808 111.426 19.808C110.978 19.808 110.754 19.872 110.434 20C109.794 20.256 109.25 20.544 108.258 20.544C106.498 20.544 105.794 19.616 105.794 18.112V13.792C105.794 12.288 106.498 11.36 108.258 11.36C109.25 11.36 109.762 11.648 110.434 11.904C110.882 12.064 111.17 12.096 111.49 12.096C113.09 12.096 113.474 11.232 113.474 10.464C113.474 8.128 109.89 7.68 108.002 7.68C103.426 7.68 101.378 10.368 101.378 13.792V18.112ZM120.62 12.128C121.356 11.424 122.476 11.072 123.372 11.072C124.684 11.072 125.196 11.68 125.196 12.896V22.24C125.196 23.36 126.156 24.224 127.404 24.224C128.588 24.224 129.612 23.36 129.612 22.24V13.184C129.612 9.888 127.756 7.584 123.66 7.584C122.572 7.584 121.516 7.904 120.62 8.448V2.72C120.62 1.6 119.66 0.735998 118.411 0.735998C117.164 0.735998 116.236 1.696 116.236 2.72V22.24C116.236 23.36 117.196 24.224 118.444 24.224C119.692 24.224 120.62 23.36 120.62 22.24V12.128ZM6.816 38.408C6.624 38.664 6.56 38.888 6.56 39.208C6.56 40.136 7.296 40.776 8.192 40.776C8.896 40.776 9.152 40.52 9.632 40.104L12.256 37.48C12.48 37.16 12.544 36.84 12.544 36.584C12.544 35.688 11.712 35.016 10.976 35.016C10.272 35.016 10.048 35.24 9.664 35.624L9.408 35.88L6.816 38.408ZM11.2 58.472C11.2 60.232 10.08 61.224 7.872 61.224C6.496 61.224 5.472 60.84 4.704 60.584C4.096 60.36 3.584 60.2 3.104 60.2C1.92 60.2 0.992 61.192 0.992 62.216C0.992 64.456 5.472 65.288 7.84 65.288C12.416 65.288 15.808 62.728 15.808 58.28C15.808 53.736 12.384 52.648 9.248 51.656C8.544 51.464 7.776 51.208 6.944 50.792C6.4 50.536 5.6 50.056 5.6 48.648C5.6 46.76 7.072 46.216 8.64 46.216C9.76 46.216 10.464 46.472 11.072 46.696C11.616 46.856 12.064 47.048 12.64 47.048C14.048 47.048 14.88 46.088 14.88 45.032C14.88 42.632 10.336 42.152 8.448 42.152C3.904 42.152 1.024 44.648 1.024 48.776C1.024 53.416 4.416 54.472 7.552 55.432C8.416 55.72 9.216 56.008 9.888 56.296C10.464 56.552 11.2 57.032 11.2 58.472ZM29.6818 63.624C29.9698 64.648 30.9938 65.224 32.0818 65.224C33.6178 65.224 34.2257 64.584 34.6098 63.336L38.3218 50.952C38.3218 50.856 38.3538 50.664 38.3538 50.632C38.3538 49.512 37.3298 48.68 36.1778 48.68C35.2498 48.68 34.3218 49.32 34.0978 50.12L32.7218 55.4C32.3058 57 32.3058 58.664 32.0818 60.296C31.8258 58.664 31.6978 57 31.3138 55.4L30.0658 50.312C29.8418 49.384 29.0098 48.68 27.7618 48.68C26.4818 48.68 25.6498 49.384 25.3938 50.312L24.1138 55.4C23.6978 57 23.6338 58.632 23.3778 60.264C23.1538 58.632 23.1538 57 22.7378 55.4L21.3618 50.12C21.1058 49.192 20.2098 48.68 19.2818 48.68C18.0338 48.68 17.0738 49.608 17.0738 50.6C17.0738 50.728 17.0738 50.856 17.1378 51.016L20.8498 63.304C21.2338 64.52 21.9698 65.224 23.3778 65.224C24.6898 65.224 25.4898 64.776 25.8098 63.624L27.1218 58.504C27.4418 57.224 27.5378 55.912 27.7298 54.6C27.9218 55.912 27.9858 57.224 28.3378 58.504L29.6818 63.624ZM46.04 44.392C46.04 43.176 44.952 42.152 43.544 42.152C42.136 42.152 41.048 43.144 41.048 44.392C41.048 45.608 42.136 46.632 43.544 46.632C44.952 46.632 46.04 45.64 46.04 44.392ZM45.752 50.632C45.752 49.576 44.792 48.68 43.544 48.68C42.296 48.68 41.336 49.576 41.336 50.632V63.24C41.336 64.36 42.296 65.224 43.544 65.224C44.792 65.224 45.752 64.36 45.752 63.24V50.632ZM65.7578 70.312C65.7578 69.576 65.1178 68.936 64.3178 68.936H64.0298C63.7098 68.968 63.3258 69.064 62.9738 69.064C62.3978 69.064 62.1418 68.712 62.1418 68.264C62.1418 67.112 62.9738 65.608 63.7738 64.68C64.0618 64.36 64.2537 63.976 64.2537 63.464C64.2537 62.792 63.9978 62.44 63.5178 62.248C62.9738 62.024 62.4938 62.12 62.4938 61.16V55.208C62.4938 50.888 60.6058 48.584 55.9658 48.584C53.3098 48.584 50.4938 49.352 50.4938 51.24C50.4938 52.04 51.0058 53.096 52.3498 53.096C52.9578 53.096 53.3098 52.872 53.5658 52.776C54.2058 52.488 54.7498 52.264 55.6458 52.264C57.2778 52.264 58.0778 52.968 58.0778 54.472V55.496C57.2458 55.24 56.4138 55.176 55.5498 55.176C51.3258 55.176 49.2138 56.808 49.2138 60.072V60.168C49.2138 63.208 51.1978 65.224 54.9098 65.224C56.7018 65.224 58.0458 64.744 59.2298 63.784C59.6138 64.328 60.0298 64.68 60.5098 64.904C59.5178 66.152 58.8458 67.56 58.8458 68.744C58.8458 70.984 60.4138 72.008 62.7178 72.008C63.9338 72.008 65.7578 71.784 65.7578 70.312ZM55.8058 58.28C56.4458 58.28 57.2778 58.376 58.0778 58.536V60.84C57.2458 61.48 56.4138 61.672 55.5818 61.672C54.2058 61.672 53.5978 61.256 53.5978 60.2V60.104C53.5978 59.144 53.9498 58.28 55.8058 58.28ZM66.673 58.344C66.673 62.696 67.953 65.128 72.913 65.128C74.513 65.128 75.985 64.872 75.985 63.016C75.985 61.832 75.377 61.288 73.361 61.288C73.297 61.288 73.105 61.32 72.817 61.32C71.281 61.32 71.089 60.488 71.089 58.12V53.288H73.457C74.641 53.288 75.569 52.488 75.569 51.4C75.569 50.312 74.641 49.48 73.457 49.48H71.089V45.928C71.089 44.872 70.289 43.976 68.881 43.976C67.473 43.976 66.673 44.84 66.673 45.928V58.344ZM79.0548 57.704C79.0548 58.696 79.8868 59.496 80.9748 59.496C81.9668 59.496 82.8628 58.664 82.8948 57.704L83.2148 44.232C83.2148 43.144 82.1908 42.152 80.9748 42.152C79.7268 42.152 78.7348 43.144 78.7348 44.232L79.0548 57.704ZM83.6948 62.792C83.6948 61.448 82.4788 60.328 81.0388 60.328C79.5348 60.328 78.3508 61.448 78.3508 62.792C78.3508 64.136 79.5348 65.288 81.0388 65.288C82.4788 65.288 83.6948 64.136 83.6948 62.792Z" fill="black"/>
</svg>
