<svg width="198" height="88" viewBox="0 0 198 88" fill="none" xmlns="http://www.w3.org/2000/svg">
<path d="M7.712 12.16C8.128 12.16 8.416 11.84 8.416 11.456V1.216C8.416 0.863999 8.144 0.559999 7.792 0.559999C7.44 0.559999 7.136 0.863999 7.136 1.216V9.456L2.528 0.943999C2.4 0.704 2.128 0.559999 1.856 0.559999C1.456 0.559999 1.168 0.863999 1.168 1.264V11.504C1.168 11.856 1.44 12.16 1.792 12.16C2.144 12.16 2.448 11.856 2.448 11.504V3.264L7.056 11.792C7.184 12.016 7.456 12.16 7.712 12.16ZM12.3138 1.312C12.3138 0.879999 11.9778 0.544 11.5458 0.544C11.1138 0.544 10.7778 0.879999 10.7778 1.312C10.7778 1.728 11.1138 2.08 11.5458 2.08C11.9778 2.08 12.3138 1.728 12.3138 1.312ZM12.1698 11.504V4.448C12.1698 4.112 11.8978 3.824 11.5458 3.824C11.1938 3.824 10.9218 4.112 10.9218 4.448V11.504C10.9218 11.856 11.1938 12.128 11.5458 12.128C11.8978 12.128 12.1698 11.856 12.1698 11.504ZM17.2276 11.024C16.0756 11.024 15.4836 10.448 15.4836 9.552V8.608C16.0436 8.704 16.6356 8.752 17.1156 8.752C19.0196 8.752 19.8196 7.856 19.8196 6.384C19.8196 4.8 18.9396 3.776 17.1636 3.776C15.2596 3.776 14.2356 4.944 14.2356 6.48V9.472C14.2356 10.976 15.2756 12.128 17.0836 12.128C17.9476 12.128 19.6756 11.872 19.6756 11.088C19.6756 10.8 19.4356 10.528 19.1156 10.528C19.0036 10.528 18.9236 10.56 18.8916 10.576C18.3316 10.832 17.8996 11.024 17.2276 11.024ZM18.5876 6.384C18.5876 7.04 18.3796 7.696 17.1636 7.696C16.8436 7.696 16.0756 7.664 15.4836 7.584V6.368C15.4836 5.472 16.0916 4.912 17.1316 4.912C18.0596 4.912 18.5876 5.344 18.5876 6.384ZM21.1888 9.184C21.1888 10.832 22.0528 12.128 24.0528 12.128C24.8048 12.128 26.2768 11.904 26.2768 11.152C26.2768 10.864 26.0368 10.608 25.7328 10.608C25.6528 10.608 25.5728 10.624 25.4768 10.656C25.0928 10.848 24.7408 11.024 24.1808 11.024C22.9328 11.024 22.4368 10.352 22.4368 9.184V6.768C22.4368 5.6 22.9328 4.928 24.1808 4.928C24.7408 4.928 25.0928 5.104 25.4768 5.296C25.5728 5.328 25.6528 5.344 25.7328 5.344C26.0368 5.344 26.2768 5.088 26.2768 4.8C26.2768 4.048 24.8048 3.824 24.0528 3.824C22.0528 3.824 21.1888 5.12 21.1888 6.768V9.184ZM29.041 11.504V5.856C29.505 5.232 30.241 4.944 30.897 4.944C31.889 4.944 32.289 5.472 32.289 6.448V11.504C32.289 11.856 32.561 12.128 32.913 12.128C33.249 12.128 33.537 11.856 33.537 11.504V6.432C33.537 4.88 32.753 3.776 31.041 3.776C30.273 3.776 29.585 4.032 29.041 4.448V0.927999C29.041 0.575999 28.769 0.304 28.417 0.304C28.065 0.304 27.809 0.608 27.809 0.927999V11.504C27.809 11.856 28.081 12.128 28.433 12.128C28.785 12.128 29.041 11.856 29.041 11.504ZM40.7153 8.752C40.7153 10.96 41.2593 12.064 43.4993 12.064C43.9473 12.064 44.4113 12 44.4113 11.456C44.4113 10.944 43.9473 10.88 43.5793 10.88C43.4833 10.88 43.3713 10.896 43.2753 10.896C42.1233 10.896 41.9633 10.288 41.9633 8.64V5.456H43.6273C43.9473 5.456 44.2033 5.2 44.2033 4.864C44.2033 4.528 43.9473 4.272 43.6273 4.272H41.9633V2.064C41.9633 1.728 41.7393 1.456 41.3393 1.456C40.9393 1.456 40.7153 1.728 40.7153 2.064V8.752ZM48.3683 11.024C47.2163 11.024 46.6243 10.448 46.6243 9.552V8.608C47.1843 8.704 47.7763 8.752 48.2563 8.752C50.1603 8.752 50.9603 7.856 50.9603 6.384C50.9603 4.8 50.0803 3.776 48.3043 3.776C46.4003 3.776 45.3763 4.944 45.3763 6.48V9.472C45.3763 10.976 46.4163 12.128 48.2243 12.128C49.0883 12.128 50.8163 11.872 50.8163 11.088C50.8163 10.8 50.5763 10.528 50.2563 10.528C50.1443 10.528 50.0643 10.56 50.0323 10.576C49.4723 10.832 49.0403 11.024 48.3683 11.024ZM49.7283 6.384C49.7283 7.04 49.5203 7.696 48.3043 7.696C47.9843 7.696 47.2163 7.664 46.6243 7.584V6.368C46.6243 5.472 47.2323 4.912 48.2723 4.912C49.2003 4.912 49.7283 5.344 49.7283 6.384ZM57.2543 6.08C57.2543 8.192 59.3823 8.304 60.3903 8.848C60.7103 9.024 60.9823 9.264 60.9823 9.84C60.9823 10.672 60.3903 11.024 59.5103 11.024C58.8703 11.024 58.3583 10.832 57.9103 10.656C57.8623 10.64 57.8463 10.624 57.7503 10.624C57.3663 10.624 57.1583 10.928 57.1583 11.2C57.1583 11.936 58.6943 12.128 59.5103 12.128C61.2863 12.128 62.1983 11.232 62.1983 9.792C62.1983 7.712 60.3263 7.568 59.2223 7.024C58.6783 6.752 58.4703 6.496 58.4703 6C58.4703 5.264 58.9183 4.88 59.8943 4.88C60.4703 4.88 60.7743 5.008 61.1102 5.168C61.2063 5.216 61.2863 5.248 61.3983 5.248C61.7343 5.248 61.9743 4.976 61.9743 4.672C61.9743 4 60.6783 3.776 59.8463 3.776C58.1503 3.776 57.2543 4.704 57.2543 6.08ZM59.2223 2.016C59.1583 2.096 59.1423 2.176 59.1423 2.256C59.1423 2.592 59.3823 2.816 59.6703 2.816C59.8783 2.816 59.9903 2.704 60.1823 2.528L61.4783 1.152C61.5423 1.072 61.5583 0.959999 61.5583 0.879999C61.5583 0.575999 61.2863 0.351999 61.0623 0.351999C60.7743 0.351999 60.6943 0.511999 60.4703 0.719999L59.2223 2.016ZM73.0171 4.56C73.0171 4.528 73.0331 4.48 73.0331 4.448C73.0331 4.096 72.7451 3.824 72.4251 3.824C72.1531 3.824 71.9131 4.016 71.8491 4.272L70.3611 10.16C69.8651 8.224 69.3691 6.336 68.9051 4.384C68.8251 4.064 68.5851 3.824 68.2171 3.824C67.8331 3.824 67.5771 4.064 67.4971 4.384C67.0171 6.336 66.5531 8.224 66.0571 10.16L64.5531 4.272C64.4731 3.984 64.2331 3.824 63.9771 3.824C63.6251 3.824 63.3531 4.112 63.3531 4.416C63.3531 4.448 63.3531 4.48 63.3691 4.512L65.2251 11.408C65.3531 11.856 65.5931 12.128 66.0251 12.128C66.4251 12.128 66.6651 11.968 66.7771 11.584L68.2011 5.968L69.6411 11.584C69.7371 11.936 70.0411 12.128 70.3771 12.128C70.8411 12.128 71.0331 11.888 71.1771 11.408L73.0171 4.56ZM76.0013 1.312C76.0013 0.879999 75.6653 0.544 75.2333 0.544C74.8013 0.544 74.4653 0.879999 74.4653 1.312C74.4653 1.728 74.8013 2.08 75.2333 2.08C75.6653 2.08 76.0013 1.728 76.0013 1.312ZM75.8573 11.504V4.448C75.8573 4.112 75.5853 3.824 75.2333 3.824C74.8813 3.824 74.6093 4.112 74.6093 4.448V11.504C74.6093 11.856 74.8813 12.128 75.2333 12.128C75.5853 12.128 75.8573 11.856 75.8573 11.504ZM83.5071 14.496C83.5071 14.272 83.3151 14.064 83.0751 14.064C82.8991 14.064 82.7871 14.144 82.4031 14.144C81.9231 14.144 81.6991 13.824 81.6991 13.424C81.6991 12.96 81.7951 12.24 82.3071 11.936C82.8191 11.632 83.3631 11.504 83.3631 11.088C83.3631 10.8 83.1231 10.528 82.8031 10.528C82.6911 10.528 82.6111 10.56 82.5791 10.576C82.0191 10.832 81.5871 11.024 80.9151 11.024C79.7631 11.024 79.1711 10.448 79.1711 9.552V8.608C79.7311 8.704 80.3231 8.752 80.8031 8.752C82.7071 8.752 83.5071 7.856 83.5071 6.384C83.5071 4.8 82.6271 3.776 80.8511 3.776C78.9471 3.776 77.9231 4.944 77.9231 6.48V9.472C77.9231 10.976 78.9631 12.128 80.7711 12.128C80.8831 12.128 81.0111 12.112 81.1551 12.112C80.8191 12.592 80.6271 13.152 80.6271 13.68C80.6271 14.672 81.2831 15.12 82.2751 15.12C82.7711 15.12 83.5071 15.04 83.5071 14.496ZM82.2751 6.384C82.2751 7.04 82.0671 7.696 80.8511 7.696C80.5311 7.696 79.7631 7.664 79.1711 7.584V6.368C79.1711 5.472 79.7791 4.912 80.8191 4.912C81.7471 4.912 82.2751 5.344 82.2751 6.384ZM85.1215 8.752C85.1215 10.96 85.6655 12.064 87.9055 12.064C88.3535 12.064 88.8175 12 88.8175 11.456C88.8175 10.944 88.3535 10.88 87.9855 10.88C87.8895 10.88 87.7775 10.896 87.6815 10.896C86.5295 10.896 86.3695 10.288 86.3695 8.64V5.456H88.0335C88.3535 5.456 88.6095 5.2 88.6095 4.864C88.6095 4.528 88.3535 4.272 88.0335 4.272H86.3695V2.064C86.3695 1.728 86.1455 1.456 85.7455 1.456C85.3455 1.456 85.1215 1.728 85.1215 2.064V8.752ZM94.2301 7.504C93.7341 7.36 93.1901 7.28 92.6141 7.28C90.7261 7.28 89.7981 8.08 89.7981 9.648V9.712C89.7981 11.152 90.5981 12.128 92.2461 12.128C93.1101 12.128 93.8301 11.84 94.4381 11.28C94.6781 11.776 95.1101 12.08 95.6381 12.08C95.9901 12.08 96.3581 11.936 96.3581 11.536C96.3581 11.264 96.1981 10.992 95.8941 10.992C95.8301 10.992 95.8141 11.008 95.7661 11.008C95.5741 11.008 95.4781 10.848 95.4781 10.528V7.008C95.4781 4.896 94.6781 3.776 92.6781 3.776C91.5741 3.776 90.3741 4.08 90.4381 4.816C90.4541 5.056 90.5821 5.344 90.8861 5.344C91.0621 5.344 91.2541 5.232 91.3021 5.216C91.6541 5.024 91.9581 4.88 92.5181 4.88C93.6701 4.88 94.2301 5.424 94.2301 6.592V7.504ZM92.5981 8.336C93.0781 8.336 93.7021 8.416 94.2301 8.576V10.304C93.6701 10.784 93.1261 11.008 92.4381 11.008C91.3661 11.008 91.0301 10.48 91.0301 9.728V9.664C91.0301 8.944 91.2861 8.336 92.5981 8.336ZM104.026 5.664C104.474 5.168 105.05 4.864 105.85 4.864C106.922 4.864 107.386 5.392 107.386 6.272V9.28C107.386 10.336 106.858 10.976 105.706 10.976C104.666 10.976 104.026 10.464 104.026 9.6V5.664ZM102.778 9.6C102.778 11.008 103.85 12.128 105.706 12.128C107.658 12.128 108.634 10.88 108.634 9.28V6.272C108.634 4.864 107.978 3.776 106.154 3.776C105.29 3.776 104.618 4.016 104.026 4.432V1.008C104.026 0.688 103.802 0.4 103.402 0.4C103.002 0.4 102.778 0.688 102.778 1.008V9.6ZM115.663 14.496C115.663 14.272 115.471 14.064 115.231 14.064C115.055 14.064 114.943 14.144 114.559 14.144C114.079 14.144 113.855 13.824 113.855 13.424C113.855 12.96 113.951 12.24 114.463 11.936C114.975 11.632 115.519 11.504 115.519 11.088C115.519 10.8 115.279 10.528 114.959 10.528C114.847 10.528 114.767 10.56 114.735 10.576C114.175 10.832 113.743 11.024 113.071 11.024C111.919 11.024 111.327 10.448 111.327 9.552V8.608C111.887 8.704 112.479 8.752 112.959 8.752C114.863 8.752 115.663 7.856 115.663 6.384C115.663 4.8 114.783 3.776 113.007 3.776C111.103 3.776 110.079 4.944 110.079 6.48V9.472C110.079 10.976 111.119 12.128 112.927 12.128C113.039 12.128 113.167 12.112 113.311 12.112C112.975 12.592 112.783 13.152 112.783 13.68C112.783 14.672 113.439 15.12 114.431 15.12C114.927 15.12 115.663 15.04 115.663 14.496ZM114.431 6.384C114.431 7.04 114.223 7.696 113.007 7.696C112.687 7.696 111.919 7.664 111.327 7.584V6.368C111.327 5.472 111.935 4.912 112.975 4.912C113.903 4.912 114.431 5.344 114.431 6.384ZM119.705 3.84C117.673 3.84 117.033 5.168 117.033 7.072V9.104C117.033 10.896 117.897 12.128 119.577 12.128C120.377 12.128 121.145 11.856 121.849 11.504C122.041 11.808 122.329 12.016 122.697 12.016C122.969 12.016 123.257 11.792 123.257 11.456C123.257 11.312 123.209 11.232 123.145 11.136C122.825 10.896 122.729 10.624 122.729 10.176V1.008C122.729 0.672 122.505 0.4 122.105 0.4C121.705 0.4 121.481 0.672 121.481 1.008V4.144C120.905 3.952 120.233 3.84 119.705 3.84ZM121.481 10.176C121.481 10.288 121.481 10.416 121.513 10.544C120.969 10.832 120.345 11.008 119.833 11.008C118.777 11.008 118.281 10.352 118.281 9.104V7.072C118.281 5.584 118.697 4.928 119.865 4.928C120.249 4.928 120.953 5.04 121.481 5.264V10.176ZM132.132 14.496C132.132 14.272 131.94 14.064 131.7 14.064C131.524 14.064 131.412 14.144 131.028 14.144C130.548 14.144 130.324 13.824 130.324 13.424C130.324 12.976 130.484 12.336 130.82 12C130.964 11.872 131.124 11.776 131.124 11.536C131.124 11.264 130.964 10.992 130.66 10.992C130.596 10.992 130.58 11.008 130.532 11.008C130.34 11.008 130.244 10.848 130.244 10.528V7.008C130.244 4.896 129.444 3.776 127.444 3.776C126.34 3.776 125.14 4.08 125.204 4.816C125.22 5.056 125.348 5.344 125.652 5.344C125.828 5.344 126.02 5.232 126.068 5.216C126.42 5.024 126.724 4.88 127.284 4.88C128.436 4.88 128.996 5.424 128.996 6.592V7.504C128.5 7.36 127.956 7.28 127.38 7.28C125.492 7.28 124.564 8.08 124.564 9.648V9.712C124.564 11.152 125.364 12.128 127.012 12.128C127.876 12.128 128.596 11.84 129.204 11.28C129.364 11.616 129.604 11.856 129.908 11.984C129.508 12.512 129.252 13.12 129.252 13.68C129.252 14.672 129.908 15.12 130.9 15.12C131.396 15.12 132.132 15.04 132.132 14.496ZM127.364 8.336C127.844 8.336 128.468 8.416 128.996 8.576V10.304C128.436 10.784 127.892 11.008 127.204 11.008C126.132 11.008 125.796 10.48 125.796 9.728V9.664C125.796 8.944 126.052 8.336 127.364 8.336ZM140.071 12.128C142.023 12.128 143.063 10.88 143.063 9.28V6.608C143.063 5.008 142.023 3.76 140.071 3.76C138.119 3.76 137.079 5.008 137.079 6.608V9.28C137.079 10.88 138.119 12.128 140.071 12.128ZM140.071 10.976C138.919 10.976 138.327 10.336 138.327 9.28V6.592C138.327 5.552 138.919 4.912 140.071 4.912C141.223 4.912 141.815 5.552 141.815 6.592V9.28C141.815 10.336 141.223 10.976 140.071 10.976ZM147.173 3.84C145.141 3.84 144.501 5.168 144.501 7.072V9.104C144.501 10.896 145.365 12.128 147.045 12.128C147.845 12.128 148.613 11.856 149.317 11.504C149.509 11.808 149.797 12.016 150.165 12.016C150.437 12.016 150.725 11.792 150.725 11.456C150.725 11.312 150.677 11.232 150.613 11.136C150.293 10.896 150.197 10.624 150.197 10.176V1.008C150.197 0.672 149.973 0.4 149.573 0.4C149.173 0.4 148.949 0.672 148.949 1.008V4.144C148.373 3.952 147.701 3.84 147.173 3.84ZM148.949 10.176C148.949 10.288 148.949 10.416 148.981 10.544C148.437 10.832 147.813 11.008 147.301 11.008C146.245 11.008 145.749 10.352 145.749 9.104V7.072C145.749 5.584 146.165 4.928 147.333 4.928C147.717 4.928 148.421 5.04 148.949 5.264V10.176ZM152.314 9.184C152.314 10.832 153.178 12.128 155.178 12.128C155.93 12.128 157.402 11.904 157.402 11.152C157.402 10.864 157.162 10.608 156.858 10.608C156.778 10.608 156.698 10.624 156.602 10.656C156.218 10.848 155.866 11.024 155.306 11.024C154.058 11.024 153.562 10.352 153.562 9.184V6.768C153.562 5.6 154.058 4.928 155.306 4.928C155.866 4.928 156.218 5.104 156.602 5.296C156.698 5.328 156.778 5.344 156.858 5.344C157.162 5.344 157.402 5.088 157.402 4.8C157.402 4.048 155.93 3.824 155.178 3.824C153.178 3.824 152.314 5.12 152.314 6.768V9.184ZM160.595 1.312C160.595 0.879999 160.259 0.544 159.827 0.544C159.395 0.544 159.059 0.879999 159.059 1.312C159.059 1.728 159.395 2.08 159.827 2.08C160.259 2.08 160.595 1.728 160.595 1.312ZM160.451 11.504V4.448C160.451 4.112 160.179 3.824 159.827 3.824C159.475 3.824 159.203 4.112 159.203 4.448V11.504C159.203 11.856 159.475 12.128 159.827 12.128C160.179 12.128 160.451 11.856 160.451 11.504ZM168.101 14.496C168.101 14.272 167.909 14.064 167.669 14.064C167.493 14.064 167.381 14.144 166.997 14.144C166.517 14.144 166.293 13.824 166.293 13.424C166.293 12.96 166.389 12.24 166.901 11.936C167.413 11.632 167.957 11.504 167.957 11.088C167.957 10.8 167.717 10.528 167.397 10.528C167.285 10.528 167.205 10.56 167.173 10.576C166.613 10.832 166.181 11.024 165.509 11.024C164.357 11.024 163.765 10.448 163.765 9.552V8.608C164.325 8.704 164.917 8.752 165.397 8.752C167.301 8.752 168.101 7.856 168.101 6.384C168.101 4.8 167.221 3.776 165.445 3.776C163.541 3.776 162.517 4.944 162.517 6.48V9.472C162.517 10.976 163.557 12.128 165.365 12.128C165.477 12.128 165.605 12.112 165.749 12.112C165.413 12.592 165.221 13.152 165.221 13.68C165.221 14.672 165.877 15.12 166.869 15.12C167.365 15.12 168.101 15.04 168.101 14.496ZM166.869 6.384C166.869 7.04 166.661 7.696 165.445 7.696C165.125 7.696 164.357 7.664 163.765 7.584V6.368C163.765 5.472 164.373 4.912 165.413 4.912C166.341 4.912 166.869 5.344 166.869 6.384ZM169.47 9.184C169.47 10.832 170.334 12.128 172.334 12.128C173.086 12.128 174.558 11.904 174.558 11.152C174.558 10.864 174.318 10.608 174.014 10.608C173.934 10.608 173.854 10.624 173.758 10.656C173.374 10.848 173.022 11.024 172.462 11.024C171.214 11.024 170.718 10.352 170.718 9.184V6.768C170.718 5.6 171.214 4.928 172.462 4.928C173.022 4.928 173.374 5.104 173.758 5.296C173.854 5.328 173.934 5.344 174.014 5.344C174.318 5.344 174.558 5.088 174.558 4.8C174.558 4.048 173.086 3.824 172.334 3.824C170.334 3.824 169.47 5.12 169.47 6.768V9.184ZM177.751 1.312C177.751 0.879999 177.415 0.544 176.983 0.544C176.551 0.544 176.215 0.879999 176.215 1.312C176.215 1.728 176.551 2.08 176.983 2.08C177.415 2.08 177.751 1.728 177.751 1.312ZM177.607 11.504V4.448C177.607 4.112 177.335 3.824 176.983 3.824C176.631 3.824 176.359 4.112 176.359 4.448V11.504C176.359 11.856 176.631 12.128 176.983 12.128C177.335 12.128 177.607 11.856 177.607 11.504ZM182.665 11.024C181.513 11.024 180.921 10.448 180.921 9.552V8.608C181.481 8.704 182.073 8.752 182.553 8.752C184.457 8.752 185.257 7.856 185.257 6.384C185.257 4.8 184.377 3.776 182.601 3.776C180.697 3.776 179.673 4.944 179.673 6.48V9.472C179.673 10.976 180.713 12.128 182.521 12.128C183.385 12.128 185.113 11.872 185.113 11.088C185.113 10.8 184.873 10.528 184.553 10.528C184.441 10.528 184.361 10.56 184.329 10.576C183.769 10.832 183.337 11.024 182.665 11.024ZM184.025 6.384C184.025 7.04 183.817 7.696 182.601 7.696C182.281 7.696 181.513 7.664 180.921 7.584V6.368C180.921 5.472 181.529 4.912 182.569 4.912C183.497 4.912 184.025 5.344 184.025 6.384ZM195.906 11.504C195.906 11.84 196.114 12.112 196.53 12.112C196.946 12.112 197.154 11.84 197.154 11.504V6.496C197.154 4.88 196.21 3.776 194.482 3.776C193.586 3.776 192.834 4.08 192.162 4.592C191.762 4.064 191.186 3.776 190.306 3.776C189.474 3.776 188.674 4.048 187.97 4.496C187.81 4.24 187.602 4.064 187.33 4.064C186.994 4.064 186.738 4.304 186.738 4.624C186.738 4.784 186.818 4.88 186.85 4.944C186.994 5.184 187.138 5.184 187.138 6.064V11.504C187.138 11.84 187.346 12.112 187.762 12.112C188.178 12.112 188.386 11.84 188.386 11.504V6.064C188.386 5.92 188.37 5.76 188.338 5.568C188.786 5.232 189.49 4.928 190.194 4.928C191.33 4.928 191.522 5.728 191.522 6.864V11.504C191.522 11.84 191.73 12.112 192.146 12.112C192.562 12.112 192.77 11.84 192.77 11.504V6.496C192.77 6.24 192.738 6 192.69 5.776C193.074 5.296 193.762 4.928 194.45 4.928C195.426 4.928 195.906 5.632 195.906 6.528V11.504ZM3.712 36.128C5.664 36.128 6.704 34.88 6.704 33.28V30.608C6.704 29.008 5.664 27.76 3.712 27.76C1.76 27.76 0.72 29.008 0.72 30.608V33.28C0.72 34.88 1.76 36.128 3.712 36.128ZM3.712 34.976C2.56 34.976 1.968 34.336 1.968 33.28V30.592C1.968 29.552 2.56 28.912 3.712 28.912C4.864 28.912 5.456 29.552 5.456 30.592V33.28C5.456 34.336 4.864 34.976 3.712 34.976ZM10.8139 27.84C8.78188 27.84 8.14188 29.168 8.14188 31.072V33.104C8.14188 34.896 9.00588 36.128 10.6859 36.128C11.4859 36.128 12.2539 35.856 12.9579 35.504C13.1499 35.808 13.4379 36.016 13.8059 36.016C14.0779 36.016 14.3659 35.792 14.3659 35.456C14.3659 35.312 14.3179 35.232 14.2539 35.136C13.9339 34.896 13.8379 34.624 13.8379 34.176V25.008C13.8379 24.672 13.6139 24.4 13.2139 24.4C12.8139 24.4 12.5899 24.672 12.5899 25.008V28.144C12.0139 27.952 11.3419 27.84 10.8139 27.84ZM12.5899 34.176C12.5899 34.288 12.5899 34.416 12.6219 34.544C12.0779 34.832 11.4539 35.008 10.9419 35.008C9.88588 35.008 9.38988 34.352 9.38988 33.104V31.072C9.38988 29.584 9.80588 28.928 10.9739 28.928C11.3579 28.928 12.0619 29.04 12.5899 29.264V34.176ZM30.0953 28.56C30.0953 28.528 30.1113 28.48 30.1113 28.448C30.1113 28.096 29.8233 27.824 29.5033 27.824C29.2313 27.824 28.9913 28.016 28.9273 28.272L27.4393 34.16C26.9433 32.224 26.4473 30.336 25.9833 28.384C25.9033 28.064 25.6633 27.824 25.2953 27.824C24.9113 27.824 24.6553 28.064 24.5753 28.384C24.0953 30.336 23.6313 32.224 23.1353 34.16L21.6313 28.272C21.5513 27.984 21.3113 27.824 21.0553 27.824C20.7033 27.824 20.4313 28.112 20.4313 28.416C20.4313 28.448 20.4313 28.48 20.4473 28.512L22.3033 35.408C22.4313 35.856 22.6713 36.128 23.1033 36.128C23.5033 36.128 23.7433 35.968 23.8553 35.584L25.2793 29.968L26.7193 35.584C26.8153 35.936 27.1193 36.128 27.4553 36.128C27.9193 36.128 28.1112 35.888 28.2552 35.408L30.0953 28.56ZM31.3011 30.08C31.3011 32.192 33.4291 32.304 34.4371 32.848C34.7571 33.024 35.0291 33.264 35.0291 33.84C35.0291 34.672 34.4371 35.024 33.5571 35.024C32.9171 35.024 32.4051 34.832 31.9571 34.656C31.9091 34.64 31.8931 34.624 31.7971 34.624C31.4131 34.624 31.2051 34.928 31.2051 35.2C31.2051 35.936 32.7411 36.128 33.5571 36.128C35.3331 36.128 36.2451 35.232 36.2451 33.792C36.2451 31.712 34.3731 31.568 33.2691 31.024C32.7251 30.752 32.5171 30.496 32.5171 30C32.5171 29.264 32.9651 28.88 33.9411 28.88C34.5171 28.88 34.8211 29.008 35.1571 29.168C35.2531 29.216 35.3331 29.248 35.4451 29.248C35.7811 29.248 36.0211 28.976 36.0211 28.672C36.0211 28 34.7251 27.776 33.8931 27.776C32.1971 27.776 31.3011 28.704 31.3011 30.08ZM42.9345 28.56C42.9345 28.16 42.6305 27.92 42.2785 27.92H38.0385C37.7185 27.92 37.4625 28.16 37.4625 28.496C37.4625 28.816 37.7185 29.072 38.0385 29.072H41.3825L37.4145 34.928C37.3345 35.056 37.3025 35.2 37.3025 35.328C37.3025 35.712 37.6065 36 37.9425 36H42.3745C42.7105 36 42.9665 35.744 42.9665 35.424C42.9665 35.104 42.7105 34.848 42.3745 34.848H38.8385L42.7905 29.008C42.8865 28.864 42.9345 28.704 42.9345 28.56ZM50.0395 28.64C50.0555 28.576 50.0715 28.512 50.0715 28.448C50.0715 28.08 49.7675 27.824 49.4475 27.824C49.2075 27.824 48.9675 27.968 48.8715 28.24L47.1275 34.304L45.1275 28.24C45.0315 27.968 44.8075 27.824 44.5675 27.824C44.2155 27.824 43.9435 28.064 43.9435 28.4C43.9435 28.464 43.9435 28.576 43.9755 28.624L46.5195 35.968C46.0395 37.456 45.5915 38 44.5835 38.048C44.2155 38.064 43.9915 38.352 43.9915 38.64C43.9915 38.992 44.2635 39.248 44.6315 39.248C46.7115 39.2 47.3195 37.488 48.0875 34.992L50.0395 28.64ZM51.1293 30.08C51.1293 32.192 53.2573 32.304 54.2653 32.848C54.5853 33.024 54.8573 33.264 54.8573 33.84C54.8573 34.672 54.2653 35.024 53.3853 35.024C52.7453 35.024 52.2333 34.832 51.7853 34.656C51.7373 34.64 51.7213 34.624 51.6253 34.624C51.2413 34.624 51.0333 34.928 51.0333 35.2C51.0333 35.936 52.5693 36.128 53.3853 36.128C55.1613 36.128 56.0733 35.232 56.0733 33.792C56.0733 31.712 54.2013 31.568 53.0973 31.024C52.5533 30.752 52.3453 30.496 52.3453 30C52.3453 29.264 52.7933 28.88 53.7693 28.88C54.3453 28.88 54.6493 29.008 54.9852 29.168C55.0813 29.216 55.1613 29.248 55.2733 29.248C55.6093 29.248 55.8493 28.976 55.8493 28.672C55.8493 28 54.5533 27.776 53.7213 27.776C52.0253 27.776 51.1293 28.704 51.1293 30.08ZM57.7153 32.752C57.7153 34.96 58.2593 36.064 60.4993 36.064C60.9473 36.064 61.4113 36 61.4113 35.456C61.4113 34.944 60.9473 34.88 60.5793 34.88C60.4833 34.88 60.3713 34.896 60.2753 34.896C59.1233 34.896 58.9633 34.288 58.9633 32.64V29.456H60.6273C60.9473 29.456 61.2033 29.2 61.2033 28.864C61.2033 28.528 60.9473 28.272 60.6273 28.272H58.9633V26.064C58.9633 25.728 58.7393 25.456 58.3393 25.456C57.9393 25.456 57.7153 25.728 57.7153 26.064V32.752ZM64.1039 25.024C64.1039 24.672 63.8319 24.4 63.4799 24.4C63.1279 24.4 62.8559 24.672 62.8559 25.024V35.504C62.8559 35.856 63.1279 36.128 63.4799 36.128C63.8319 36.128 64.1039 35.856 64.1039 35.504V32.64L64.6799 32.048L67.1599 35.824C67.2879 36.032 67.4639 36.128 67.6719 36.128C67.9919 36.128 68.2479 35.92 68.2639 35.6C68.2639 35.488 68.2319 35.328 68.1679 35.232L65.4639 31.232L67.8159 28.832C67.9279 28.72 67.9759 28.576 67.9759 28.416C67.9759 28.096 67.7199 27.84 67.3839 27.84C67.2399 27.84 67.0799 27.888 66.9999 27.984L64.1039 30.992V25.024ZM71.2513 25.312C71.2513 24.88 70.9153 24.544 70.4833 24.544C70.0513 24.544 69.7153 24.88 69.7153 25.312C69.7153 25.728 70.0513 26.08 70.4833 26.08C70.9153 26.08 71.2513 25.728 71.2513 25.312ZM71.1073 35.504V28.448C71.1073 28.112 70.8353 27.824 70.4833 27.824C70.1313 27.824 69.8593 28.112 69.8593 28.448V35.504C69.8593 35.856 70.1313 36.128 70.4833 36.128C70.8353 36.128 71.1073 35.856 71.1073 35.504ZM76.1651 35.024C75.0131 35.024 74.4211 34.448 74.4211 33.552V32.608C74.9811 32.704 75.5731 32.752 76.0531 32.752C77.9571 32.752 78.7571 31.856 78.7571 30.384C78.7571 28.8 77.8771 27.776 76.1011 27.776C74.1971 27.776 73.1731 28.944 73.1731 30.48V33.472C73.1731 34.976 74.2131 36.128 76.0211 36.128C76.8851 36.128 78.6131 35.872 78.6131 35.088C78.6131 34.8 78.3731 34.528 78.0531 34.528C77.9411 34.528 77.8611 34.56 77.8291 34.576C77.2691 34.832 76.8371 35.024 76.1651 35.024ZM77.5251 30.384C77.5251 31.04 77.3171 31.696 76.1011 31.696C75.7811 31.696 75.0131 31.664 74.4211 31.584V30.368C74.4211 29.472 75.0291 28.912 76.0691 28.912C76.9971 28.912 77.5251 29.344 77.5251 30.384ZM83.071 27.776C81.151 27.776 80.207 29.04 80.207 30.704C80.207 31.648 80.511 32.432 81.071 32.96C80.591 33.392 80.463 33.888 80.463 34.272C80.463 34.64 80.575 35.136 80.943 35.504C80.399 36.032 80.095 36.64 80.095 37.424C80.095 38.976 81.359 39.888 83.167 39.888C85.055 39.888 86.447 38.896 86.447 37.28C86.447 35.68 85.071 34.928 83.247 34.928H82.575C82.223 34.928 81.711 34.784 81.711 34.224C81.711 34.032 81.759 33.76 81.903 33.488C82.271 33.632 82.687 33.696 83.167 33.696C85.087 33.696 86.063 32.448 86.063 30.816V29.824C86.063 29.04 86.319 28.864 86.927 28.272C86.975 28.224 87.039 28.112 87.039 27.952C87.039 27.632 86.783 27.392 86.447 27.392C86.095 27.392 85.519 27.664 85.167 28.32C84.559 27.968 83.807 27.776 83.071 27.776ZM84.815 29.84V30.848C84.815 31.904 84.303 32.544 83.167 32.544C81.967 32.544 81.455 31.824 81.455 30.736C81.455 29.552 82.047 28.896 83.231 28.896C83.823 28.896 84.351 29.072 84.847 29.376C84.831 29.52 84.815 29.68 84.815 29.84ZM82.607 36.08H83.279C84.559 36.08 85.199 36.464 85.199 37.312C85.199 38.272 84.351 38.736 83.199 38.736C81.967 38.736 81.343 38.208 81.343 37.248C81.343 36.736 81.503 36.336 81.887 36C82.095 36.048 82.335 36.08 82.607 36.08ZM90.7901 36.128C92.7421 36.128 93.7821 34.88 93.7821 33.28V30.608C93.7821 29.008 92.7421 27.76 90.7901 27.76C88.8381 27.76 87.7981 29.008 87.7981 30.608V33.28C87.7981 34.88 88.8381 36.128 90.7901 36.128ZM90.7901 34.976C89.6381 34.976 89.0461 34.336 89.0461 33.28V30.592C89.0461 29.552 89.6381 28.912 90.7901 28.912C91.9421 28.912 92.5341 29.552 92.5341 30.592V33.28C92.5341 34.336 91.9421 34.976 90.7901 34.976ZM96.938 35.28C96.938 34.816 96.554 34.432 96.09 34.432C95.61 34.432 95.226 34.816 95.226 35.28C95.226 35.744 95.562 36.112 96.01 36.16C95.818 36.832 95.418 37.12 95.418 37.632C95.418 37.84 95.562 37.904 95.722 37.904C96.154 37.904 96.938 36.352 96.938 35.28ZM103.454 33.184C103.454 34.832 104.318 36.128 106.318 36.128C107.07 36.128 108.542 35.904 108.542 35.152C108.542 34.864 108.302 34.608 107.998 34.608C107.918 34.608 107.838 34.624 107.742 34.656C107.358 34.848 107.006 35.024 106.446 35.024C105.198 35.024 104.702 34.352 104.702 33.184V30.768C104.702 29.6 105.198 28.928 106.446 28.928C107.006 28.928 107.358 29.104 107.742 29.296C107.838 29.328 107.918 29.344 107.998 29.344C108.302 29.344 108.542 29.088 108.542 28.8C108.542 28.048 107.07 27.824 106.318 27.824C104.318 27.824 103.454 29.12 103.454 30.768V33.184ZM112.65 36.128C114.602 36.128 115.642 34.88 115.642 33.28V30.608C115.642 29.008 114.602 27.76 112.65 27.76C110.698 27.76 109.658 29.008 109.658 30.608V33.28C109.658 34.88 110.698 36.128 112.65 36.128ZM112.65 34.976C111.498 34.976 110.906 34.336 110.906 33.28V30.592C110.906 29.552 111.498 28.912 112.65 28.912C113.802 28.912 114.394 29.552 114.394 30.592V33.28C114.394 34.336 113.802 34.976 112.65 34.976ZM127.028 28.56C127.028 28.16 126.724 27.92 126.372 27.92H122.132C121.812 27.92 121.556 28.16 121.556 28.496C121.556 28.816 121.812 29.072 122.132 29.072H125.476L121.508 34.928C121.428 35.056 121.396 35.2 121.396 35.328C121.396 35.712 121.7 36 122.036 36H126.468C126.804 36 127.06 35.744 127.06 35.424C127.06 35.104 126.804 34.848 126.468 34.848H122.932L126.884 29.008C126.98 28.864 127.028 28.704 127.028 28.56ZM129.217 34.496C129.217 35.936 129.825 36.128 130.225 36.128C130.545 36.128 130.801 35.872 130.801 35.552C130.801 35.424 130.737 35.312 130.689 35.248C130.497 35.056 130.465 34.848 130.465 34.496V30.496L132.113 29.408C132.273 29.296 132.369 29.12 132.369 28.944C132.369 28.88 132.353 28.816 132.337 28.752C132.257 28.512 132.033 28.352 131.809 28.352C131.601 28.352 131.489 28.416 131.345 28.512L130.465 29.088V25.024C130.465 24.672 130.193 24.4 129.841 24.4C129.489 24.4 129.217 24.688 129.217 25.024V29.92L127.809 30.832C127.633 30.944 127.537 31.136 127.537 31.312C127.537 31.728 127.857 31.92 128.193 31.92C128.321 31.92 128.449 31.824 128.561 31.744L129.217 31.312V34.496ZM136.4 35.024C135.248 35.024 134.656 34.448 134.656 33.552V32.608C135.216 32.704 135.808 32.752 136.288 32.752C138.192 32.752 138.992 31.856 138.992 30.384C138.992 28.8 138.112 27.776 136.336 27.776C134.432 27.776 133.408 28.944 133.408 30.48V33.472C133.408 34.976 134.448 36.128 136.256 36.128C137.12 36.128 138.848 35.872 138.848 35.088C138.848 34.8 138.608 34.528 138.288 34.528C138.176 34.528 138.096 34.56 138.064 34.576C137.504 34.832 137.072 35.024 136.4 35.024ZM137.76 30.384C137.76 31.04 137.552 31.696 136.336 31.696C136.016 31.696 135.248 31.664 134.656 31.584V30.368C134.656 29.472 135.264 28.912 136.304 28.912C137.232 28.912 137.76 29.344 137.76 30.384ZM147.83 27.84C145.798 27.84 145.158 29.168 145.158 31.072V33.104C145.158 34.896 146.022 36.128 147.702 36.128C148.502 36.128 149.27 35.856 149.974 35.504C150.166 35.808 150.454 36.016 150.822 36.016C151.094 36.016 151.382 35.792 151.382 35.456C151.382 35.312 151.334 35.232 151.27 35.136C150.95 34.896 150.854 34.624 150.854 34.176V25.008C150.854 24.672 150.63 24.4 150.23 24.4C149.83 24.4 149.606 24.672 149.606 25.008V28.144C149.03 27.952 148.358 27.84 147.83 27.84ZM149.606 34.176C149.606 34.288 149.606 34.416 149.638 34.544C149.094 34.832 148.47 35.008 147.958 35.008C146.902 35.008 146.406 34.352 146.406 33.104V31.072C146.406 29.584 146.822 28.928 147.99 28.928C148.374 28.928 149.078 29.04 149.606 29.264V34.176ZM155.962 36.128C157.914 36.128 158.954 34.88 158.954 33.28V30.608C158.954 29.008 157.914 27.76 155.962 27.76C154.01 27.76 152.97 29.008 152.97 30.608V33.28C152.97 34.88 154.01 36.128 155.962 36.128ZM155.962 34.976C154.81 34.976 154.218 34.336 154.218 33.28V30.592C154.218 29.552 154.81 28.912 155.962 28.912C157.114 28.912 157.706 29.552 157.706 30.592V33.28C157.706 34.336 157.114 34.976 155.962 34.976ZM163.384 36.128C165.336 36.128 166.376 34.88 166.376 33.28V30.608C166.376 29.008 165.336 27.76 163.384 27.76C161.432 27.76 160.392 29.008 160.392 30.608V33.28C160.392 34.88 161.432 36.128 163.384 36.128ZM163.384 34.976C162.232 34.976 161.64 34.336 161.64 33.28V30.592C161.64 29.552 162.232 28.912 163.384 28.912C164.536 28.912 165.128 29.552 165.128 30.592V33.28C165.128 34.336 164.536 34.976 163.384 34.976ZM169.526 25.024C169.526 24.672 169.254 24.4 168.902 24.4C168.55 24.4 168.278 24.672 168.278 25.024V35.504C168.278 35.856 168.55 36.128 168.902 36.128C169.254 36.128 169.526 35.856 169.526 35.504V32.64L170.102 32.048L172.582 35.824C172.71 36.032 172.886 36.128 173.094 36.128C173.414 36.128 173.67 35.92 173.686 35.6C173.686 35.488 173.654 35.328 173.59 35.232L170.886 31.232L173.238 28.832C173.35 28.72 173.398 28.576 173.398 28.416C173.398 28.096 173.142 27.84 172.806 27.84C172.662 27.84 172.502 27.888 172.422 27.984L169.526 30.992V25.024ZM177.65 36.128C179.602 36.128 180.642 34.88 180.642 33.28V30.608C180.642 29.008 179.602 27.76 177.65 27.76C175.698 27.76 174.658 29.008 174.658 30.608V33.28C174.658 34.88 175.698 36.128 177.65 36.128ZM177.65 34.976C176.498 34.976 175.906 34.336 175.906 33.28V30.592C175.906 29.552 176.498 28.912 177.65 28.912C178.802 28.912 179.394 29.552 179.394 30.592V33.28C179.394 34.336 178.802 34.976 177.65 34.976ZM183.279 34.496C183.279 35.936 183.887 36.128 184.287 36.128C184.607 36.128 184.863 35.872 184.863 35.552C184.863 35.424 184.799 35.312 184.751 35.248C184.559 35.056 184.527 34.848 184.527 34.496V30.496L186.175 29.408C186.335 29.296 186.431 29.12 186.431 28.944C186.431 28.88 186.415 28.816 186.399 28.752C186.319 28.512 186.095 28.352 185.871 28.352C185.663 28.352 185.551 28.416 185.407 28.512L184.527 29.088V25.024C184.527 24.672 184.255 24.4 183.903 24.4C183.551 24.4 183.279 24.688 183.279 25.024V29.92L181.871 30.832C181.695 30.944 181.599 31.136 181.599 31.312C181.599 31.728 181.919 31.92 182.255 31.92C182.383 31.92 182.511 31.824 182.623 31.744L183.279 31.312V34.496ZM191.902 31.504C191.406 31.36 190.862 31.28 190.286 31.28C188.398 31.28 187.47 32.08 187.47 33.648V33.712C187.47 35.152 188.27 36.128 189.918 36.128C190.782 36.128 191.502 35.84 192.11 35.28C192.35 35.776 192.782 36.08 193.31 36.08C193.662 36.08 194.03 35.936 194.03 35.536C194.03 35.264 193.87 34.992 193.566 34.992C193.502 34.992 193.486 35.008 193.438 35.008C193.246 35.008 193.15 34.848 193.15 34.528V31.008C193.15 28.896 192.35 27.776 190.35 27.776C189.246 27.776 188.046 28.08 188.11 28.816C188.126 29.056 188.254 29.344 188.558 29.344C188.734 29.344 188.926 29.232 188.974 29.216C189.326 29.024 189.63 28.88 190.19 28.88C191.342 28.88 191.902 29.424 191.902 30.592V31.504ZM190.27 32.336C190.75 32.336 191.374 32.416 191.902 32.576V34.304C191.342 34.784 190.798 35.008 190.11 35.008C189.038 35.008 188.702 34.48 188.702 33.728V33.664C188.702 32.944 188.958 32.336 190.27 32.336ZM197.157 35.28C197.157 34.816 196.773 34.432 196.309 34.432C195.829 34.432 195.445 34.816 195.445 35.28C195.445 35.76 195.829 36.16 196.309 36.16C196.773 36.16 197.157 35.76 197.157 35.28ZM7.712 60.16C8.128 60.16 8.416 59.84 8.416 59.456V49.216C8.416 48.864 8.144 48.56 7.792 48.56C7.44 48.56 7.136 48.864 7.136 49.216V57.456L2.528 48.944C2.4 48.704 2.128 48.56 1.856 48.56C1.456 48.56 1.168 48.864 1.168 49.264V59.504C1.168 59.856 1.44 60.16 1.792 60.16C2.144 60.16 2.448 59.856 2.448 59.504V51.264L7.056 59.792C7.184 60.016 7.456 60.16 7.712 60.16ZM12.3138 49.312C12.3138 48.88 11.9778 48.544 11.5458 48.544C11.1138 48.544 10.7778 48.88 10.7778 49.312C10.7778 49.728 11.1138 50.08 11.5458 50.08C11.9778 50.08 12.3138 49.728 12.3138 49.312ZM12.1698 59.504V52.448C12.1698 52.112 11.8978 51.824 11.5458 51.824C11.1938 51.824 10.9218 52.112 10.9218 52.448V59.504C10.9218 59.856 11.1938 60.128 11.5458 60.128C11.8978 60.128 12.1698 59.856 12.1698 59.504ZM17.2276 59.024C16.0756 59.024 15.4836 58.448 15.4836 57.552V56.608C16.0436 56.704 16.6356 56.752 17.1156 56.752C19.0196 56.752 19.8196 55.856 19.8196 54.384C19.8196 52.8 18.9396 51.776 17.1636 51.776C15.2596 51.776 14.2356 52.944 14.2356 54.48V57.472C14.2356 58.976 15.2756 60.128 17.0836 60.128C17.9476 60.128 19.6756 59.872 19.6756 59.088C19.6756 58.8 19.4356 58.528 19.1156 58.528C19.0036 58.528 18.9236 58.56 18.8916 58.576C18.3316 58.832 17.8996 59.024 17.2276 59.024ZM18.5876 54.384C18.5876 55.04 18.3796 55.696 17.1636 55.696C16.8436 55.696 16.0756 55.664 15.4836 55.584V54.368C15.4836 53.472 16.0916 52.912 17.1316 52.912C18.0596 52.912 18.5876 53.344 18.5876 54.384ZM21.1888 57.184C21.1888 58.832 22.0528 60.128 24.0528 60.128C24.8048 60.128 26.2768 59.904 26.2768 59.152C26.2768 58.864 26.0368 58.608 25.7328 58.608C25.6528 58.608 25.5728 58.624 25.4768 58.656C25.0928 58.848 24.7408 59.024 24.1808 59.024C22.9328 59.024 22.4368 58.352 22.4368 57.184V54.768C22.4368 53.6 22.9328 52.928 24.1808 52.928C24.7408 52.928 25.0928 53.104 25.4768 53.296C25.5728 53.328 25.6528 53.344 25.7328 53.344C26.0368 53.344 26.2768 53.088 26.2768 52.8C26.2768 52.048 24.8048 51.824 24.0528 51.824C22.0528 51.824 21.1888 53.12 21.1888 54.768V57.184ZM29.041 59.504V53.856C29.505 53.232 30.241 52.944 30.897 52.944C31.889 52.944 32.289 53.472 32.289 54.448V59.504C32.289 59.856 32.561 60.128 32.913 60.128C33.249 60.128 33.537 59.856 33.537 59.504V54.432C33.537 52.88 32.753 51.776 31.041 51.776C30.273 51.776 29.585 52.032 29.041 52.448V48.928C29.041 48.576 28.769 48.304 28.417 48.304C28.065 48.304 27.809 48.608 27.809 48.928V59.504C27.809 59.856 28.081 60.128 28.433 60.128C28.785 60.128 29.041 59.856 29.041 59.504ZM42.0113 54.064C42.0113 53.936 41.9953 53.776 41.9633 53.6C42.5073 53.184 43.1153 52.928 43.7393 52.928C44.6993 52.928 45.2113 53.616 45.2113 54.832V59.504C45.2113 59.84 45.4353 60.112 45.8353 60.112C46.2353 60.112 46.4593 59.84 46.4593 59.504V54.832C46.4593 53.024 45.6113 51.808 43.9153 51.808C43.1473 51.808 42.3313 52.032 41.6273 52.528C41.4513 52.256 41.2433 52.064 40.9553 52.064C40.6193 52.064 40.3633 52.304 40.3633 52.624C40.3633 52.784 40.4433 52.88 40.4753 52.944C40.6193 53.184 40.7633 53.184 40.7633 54.064V59.504C40.7633 59.84 40.9713 60.112 41.3873 60.112C41.8033 60.112 42.0113 59.84 42.0113 59.504V54.064ZM52.8239 55.504C52.3279 55.36 51.7839 55.28 51.2079 55.28C49.3199 55.28 48.3919 56.08 48.3919 57.648V57.712C48.3919 59.152 49.1919 60.128 50.8399 60.128C51.7039 60.128 52.4239 59.84 53.0319 59.28C53.2719 59.776 53.7039 60.08 54.2319 60.08C54.5839 60.08 54.9519 59.936 54.9519 59.536C54.9519 59.264 54.7919 58.992 54.4879 58.992C54.4239 58.992 54.4079 59.008 54.3599 59.008C54.1679 59.008 54.0719 58.848 54.0719 58.528V55.008C54.0719 52.896 53.2719 51.776 51.2719 51.776C50.1679 51.776 48.9679 52.08 49.0319 52.816C49.0479 53.056 49.1759 53.344 49.4799 53.344C49.6559 53.344 49.8479 53.232 49.8959 53.216C50.2479 53.024 50.5519 52.88 51.1119 52.88C52.2639 52.88 52.8239 53.424 52.8239 54.592V55.504ZM51.1919 56.336C51.6719 56.336 52.2959 56.416 52.8239 56.576V58.304C52.2639 58.784 51.7199 59.008 51.0319 59.008C49.9599 59.008 49.6239 58.48 49.6239 57.728V57.664C49.6239 56.944 49.8799 56.336 51.1919 56.336ZM56.3636 54.08C56.3636 56.192 58.4916 56.304 59.4996 56.848C59.8196 57.024 60.0916 57.264 60.0916 57.84C60.0916 58.672 59.4996 59.024 58.6196 59.024C57.9796 59.024 57.4676 58.832 57.0196 58.656C56.9716 58.64 56.9556 58.624 56.8596 58.624C56.4756 58.624 56.2676 58.928 56.2676 59.2C56.2676 59.936 57.8036 60.128 58.6196 60.128C60.3956 60.128 61.3076 59.232 61.3076 57.792C61.3076 55.712 59.4356 55.568 58.3316 55.024C57.7876 54.752 57.5796 54.496 57.5796 54C57.5796 53.264 58.0276 52.88 59.0036 52.88C59.5796 52.88 59.8836 53.008 60.2196 53.168C60.3156 53.216 60.3956 53.248 60.5076 53.248C60.8436 53.248 61.0836 52.976 61.0836 52.672C61.0836 52 59.7876 51.776 58.9556 51.776C57.2596 51.776 56.3636 52.704 56.3636 54.08ZM68.4926 52.64C68.5086 52.576 68.5246 52.512 68.5246 52.448C68.5246 52.08 68.2206 51.824 67.9006 51.824C67.6606 51.824 67.4206 51.968 67.3246 52.24L65.5806 58.304L63.5806 52.24C63.4846 51.968 63.2606 51.824 63.0206 51.824C62.6686 51.824 62.3966 52.064 62.3966 52.4C62.3966 52.464 62.3966 52.576 62.4286 52.624L64.9726 59.968C64.4926 61.456 64.0446 62 63.0366 62.048C62.6686 62.064 62.4446 62.352 62.4446 62.64C62.4446 62.992 62.7166 63.248 63.0846 63.248C65.1646 63.2 65.7726 61.488 66.5406 58.992L68.4926 52.64ZM69.4544 57.184C69.4544 58.832 70.3184 60.128 72.3184 60.128C73.0704 60.128 74.5424 59.904 74.5424 59.152C74.5424 58.864 74.3024 58.608 73.9984 58.608C73.9184 58.608 73.8384 58.624 73.7424 58.656C73.3584 58.848 73.0064 59.024 72.4464 59.024C71.1984 59.024 70.7024 58.352 70.7024 57.184V54.768C70.7024 53.6 71.1984 52.928 72.4464 52.928C73.0064 52.928 73.3584 53.104 73.7424 53.296C73.8384 53.328 73.9184 53.344 73.9984 53.344C74.3024 53.344 74.5424 53.088 74.5424 52.8C74.5424 52.048 73.0704 51.824 72.3184 51.824C70.3184 51.824 69.4544 53.12 69.4544 54.768V57.184ZM83.3036 62.496C83.3036 62.272 83.1116 62.064 82.8716 62.064C82.6956 62.064 82.5836 62.144 82.1996 62.144C81.7196 62.144 81.4956 61.824 81.4956 61.424C81.4956 60.976 81.6556 60.336 81.9916 60C82.1356 59.872 82.2956 59.776 82.2956 59.536C82.2956 59.264 82.1356 58.992 81.8316 58.992C81.7676 58.992 81.7516 59.008 81.7036 59.008C81.5116 59.008 81.4156 58.848 81.4156 58.528V55.008C81.4156 52.896 80.6156 51.776 78.6156 51.776C77.5116 51.776 76.3116 52.08 76.3756 52.816C76.3916 53.056 76.5196 53.344 76.8236 53.344C76.9996 53.344 77.1916 53.232 77.2396 53.216C77.5916 53.024 77.8956 52.88 78.4556 52.88C79.6076 52.88 80.1676 53.424 80.1676 54.592V55.504C79.6716 55.36 79.1276 55.28 78.5516 55.28C76.6636 55.28 75.7356 56.08 75.7356 57.648V57.712C75.7356 59.152 76.5356 60.128 78.1836 60.128C79.0476 60.128 79.7676 59.84 80.3756 59.28C80.5356 59.616 80.7756 59.856 81.0796 59.984C80.6796 60.512 80.4236 61.12 80.4236 61.68C80.4236 62.672 81.0796 63.12 82.0716 63.12C82.5676 63.12 83.3036 63.04 83.3036 62.496ZM78.5356 56.336C79.0156 56.336 79.6396 56.416 80.1676 56.576V58.304C79.6076 58.784 79.0636 59.008 78.3756 59.008C77.3036 59.008 76.9676 58.48 76.9676 57.728V57.664C76.9676 56.944 77.2236 56.336 78.5356 56.336ZM88.2513 56.064C88.2513 58.528 89.3873 60.144 91.8513 60.144C93.3073 60.144 94.6833 59.52 94.6833 58.768C94.6833 58.464 94.4433 58.208 94.1073 58.208C93.8833 58.208 93.8033 58.32 93.5313 58.48C93.0513 58.816 92.5553 58.976 91.9313 58.976C90.1233 58.976 89.5312 57.856 89.5312 56.064V52.64C89.5312 50.848 90.1233 49.728 91.9313 49.728C92.5553 49.728 93.0513 49.888 93.5313 50.224C93.7873 50.384 93.8833 50.496 94.1073 50.496C94.4433 50.496 94.6833 50.24 94.6833 49.936C94.6833 49.184 93.3073 48.56 91.8513 48.56C89.3873 48.56 88.2513 50.176 88.2513 52.64V56.064ZM97.97 49.312C97.97 48.88 97.634 48.544 97.202 48.544C96.77 48.544 96.434 48.88 96.434 49.312C96.434 49.728 96.77 50.08 97.202 50.08C97.634 50.08 97.97 49.728 97.97 49.312ZM97.826 59.504V52.448C97.826 52.112 97.554 51.824 97.202 51.824C96.85 51.824 96.578 52.112 96.578 52.448V59.504C96.578 59.856 96.85 60.128 97.202 60.128C97.554 60.128 97.826 59.856 97.826 59.504ZM105.476 62.496C105.476 62.272 105.284 62.064 105.044 62.064C104.868 62.064 104.756 62.144 104.372 62.144C103.892 62.144 103.668 61.824 103.668 61.424C103.668 60.96 103.764 60.24 104.276 59.936C104.788 59.632 105.332 59.504 105.332 59.088C105.332 58.8 105.092 58.528 104.772 58.528C104.66 58.528 104.58 58.56 104.548 58.576C103.988 58.832 103.556 59.024 102.884 59.024C101.732 59.024 101.14 58.448 101.14 57.552V56.608C101.7 56.704 102.292 56.752 102.772 56.752C104.676 56.752 105.476 55.856 105.476 54.384C105.476 52.8 104.596 51.776 102.82 51.776C100.916 51.776 99.8919 52.944 99.8919 54.48V57.472C99.8919 58.976 100.932 60.128 102.74 60.128C102.852 60.128 102.98 60.112 103.124 60.112C102.788 60.592 102.596 61.152 102.596 61.68C102.596 62.672 103.252 63.12 104.244 63.12C104.74 63.12 105.476 63.04 105.476 62.496ZM104.244 54.384C104.244 55.04 104.036 55.696 102.82 55.696C102.5 55.696 101.732 55.664 101.14 55.584V54.368C101.14 53.472 101.748 52.912 102.788 52.912C103.716 52.912 104.244 53.344 104.244 54.384ZM111.642 57.184C111.642 58.832 112.506 60.128 114.506 60.128C115.258 60.128 116.73 59.904 116.73 59.152C116.73 58.864 116.49 58.608 116.186 58.608C116.106 58.608 116.026 58.624 115.93 58.656C115.546 58.848 115.194 59.024 114.634 59.024C113.386 59.024 112.89 58.352 112.89 57.184V54.768C112.89 53.6 113.386 52.928 114.634 52.928C115.194 52.928 115.546 53.104 115.93 53.296C116.026 53.328 116.106 53.344 116.186 53.344C116.49 53.344 116.73 53.088 116.73 52.8C116.73 52.048 115.258 51.824 114.506 51.824C112.506 51.824 111.642 53.12 111.642 54.768V57.184ZM119.923 49.312C119.923 48.88 119.587 48.544 119.155 48.544C118.723 48.544 118.387 48.88 118.387 49.312C118.387 49.728 118.723 50.08 119.155 50.08C119.587 50.08 119.923 49.728 119.923 49.312ZM119.779 59.504V52.448C119.779 52.112 119.507 51.824 119.155 51.824C118.803 51.824 118.531 52.112 118.531 52.448V59.504C118.531 59.856 118.803 60.128 119.155 60.128C119.507 60.128 119.779 59.856 119.779 59.504ZM124.837 59.024C123.685 59.024 123.093 58.448 123.093 57.552V56.608C123.653 56.704 124.245 56.752 124.725 56.752C126.629 56.752 127.429 55.856 127.429 54.384C127.429 52.8 126.549 51.776 124.773 51.776C122.869 51.776 121.845 52.944 121.845 54.48V57.472C121.845 58.976 122.885 60.128 124.693 60.128C125.557 60.128 127.285 59.872 127.285 59.088C127.285 58.8 127.045 58.528 126.725 58.528C126.613 58.528 126.533 58.56 126.501 58.576C125.941 58.832 125.509 59.024 124.837 59.024ZM126.197 54.384C126.197 55.04 125.989 55.696 124.773 55.696C124.453 55.696 123.685 55.664 123.093 55.584V54.368C123.093 53.472 123.701 52.912 124.741 52.912C125.669 52.912 126.197 53.344 126.197 54.384ZM132.334 60.112C134.366 60.112 135.006 58.784 135.006 56.88V54.8C135.006 53.008 134.142 51.776 132.462 51.776C131.63 51.776 130.846 52.096 130.126 52.48C129.966 52.256 129.758 52.096 129.502 52.096C129.23 52.096 128.942 52.32 128.942 52.656C128.942 52.8 128.99 52.88 129.054 52.976C129.246 53.264 129.31 53.568 129.31 54.096V62.832C129.31 63.168 129.534 63.44 129.934 63.44C130.334 63.44 130.558 63.168 130.558 62.832V59.808C131.134 60 131.79 60.112 132.334 60.112ZM130.558 54.096C130.558 53.904 130.526 53.68 130.478 53.44C131.022 53.104 131.662 52.896 132.206 52.896C133.262 52.896 133.758 53.552 133.758 54.8V56.88C133.758 58.368 133.342 59.024 132.174 59.024C131.774 59.024 131.07 58.928 130.558 58.688V54.096ZM137.639 58.496C137.639 59.936 138.247 60.128 138.647 60.128C138.967 60.128 139.223 59.872 139.223 59.552C139.223 59.424 139.159 59.312 139.111 59.248C138.919 59.056 138.887 58.848 138.887 58.496V54.496L140.535 53.408C140.695 53.296 140.791 53.12 140.791 52.944C140.791 52.88 140.775 52.816 140.759 52.752C140.679 52.512 140.455 52.352 140.231 52.352C140.023 52.352 139.911 52.416 139.767 52.512L138.887 53.088V49.024C138.887 48.672 138.615 48.4 138.263 48.4C137.911 48.4 137.639 48.688 137.639 49.024V53.92L136.231 54.832C136.055 54.944 135.959 55.136 135.959 55.312C135.959 55.728 136.279 55.92 136.615 55.92C136.743 55.92 136.871 55.824 136.983 55.744L137.639 55.312V58.496ZM144.821 59.024C143.669 59.024 143.077 58.448 143.077 57.552V56.608C143.637 56.704 144.229 56.752 144.709 56.752C146.613 56.752 147.413 55.856 147.413 54.384C147.413 52.8 146.533 51.776 144.757 51.776C142.853 51.776 141.829 52.944 141.829 54.48V57.472C141.829 58.976 142.869 60.128 144.677 60.128C145.541 60.128 147.269 59.872 147.269 59.088C147.269 58.8 147.029 58.528 146.709 58.528C146.597 58.528 146.517 58.56 146.485 58.576C145.925 58.832 145.493 59.024 144.821 59.024ZM146.181 54.384C146.181 55.04 145.973 55.696 144.757 55.696C144.437 55.696 143.669 55.664 143.077 55.584V54.368C143.077 53.472 143.685 52.912 144.725 52.912C145.653 52.912 146.181 53.344 146.181 54.384ZM158.062 59.504C158.062 59.84 158.271 60.112 158.687 60.112C159.103 60.112 159.311 59.84 159.311 59.504V54.496C159.311 52.88 158.367 51.776 156.639 51.776C155.743 51.776 154.991 52.08 154.319 52.592C153.919 52.064 153.343 51.776 152.463 51.776C151.631 51.776 150.831 52.048 150.127 52.496C149.967 52.24 149.759 52.064 149.487 52.064C149.151 52.064 148.895 52.304 148.895 52.624C148.895 52.784 148.975 52.88 149.007 52.944C149.151 53.184 149.295 53.184 149.295 54.064V59.504C149.295 59.84 149.503 60.112 149.919 60.112C150.335 60.112 150.543 59.84 150.543 59.504V54.064C150.543 53.92 150.527 53.76 150.495 53.568C150.943 53.232 151.647 52.928 152.351 52.928C153.487 52.928 153.679 53.728 153.679 54.864V59.504C153.679 59.84 153.887 60.112 154.303 60.112C154.719 60.112 154.927 59.84 154.927 59.504V54.496C154.927 54.24 154.895 54 154.847 53.776C155.231 53.296 155.919 52.928 156.607 52.928C157.583 52.928 158.062 53.632 158.062 54.528V59.504ZM163.204 59.28C163.204 58.816 162.82 58.432 162.356 58.432C161.876 58.432 161.492 58.816 161.492 59.28C161.492 59.744 161.828 60.112 162.276 60.16C162.084 60.832 161.684 61.12 161.684 61.632C161.684 61.84 161.828 61.904 161.988 61.904C162.42 61.904 163.204 60.352 163.204 59.28ZM0.848 78.08C0.848 80.192 2.976 80.304 3.984 80.848C4.304 81.024 4.576 81.264 4.576 81.84C4.576 82.672 3.984 83.024 3.104 83.024C2.464 83.024 1.952 82.832 1.504 82.656C1.456 82.64 1.44 82.624 1.344 82.624C0.96 82.624 0.752 82.928 0.752 83.2C0.752 83.936 2.288 84.128 3.104 84.128C4.88 84.128 5.792 83.232 5.792 81.792C5.792 79.712 3.92 79.568 2.816 79.024C2.272 78.752 2.064 78.496 2.064 78C2.064 77.264 2.512 76.88 3.488 76.88C4.064 76.88 4.368 77.008 4.704 77.168C4.8 77.216 4.88 77.248 4.992 77.248C5.328 77.248 5.568 76.976 5.568 76.672C5.568 76 4.272 75.776 3.44 75.776C1.744 75.776 0.848 76.704 0.848 78.08ZM10.756 84.112C12.788 84.112 13.428 82.784 13.428 80.88V78.8C13.428 77.008 12.564 75.776 10.884 75.776C10.052 75.776 9.268 76.096 8.548 76.48C8.388 76.256 8.18 76.096 7.924 76.096C7.652 76.096 7.364 76.32 7.364 76.656C7.364 76.8 7.412 76.88 7.476 76.976C7.668 77.264 7.732 77.568 7.732 78.096V86.832C7.732 87.168 7.956 87.44 8.356 87.44C8.756 87.44 8.98 87.168 8.98 86.832V83.808C9.556 84 10.212 84.112 10.756 84.112ZM8.98 78.096C8.98 77.904 8.948 77.68 8.9 77.44C9.444 77.104 10.084 76.896 10.628 76.896C11.684 76.896 12.18 77.552 12.18 78.8V80.88C12.18 82.368 11.764 83.024 10.596 83.024C10.196 83.024 9.492 82.928 8.98 82.688V78.096ZM17.8526 84.128C19.8046 84.128 20.8446 82.88 20.8446 81.28V78.608C20.8446 77.008 19.8046 75.76 17.8526 75.76C15.9006 75.76 14.8606 77.008 14.8606 78.608V81.28C14.8606 82.88 15.9006 84.128 17.8526 84.128ZM17.8526 82.976C16.7006 82.976 16.1086 82.336 16.1086 81.28V78.592C16.1086 77.552 16.7006 76.912 17.8526 76.912C19.0046 76.912 19.5966 77.552 19.5966 78.592V81.28C19.5966 82.336 19.0046 82.976 17.8526 82.976ZM23.9945 73.024C23.9945 72.672 23.7225 72.4 23.3705 72.4C23.0185 72.4 22.7465 72.672 22.7465 73.024V83.504C22.7465 83.856 23.0185 84.128 23.3705 84.128C23.7225 84.128 23.9945 83.856 23.9945 83.504V80.64L24.5705 80.048L27.0505 83.824C27.1785 84.032 27.3545 84.128 27.5625 84.128C27.8825 84.128 28.1385 83.92 28.1545 83.6C28.1545 83.488 28.1225 83.328 28.0585 83.232L25.3545 79.232L27.7065 76.832C27.8185 76.72 27.8665 76.576 27.8665 76.416C27.8665 76.096 27.6105 75.84 27.2745 75.84C27.1305 75.84 26.9705 75.888 26.8905 75.984L23.9945 78.992V73.024ZM32.1183 84.128C34.0703 84.128 35.1103 82.88 35.1103 81.28V78.608C35.1103 77.008 34.0703 75.76 32.1183 75.76C30.1663 75.76 29.1263 77.008 29.1263 78.608V81.28C29.1263 82.88 30.1663 84.128 32.1183 84.128ZM32.1183 82.976C30.9663 82.976 30.3743 82.336 30.3743 81.28V78.592C30.3743 77.552 30.9663 76.912 32.1183 76.912C33.2703 76.912 33.8623 77.552 33.8623 78.592V81.28C33.8623 82.336 33.2703 82.976 32.1183 82.976ZM38.4041 76.448C38.4041 76.112 38.1321 75.824 37.7801 75.824C37.4281 75.824 37.1561 76.112 37.1561 76.448V84.304C37.1561 85.472 36.6601 85.952 35.7961 86.144C35.5561 86.192 35.2041 86.4 35.3161 86.832C35.3801 87.088 35.5881 87.248 35.8441 87.248C35.9401 87.248 36.0201 87.248 36.1481 87.232C37.5881 87.024 38.4041 85.92 38.4041 84.24V76.448ZM38.5481 73.312C38.5481 72.88 38.2121 72.544 37.7801 72.544C37.3481 72.544 37.0121 72.88 37.0121 73.312C37.0121 73.728 37.3481 74.08 37.7801 74.08C38.2121 74.08 38.5481 73.728 38.5481 73.312ZM43.462 83.024C42.31 83.024 41.718 82.448 41.718 81.552V80.608C42.278 80.704 42.87 80.752 43.35 80.752C45.254 80.752 46.054 79.856 46.054 78.384C46.054 76.8 45.174 75.776 43.398 75.776C41.494 75.776 40.47 76.944 40.47 78.48V81.472C40.47 82.976 41.51 84.128 43.318 84.128C44.182 84.128 45.91 83.872 45.91 83.088C45.91 82.8 45.67 82.528 45.35 82.528C45.238 82.528 45.158 82.56 45.126 82.576C44.566 82.832 44.134 83.024 43.462 83.024ZM44.822 78.384C44.822 79.04 44.614 79.696 43.398 79.696C43.078 79.696 42.31 79.664 41.718 79.584V78.368C41.718 77.472 42.326 76.912 43.366 76.912C44.294 76.912 44.822 77.344 44.822 78.384ZM56.7031 83.504C56.7031 83.84 56.9111 84.112 57.3271 84.112C57.7431 84.112 57.9511 83.84 57.9511 83.504V78.496C57.9511 76.88 57.0071 75.776 55.2791 75.776C54.3831 75.776 53.6311 76.08 52.9591 76.592C52.5591 76.064 51.9831 75.776 51.1031 75.776C50.2711 75.776 49.4711 76.048 48.7671 76.496C48.6071 76.24 48.3991 76.064 48.1271 76.064C47.7911 76.064 47.5351 76.304 47.5351 76.624C47.5351 76.784 47.6151 76.88 47.6471 76.944C47.7911 77.184 47.9351 77.184 47.9351 78.064V83.504C47.9351 83.84 48.1431 84.112 48.5591 84.112C48.9751 84.112 49.1831 83.84 49.1831 83.504V78.064C49.1831 77.92 49.1671 77.76 49.1351 77.568C49.5831 77.232 50.2871 76.928 50.9911 76.928C52.1271 76.928 52.3191 77.728 52.3191 78.864V83.504C52.3191 83.84 52.5271 84.112 52.9431 84.112C53.3591 84.112 53.5671 83.84 53.5671 83.504V78.496C53.5671 78.24 53.5351 78 53.4871 77.776C53.8711 77.296 54.5591 76.928 55.2471 76.928C56.2231 76.928 56.7031 77.632 56.7031 78.528V83.504ZM66.6731 73.312C66.6731 72.88 66.3371 72.544 65.9051 72.544C65.4731 72.544 65.1371 72.88 65.1371 73.312C65.1371 73.728 65.4731 74.08 65.9051 74.08C66.3371 74.08 66.6731 73.728 66.6731 73.312ZM66.5291 83.504V76.448C66.5291 76.112 66.2571 75.824 65.9051 75.824C65.5531 75.824 65.2811 76.112 65.2811 76.448V83.504C65.2811 83.856 65.5531 84.128 65.9051 84.128C66.2571 84.128 66.5291 83.856 66.5291 83.504ZM82.6719 83.504C82.6719 83.84 82.8799 84.112 83.2959 84.112C83.7119 84.112 83.9199 83.84 83.9199 83.504V78.496C83.9199 76.88 82.9759 75.776 81.2479 75.776C80.3519 75.776 79.5999 76.08 78.9279 76.592C78.5279 76.064 77.9519 75.776 77.0719 75.776C76.2399 75.776 75.4399 76.048 74.7359 76.496C74.5759 76.24 74.3679 76.064 74.0959 76.064C73.7599 76.064 73.5039 76.304 73.5039 76.624C73.5039 76.784 73.5839 76.88 73.6159 76.944C73.7599 77.184 73.9039 77.184 73.9039 78.064V83.504C73.9039 83.84 74.1119 84.112 74.5279 84.112C74.9439 84.112 75.1519 83.84 75.1519 83.504V78.064C75.1519 77.92 75.1359 77.76 75.1039 77.568C75.5519 77.232 76.2559 76.928 76.9599 76.928C78.0959 76.928 78.2879 77.728 78.2879 78.864V83.504C78.2879 83.84 78.4959 84.112 78.9119 84.112C79.3279 84.112 79.5359 83.84 79.5359 83.504V78.496C79.5359 78.24 79.5039 78 79.4559 77.776C79.8399 77.296 80.5279 76.928 81.2159 76.928C82.1919 76.928 82.6719 77.632 82.6719 78.528V83.504ZM87.845 73.312C87.845 72.88 87.509 72.544 87.077 72.544C86.645 72.544 86.309 72.88 86.309 73.312C86.309 73.728 86.645 74.08 87.077 74.08C87.509 74.08 87.845 73.728 87.845 73.312ZM87.701 83.504V76.448C87.701 76.112 87.429 75.824 87.077 75.824C86.725 75.824 86.453 76.112 86.453 76.448V83.504C86.453 83.856 86.725 84.128 87.077 84.128C87.429 84.128 87.701 83.856 87.701 83.504ZM90.9669 82.496C90.9669 83.936 91.5749 84.128 91.9749 84.128C92.2949 84.128 92.5509 83.872 92.5509 83.552C92.5509 83.424 92.4869 83.312 92.4389 83.248C92.2469 83.056 92.2149 82.848 92.2149 82.496V78.496L93.8629 77.408C94.0229 77.296 94.1189 77.12 94.1189 76.944C94.1189 76.88 94.1029 76.816 94.0869 76.752C94.0069 76.512 93.7829 76.352 93.5589 76.352C93.3509 76.352 93.2389 76.416 93.0949 76.512L92.2149 77.088V73.024C92.2149 72.672 91.9429 72.4 91.5909 72.4C91.2389 72.4 90.9669 72.688 90.9669 73.024V77.92L89.5589 78.832C89.3829 78.944 89.2869 79.136 89.2869 79.312C89.2869 79.728 89.6069 79.92 89.9429 79.92C90.0709 79.92 90.1989 79.824 90.3109 79.744L90.9669 79.312V82.496ZM98.1495 84.128C100.102 84.128 101.142 82.88 101.142 81.28V78.608C101.142 77.008 100.102 75.76 98.1495 75.76C96.1975 75.76 95.1575 77.008 95.1575 78.608V81.28C95.1575 82.88 96.1975 84.128 98.1495 84.128ZM98.1495 82.976C96.9975 82.976 96.4055 82.336 96.4055 81.28V78.592C96.4055 77.552 96.9975 76.912 98.1495 76.912C99.3015 76.912 99.8935 77.552 99.8935 78.592V81.28C99.8935 82.336 99.3015 82.976 98.1495 82.976ZM102.707 78.08C102.707 80.192 104.835 80.304 105.843 80.848C106.163 81.024 106.435 81.264 106.435 81.84C106.435 82.672 105.843 83.024 104.963 83.024C104.323 83.024 103.811 82.832 103.363 82.656C103.315 82.64 103.299 82.624 103.203 82.624C102.819 82.624 102.611 82.928 102.611 83.2C102.611 83.936 104.147 84.128 104.963 84.128C106.739 84.128 107.651 83.232 107.651 81.792C107.651 79.712 105.779 79.568 104.675 79.024C104.131 78.752 103.923 78.496 103.923 78C103.923 77.264 104.371 76.88 105.347 76.88C105.923 76.88 106.227 77.008 106.563 77.168C106.659 77.216 106.739 77.248 106.851 77.248C107.187 77.248 107.427 76.976 107.427 76.672C107.427 76 106.131 75.776 105.299 75.776C103.603 75.776 102.707 76.704 102.707 78.08ZM104.675 74.016C104.611 74.096 104.595 74.176 104.595 74.256C104.595 74.592 104.835 74.816 105.123 74.816C105.331 74.816 105.443 74.704 105.635 74.528L106.931 73.152C106.995 73.072 107.011 72.96 107.011 72.88C107.011 72.576 106.739 72.352 106.515 72.352C106.227 72.352 106.147 72.512 105.923 72.72L104.675 74.016ZM109.079 81.184C109.079 82.832 109.943 84.128 111.943 84.128C112.695 84.128 114.167 83.904 114.167 83.152C114.167 82.864 113.927 82.608 113.623 82.608C113.543 82.608 113.463 82.624 113.367 82.656C112.983 82.848 112.631 83.024 112.071 83.024C110.823 83.024 110.327 82.352 110.327 81.184V78.768C110.327 77.6 110.823 76.928 112.071 76.928C112.631 76.928 112.983 77.104 113.367 77.296C113.463 77.328 113.543 77.344 113.623 77.344C113.927 77.344 114.167 77.088 114.167 76.8C114.167 76.048 112.695 75.824 111.943 75.824C109.943 75.824 109.079 77.12 109.079 78.768V81.184ZM117.361 73.312C117.361 72.88 117.025 72.544 116.593 72.544C116.161 72.544 115.825 72.88 115.825 73.312C115.825 73.728 116.161 74.08 116.593 74.08C117.025 74.08 117.361 73.728 117.361 73.312ZM117.217 83.504V76.448C117.217 76.112 116.945 75.824 116.593 75.824C116.241 75.824 115.969 76.112 115.969 76.448V83.504C115.969 83.856 116.241 84.128 116.593 84.128C116.945 84.128 117.217 83.856 117.217 83.504ZM126.851 86.496C126.851 86.272 126.659 86.064 126.419 86.064C126.243 86.064 126.131 86.144 125.747 86.144C125.267 86.144 125.043 85.824 125.043 85.424C125.043 84.976 125.203 84.336 125.539 84C125.683 83.872 125.843 83.776 125.843 83.536C125.843 83.264 125.683 82.992 125.379 82.992C125.315 82.992 125.299 83.008 125.251 83.008C125.059 83.008 124.963 82.848 124.963 82.528V79.008C124.963 76.896 124.163 75.776 122.163 75.776C121.059 75.776 119.859 76.08 119.923 76.816C119.939 77.056 120.067 77.344 120.371 77.344C120.547 77.344 120.739 77.232 120.787 77.216C121.139 77.024 121.443 76.88 122.003 76.88C123.155 76.88 123.715 77.424 123.715 78.592V79.504C123.219 79.36 122.674 79.28 122.099 79.28C120.211 79.28 119.283 80.08 119.283 81.648V81.712C119.283 83.152 120.083 84.128 121.731 84.128C122.595 84.128 123.315 83.84 123.923 83.28C124.083 83.616 124.323 83.856 124.627 83.984C124.227 84.512 123.971 85.12 123.971 85.68C123.971 86.672 124.627 87.12 125.619 87.12C126.115 87.12 126.851 87.04 126.851 86.496ZM122.083 80.336C122.562 80.336 123.187 80.416 123.715 80.576V82.304C123.155 82.784 122.611 83.008 121.923 83.008C120.851 83.008 120.515 82.48 120.515 81.728V81.664C120.515 80.944 120.771 80.336 122.083 80.336ZM128.969 83.28C128.969 82.816 128.585 82.432 128.121 82.432C127.641 82.432 127.257 82.816 127.257 83.28C127.257 83.76 127.641 84.16 128.121 84.16C128.585 84.16 128.969 83.76 128.969 83.28Z" fill="black"/>
</svg>
