<svg width="168" height="55" viewBox="0 0 168 55" fill="none" xmlns="http://www.w3.org/2000/svg">
<path d="M120.989 15V4.97852H122.315V15H120.989ZM124.503 15V7.74023H125.61V8.77246C126.144 7.97493 126.914 7.57617 127.921 7.57617C128.358 7.57617 128.759 7.65592 129.124 7.81543C129.493 7.97038 129.769 8.17546 129.951 8.43066C130.133 8.68587 130.261 8.98893 130.334 9.33984C130.38 9.56771 130.402 9.96647 130.402 10.5361V15H129.172V10.584C129.172 10.0827 129.124 9.70898 129.028 9.46289C128.933 9.21224 128.762 9.014 128.516 8.86816C128.274 8.71777 127.989 8.64258 127.661 8.64258C127.137 8.64258 126.684 8.80892 126.301 9.1416C125.923 9.47428 125.733 10.1055 125.733 11.0352V15H124.503ZM132.59 15V8.69727H131.503V7.74023H132.59V6.96777C132.59 6.48014 132.633 6.11784 132.72 5.88086C132.838 5.56185 133.046 5.30436 133.342 5.1084C133.643 4.90788 134.062 4.80762 134.6 4.80762C134.946 4.80762 135.329 4.84863 135.748 4.93066L135.563 6.00391C135.308 5.95833 135.067 5.93555 134.839 5.93555C134.465 5.93555 134.201 6.0153 134.046 6.1748C133.891 6.33431 133.813 6.63281 133.813 7.07031V7.74023H135.229V8.69727H133.813V15H132.59ZM135.734 11.3701C135.734 10.0257 136.108 9.02995 136.855 8.38281C137.48 7.84505 138.241 7.57617 139.139 7.57617C140.137 7.57617 140.952 7.9043 141.586 8.56055C142.219 9.21224 142.536 10.1146 142.536 11.2676C142.536 12.2018 142.395 12.9378 142.112 13.4756C141.834 14.0088 141.426 14.4235 140.889 14.7197C140.355 15.016 139.772 15.1641 139.139 15.1641C138.122 15.1641 137.3 14.8382 136.671 14.1865C136.047 13.5348 135.734 12.596 135.734 11.3701ZM136.999 11.3701C136.999 12.2998 137.202 12.9971 137.607 13.4619C138.013 13.9222 138.523 14.1523 139.139 14.1523C139.749 14.1523 140.257 13.9199 140.663 13.4551C141.069 12.9902 141.271 12.2816 141.271 11.3291C141.271 10.4313 141.066 9.75228 140.656 9.29199C140.251 8.82715 139.745 8.59473 139.139 8.59473C138.523 8.59473 138.013 8.82487 137.607 9.28516C137.202 9.74544 136.999 10.4404 136.999 11.3701ZM143.958 15V4.97852H145.188V15H143.958ZM147.109 6.39355V4.97852H148.34V6.39355H147.109ZM147.109 15V7.74023H148.34V15H147.109ZM150.22 15V7.74023H151.327V8.77246C151.86 7.97493 152.631 7.57617 153.638 7.57617C154.075 7.57617 154.476 7.65592 154.841 7.81543C155.21 7.97038 155.486 8.17546 155.668 8.43066C155.85 8.68587 155.978 8.98893 156.051 9.33984C156.096 9.56771 156.119 9.96647 156.119 10.5361V15H154.889V10.584C154.889 10.0827 154.841 9.70898 154.745 9.46289C154.649 9.21224 154.479 9.014 154.232 8.86816C153.991 8.71777 153.706 8.64258 153.378 8.64258C152.854 8.64258 152.4 8.80892 152.018 9.1416C151.639 9.47428 151.45 10.1055 151.45 11.0352V15H150.22ZM158.02 6.39355V4.97852H159.25V6.39355H158.02ZM158.02 15V7.74023H159.25V15H158.02ZM165.867 14.1045C165.411 14.4919 164.972 14.7653 164.548 14.9248C164.129 15.0843 163.677 15.1641 163.194 15.1641C162.397 15.1641 161.784 14.9704 161.355 14.583C160.927 14.1911 160.713 13.6921 160.713 13.0859C160.713 12.7305 160.793 12.4069 160.952 12.1152C161.116 11.819 161.328 11.582 161.588 11.4043C161.852 11.2266 162.148 11.0921 162.477 11.001C162.718 10.9372 163.083 10.8757 163.57 10.8164C164.564 10.6979 165.295 10.5566 165.765 10.3926C165.769 10.224 165.771 10.1169 165.771 10.0713C165.771 9.56999 165.655 9.2168 165.423 9.01172C165.108 8.73372 164.641 8.59473 164.021 8.59473C163.443 8.59473 163.014 8.69727 162.736 8.90234C162.463 9.10286 162.26 9.46061 162.128 9.97559L160.925 9.81152C161.034 9.29655 161.214 8.88184 161.465 8.56738C161.715 8.24837 162.078 8.00456 162.552 7.83594C163.026 7.66276 163.575 7.57617 164.199 7.57617C164.819 7.57617 165.323 7.64909 165.71 7.79492C166.097 7.94076 166.382 8.12533 166.564 8.34863C166.747 8.56738 166.874 8.84538 166.947 9.18262C166.988 9.39225 167.009 9.77051 167.009 10.3174V11.958C167.009 13.1019 167.034 13.8265 167.084 14.1318C167.139 14.4326 167.243 14.722 167.398 15H166.113C165.986 14.7448 165.904 14.4463 165.867 14.1045ZM165.765 11.3564C165.318 11.5387 164.648 11.6937 163.755 11.8213C163.249 11.8942 162.891 11.9762 162.682 12.0674C162.472 12.1585 162.31 12.293 162.196 12.4707C162.082 12.6439 162.025 12.8376 162.025 13.0518C162.025 13.3799 162.148 13.6533 162.395 13.8721C162.645 14.0908 163.01 14.2002 163.488 14.2002C163.962 14.2002 164.384 14.0977 164.753 13.8926C165.122 13.6829 165.393 13.3981 165.566 13.0381C165.699 12.7601 165.765 12.3499 165.765 11.8076V11.3564Z" fill="black"/>
<path d="M51.9551 35.4277V32.8789H61.3398V34.8711C60.5651 35.6328 59.7773 36.7266 58.9766 38.1523C58.1758 39.5781 57.5638 41.0951 57.1406 42.7031C56.724 44.3047 56.5189 45.737 56.5254 47H53.8789C53.9245 45.0208 54.3314 43.0026 55.0996 40.9453C55.8743 38.888 56.9062 37.0488 58.1953 35.4277H51.9551ZM70.1094 47H67.3652V36.6582C66.3626 37.5957 65.181 38.2891 63.8203 38.7383V36.248C64.5365 36.0137 65.3145 35.571 66.1543 34.9199C66.9941 34.2624 67.5703 33.4974 67.8828 32.625H70.1094V47ZM79.6895 43.2012L82.3457 42.8789C82.4303 43.556 82.6582 44.0736 83.0293 44.4316C83.4004 44.7897 83.8496 44.9688 84.377 44.9688C84.9434 44.9688 85.4186 44.7539 85.8027 44.3242C86.1934 43.8945 86.3887 43.3151 86.3887 42.5859C86.3887 41.8958 86.2031 41.349 85.832 40.9453C85.4609 40.5417 85.0085 40.3398 84.4746 40.3398C84.123 40.3398 83.7031 40.4082 83.2148 40.5449L83.5176 38.3086C84.2598 38.3281 84.8262 38.1686 85.2168 37.8301C85.6074 37.485 85.8027 37.0293 85.8027 36.4629C85.8027 35.9811 85.6595 35.597 85.373 35.3105C85.0866 35.0241 84.7057 34.8809 84.2305 34.8809C83.7617 34.8809 83.3613 35.0436 83.0293 35.3691C82.6973 35.6947 82.4954 36.1699 82.4238 36.7949L79.8945 36.3652C80.0703 35.4993 80.334 34.8092 80.6855 34.2949C81.0436 33.7741 81.5384 33.3672 82.1699 33.0742C82.8079 32.7747 83.5208 32.625 84.3086 32.625C85.6562 32.625 86.737 33.0547 87.5508 33.9141C88.2214 34.6172 88.5566 35.4115 88.5566 36.2969C88.5566 37.5534 87.8698 38.556 86.4961 39.3047C87.3164 39.4805 87.9707 39.8743 88.459 40.4863C88.9538 41.0983 89.2012 41.8372 89.2012 42.7031C89.2012 43.9596 88.7422 45.0306 87.8242 45.916C86.9062 46.8014 85.7637 47.2441 84.3965 47.2441C83.1009 47.2441 82.0267 46.873 81.1738 46.1309C80.321 45.3822 79.8262 44.4056 79.6895 43.2012ZM90.8223 43.2012L93.4785 42.8789C93.5632 43.556 93.791 44.0736 94.1621 44.4316C94.5332 44.7897 94.9824 44.9688 95.5098 44.9688C96.0762 44.9688 96.5514 44.7539 96.9355 44.3242C97.3262 43.8945 97.5215 43.3151 97.5215 42.5859C97.5215 41.8958 97.3359 41.349 96.9648 40.9453C96.5938 40.5417 96.1413 40.3398 95.6074 40.3398C95.2559 40.3398 94.8359 40.4082 94.3477 40.5449L94.6504 38.3086C95.3926 38.3281 95.959 38.1686 96.3496 37.8301C96.7402 37.485 96.9355 37.0293 96.9355 36.4629C96.9355 35.9811 96.7923 35.597 96.5059 35.3105C96.2194 35.0241 95.8385 34.8809 95.3633 34.8809C94.8945 34.8809 94.4941 35.0436 94.1621 35.3691C93.8301 35.6947 93.6283 36.1699 93.5566 36.7949L91.0273 36.3652C91.2031 35.4993 91.4668 34.8092 91.8184 34.2949C92.1764 33.7741 92.6712 33.3672 93.3027 33.0742C93.9408 32.7747 94.6536 32.625 95.4414 32.625C96.7891 32.625 97.8698 33.0547 98.6836 33.9141C99.3542 34.6172 99.6895 35.4115 99.6895 36.2969C99.6895 37.5534 99.0026 38.556 97.6289 39.3047C98.4492 39.4805 99.1035 39.8743 99.5918 40.4863C100.087 41.0983 100.334 41.8372 100.334 42.7031C100.334 43.9596 99.875 45.0306 98.957 45.916C98.0391 46.8014 96.8965 47.2441 95.5293 47.2441C94.2337 47.2441 93.1595 46.873 92.3066 46.1309C91.4538 45.3822 90.959 44.4056 90.8223 43.2012ZM111.32 44.4512V47H101.701C101.805 46.0365 102.118 45.125 102.639 44.2656C103.16 43.3997 104.188 42.2539 105.725 40.8281C106.962 39.6758 107.72 38.8945 108 38.4844C108.378 37.918 108.566 37.3581 108.566 36.8047C108.566 36.1927 108.4 35.724 108.068 35.3984C107.743 35.0664 107.29 34.9004 106.711 34.9004C106.138 34.9004 105.682 35.0729 105.344 35.418C105.005 35.763 104.81 36.3359 104.758 37.1367L102.023 36.8633C102.186 35.3529 102.697 34.2689 103.557 33.6113C104.416 32.9538 105.49 32.625 106.779 32.625C108.192 32.625 109.302 33.0059 110.109 33.7676C110.917 34.5293 111.32 35.4766 111.32 36.6094C111.32 37.2539 111.203 37.8691 110.969 38.4551C110.741 39.0345 110.376 39.6432 109.875 40.2812C109.543 40.7044 108.944 41.3132 108.078 42.1074C107.212 42.9017 106.662 43.429 106.428 43.6895C106.2 43.9499 106.014 44.2038 105.871 44.4512H111.32ZM118.654 43.2012L121.311 42.8789C121.395 43.556 121.623 44.0736 121.994 44.4316C122.365 44.7897 122.814 44.9688 123.342 44.9688C123.908 44.9688 124.383 44.7539 124.768 44.3242C125.158 43.8945 125.354 43.3151 125.354 42.5859C125.354 41.8958 125.168 41.349 124.797 40.9453C124.426 40.5417 123.973 40.3398 123.439 40.3398C123.088 40.3398 122.668 40.4082 122.18 40.5449L122.482 38.3086C123.225 38.3281 123.791 38.1686 124.182 37.8301C124.572 37.485 124.768 37.0293 124.768 36.4629C124.768 35.9811 124.624 35.597 124.338 35.3105C124.051 35.0241 123.671 34.8809 123.195 34.8809C122.727 34.8809 122.326 35.0436 121.994 35.3691C121.662 35.6947 121.46 36.1699 121.389 36.7949L118.859 36.3652C119.035 35.4993 119.299 34.8092 119.65 34.2949C120.008 33.7741 120.503 33.3672 121.135 33.0742C121.773 32.7747 122.486 32.625 123.273 32.625C124.621 32.625 125.702 33.0547 126.516 33.9141C127.186 34.6172 127.521 35.4115 127.521 36.2969C127.521 37.5534 126.835 38.556 125.461 39.3047C126.281 39.4805 126.936 39.8743 127.424 40.4863C127.919 41.0983 128.166 41.8372 128.166 42.7031C128.166 43.9596 127.707 45.0306 126.789 45.916C125.871 46.8014 124.729 47.2441 123.361 47.2441C122.066 47.2441 120.992 46.873 120.139 46.1309C119.286 45.3822 118.791 44.4056 118.654 43.2012ZM139.182 36.1895L136.525 36.4824C136.46 35.9355 136.291 35.5319 136.018 35.2715C135.744 35.0111 135.389 34.8809 134.953 34.8809C134.374 34.8809 133.882 35.1413 133.479 35.6621C133.081 36.1829 132.831 37.2669 132.727 38.9141C133.41 38.1068 134.26 37.7031 135.275 37.7031C136.421 37.7031 137.401 38.1393 138.215 39.0117C139.035 39.8841 139.445 41.0104 139.445 42.3906C139.445 43.8555 139.016 45.0306 138.156 45.916C137.297 46.8014 136.193 47.2441 134.846 47.2441C133.4 47.2441 132.212 46.6842 131.281 45.5645C130.35 44.4382 129.885 42.5957 129.885 40.0371C129.885 37.4134 130.37 35.5221 131.34 34.3633C132.31 33.2044 133.57 32.625 135.119 32.625C136.206 32.625 137.105 32.931 137.814 33.543C138.531 34.1484 138.986 35.0306 139.182 36.1895ZM132.961 42.1758C132.961 43.0677 133.166 43.7578 133.576 44.2461C133.986 44.7279 134.455 44.9688 134.982 44.9688C135.49 44.9688 135.913 44.7702 136.252 44.373C136.59 43.9759 136.76 43.3249 136.76 42.4199C136.76 41.4889 136.577 40.8086 136.213 40.3789C135.848 39.9427 135.393 39.7246 134.846 39.7246C134.318 39.7246 133.872 39.9329 133.508 40.3496C133.143 40.7598 132.961 41.3685 132.961 42.1758ZM146.584 35.4277V32.8789H155.969V34.8711C155.194 35.6328 154.406 36.7266 153.605 38.1523C152.805 39.5781 152.193 41.0951 151.77 42.7031C151.353 44.3047 151.148 45.737 151.154 47H148.508C148.553 45.0208 148.96 43.0026 149.729 40.9453C150.503 38.888 151.535 37.0488 152.824 35.4277H146.584ZM162.355 32.625C163.742 32.625 164.826 33.1198 165.607 34.1094C166.538 35.2812 167.004 37.2246 167.004 39.9395C167.004 42.6478 166.535 44.5944 165.598 45.7793C164.823 46.7559 163.742 47.2441 162.355 47.2441C160.962 47.2441 159.839 46.7103 158.986 45.6426C158.133 44.5684 157.707 42.6576 157.707 39.9102C157.707 37.2148 158.176 35.2747 159.113 34.0898C159.888 33.1133 160.969 32.625 162.355 32.625ZM162.355 34.9004C162.023 34.9004 161.727 35.0078 161.467 35.2227C161.206 35.431 161.005 35.8086 160.861 36.3555C160.673 37.0651 160.578 38.2598 160.578 39.9395C160.578 41.6191 160.663 42.7747 160.832 43.4062C161.001 44.0312 161.213 44.4479 161.467 44.6562C161.727 44.8646 162.023 44.9688 162.355 44.9688C162.688 44.9688 162.984 44.8646 163.244 44.6562C163.505 44.4414 163.706 44.0605 163.85 43.5137C164.038 42.8105 164.133 41.6191 164.133 39.9395C164.133 38.2598 164.048 37.1074 163.879 36.4824C163.71 35.8509 163.495 35.431 163.234 35.2227C162.98 35.0078 162.688 34.9004 162.355 34.9004Z" fill="black"/>
</svg>
