<svg width="20" height="16" viewBox="0 0 20 16" fill="none" xmlns="http://www.w3.org/2000/svg">
<path d="M19.1666 2.26344C18.4848 2.5625 17.7584 2.76073 17.001 2.85698C17.7801 2.39177 18.3748 1.66073 18.6544 0.779583C17.9279 1.21271 17.1259 1.51865 16.2711 1.68938C15.5813 0.954896 14.5981 0.5 13.5256 0.5C11.4448 0.5 9.76961 2.18896 9.76961 4.25948C9.76961 4.5574 9.79481 4.84385 9.85669 5.11656C6.732 4.96417 3.96711 3.46656 2.10971 1.18521C1.78544 1.74781 1.59523 2.39177 1.59523 3.085C1.59523 4.38667 2.26554 5.54052 3.26471 6.20854C2.66086 6.19708 2.06846 6.02177 1.56659 5.74563C1.56659 5.75708 1.56659 5.77198 1.56659 5.78687C1.56659 7.61333 2.8694 9.13042 4.57783 9.4799C4.2719 9.56354 3.93846 9.60365 3.59242 9.60365C3.35179 9.60365 3.10888 9.5899 2.88086 9.53948C3.36784 11.0279 4.74971 12.1222 6.39284 12.1577C5.11409 13.158 3.49044 13.7607 1.73273 13.7607C1.4245 13.7607 1.12888 13.747 0.833252 13.7092C2.49815 14.7828 4.47127 15.3958 6.59908 15.3958C13.5153 15.3958 17.2966 9.66667 17.2966 4.70062C17.2966 4.53448 17.2909 4.37406 17.2828 4.21479C18.0288 3.68542 18.6555 3.02427 19.1666 2.26344Z" fill="black"/>
</svg>
