<svg width="18" height="13" viewBox="0 0 18 13" fill="none" xmlns="http://www.w3.org/2000/svg">
<path d="M17.2097 3.31189V3.30538C17.1967 3.17192 17.0535 1.97725 16.474 1.37179C15.8035 0.65564 15.045 0.571004 14.6804 0.528687C14.6511 0.525431 14.6218 0.522176 14.599 0.518921L14.5697 0.515666C12.3627 0.35616 9.03589 0.333374 9.00334 0.333374H9.00008H8.99683C8.96427 0.333374 5.63745 0.35616 3.41414 0.515666L3.38485 0.518921C3.36206 0.522176 3.33602 0.525431 3.30672 0.528687C2.94539 0.571004 2.19344 0.65564 1.51961 1.39783C0.966227 1.99679 0.806722 3.16541 0.790446 3.29561L0.787191 3.31189C0.783936 3.36723 0.666748 4.69861 0.666748 6.03324V7.27999C0.666748 8.61462 0.783936 9.94275 0.790446 9.99809V10.0079C0.803467 10.1413 0.943441 11.3099 1.52287 11.9187C2.15438 12.6088 2.9519 12.6999 3.37834 12.7487C3.4467 12.7552 3.50529 12.7618 3.54435 12.7715L3.58341 12.778C4.8562 12.8985 8.84383 12.9603 9.0131 12.9603H9.01961H9.02612C9.05867 12.9603 12.3855 12.9375 14.5893 12.778L14.6186 12.7748C14.6479 12.7715 14.6772 12.7683 14.713 12.765C15.071 12.726 15.8197 12.6478 16.4838 11.9187C17.0372 11.3197 17.1967 10.1511 17.213 10.0209L17.2162 10.0046C17.2227 9.94926 17.3399 8.62113 17.3399 7.2865V6.03975C17.3334 4.69861 17.2162 3.36723 17.2097 3.31189ZM11.5587 7.08793L7.87703 9.0671C7.77612 9.12244 7.6687 9.14848 7.55802 9.14848C7.43758 9.14848 7.31714 9.11593 7.20972 9.05082C7.00464 8.92712 6.88094 8.71228 6.88094 8.47139V4.48051C6.88094 4.23962 7.00464 4.02152 7.21297 3.89783C7.4213 3.77413 7.67196 3.76762 7.88354 3.88481L11.5652 5.89978C11.7833 6.02022 11.9167 6.24809 11.9135 6.49548C11.9135 6.74288 11.7768 6.97074 11.5587 7.08793Z" fill="black"/>
</svg>
